SplineFontDB: 3.0
FontName: LiberationSans-Bold
FullName: Liberation Sans Bold
FamilyName: Liberation Sans
Weight: Bold
Copyright: Digitized data copyright (c) 2010 Google Corporation.\nCopyright (c) 2012 Red Hat, Inc.
Version: 2.00.5
ItalicAngle: 0
UnderlinePosition: -110
UnderlineWidth: 215
Ascent: 1638
Descent: 410
InvalidEm: 0
LayerCount: 2
Layer: 0 1 "Back" 1
Layer: 1 1 "Fore" 0
XUID: [1021 445 290132255 2353723]
FSType: 0
OS2Version: 3
OS2_WeightWidthSlopeOnly: 0
OS2_UseTypoMetrics: 0
CreationTime: 1277409190
ModificationTime: 1551690110
PfmFamily: 17
TTFWeight: 700
TTFWidth: 5
LineGap: 67
VLineGap: 0
Panose: 2 11 7 4 2 2 2 2 2 4
OS2TypoAscent: 1491
OS2TypoAOffset: 0
OS2TypoDescent: -431
OS2TypoDOffset: 0
OS2TypoLinegap: 307
OS2WinAscent: 1854
OS2WinAOffset: 0
OS2WinDescent: 434
OS2WinDOffset: 0
HheadAscent: 1854
HheadAOffset: 0
HheadDescent: -434
HheadDOffset: 0
OS2SubXSize: 1434
OS2SubYSize: 1331
OS2SubXOff: 0
OS2SubYOff: 283
OS2SupXSize: 1434
OS2SupYSize: 1331
OS2SupXOff: 0
OS2SupYOff: 977
OS2StrikeYSize: 102
OS2StrikeYPos: 530
OS2FamilyClass: 2053
OS2Vendor: '1ASC'
OS2CodePages: 600001bf.dff70000
OS2UnicodeRanges: e0000aff.500078ff.00000021.00000000
Lookup: 4 1 0 "'dlig' Discretionary Ligatures in Hebrew lookup 0" { "'dlig' Discretionary Ligatures in Hebrew lookup 0 subtable"  } ['dlig' ('hebr' <'dflt' > ) ]
Lookup: 4 1 0 "'ccmp' Glyph Composition/Decomposition in Hebrew lookup 1" { "'ccmp' Glyph Composition/Decomposition in Hebrew lookup 1 subtable"  } ['ccmp' ('hebr' <'dflt' > ) ]
Lookup: 6 1 0 "'ccmp' Glyph Composition/Decomposition in Hebrew lookup 2" { "'ccmp' Glyph Composition/Decomposition in Hebrew lookup 2 subtable"  } ['ccmp' ('hebr' <'dflt' > ) ]
Lookup: 4 0 0 "'ccmp' Glyph Composition/Decomposition lookup 3" { "'ccmp' Glyph Composition/Decomposition lookup 3 subtable"  } ['ccmp' ('grek' <'dflt' > 'latn' <'dflt' > ) ]
Lookup: 4 1 0 "Ligature Substitution lookup 4" { "Ligature Substitution lookup 4 subtable"  } []

StartChar: .notdef
Encoding: 65536 -1 0
Width: 1536
GlyphClass: 2
Flags: W
LayerCount: 2
Fore
SplineSet
205 1409 m 1,0,-1
 1330 1409 l 1,1,-1
 1330 0 l 1,2,-1
 205 0 l 1,3,-1
 205 1409 l 1,0,-1
281 1333 m 1,4,-1
 281 76 l 1,5,-1
 1254 76 l 1,6,-1
 1254 1333 l 1,7,-1
 281 1333 l 1,4,-1
EndSplineSet
Validated: 1
EndChar

StartChar: exclam
Encoding: 33 33 4
Width: 682
GlyphClass: 2
Flags: W
LayerCount: 2
Fore
SplineSet
455 426 m 1,0,-1
 225 426 l 1,1,-1
 193 1409 l 1,2,-1
 487 1409 l 1,3,-1
 455 426 l 1,0,-1
193 0 m 1,4,-1
 193 270 l 1,5,-1
 481 270 l 1,6,-1
 481 0 l 1,7,-1
 193 0 l 1,4,-1
EndSplineSet
Validated: 1
EndChar

StartChar: quotedbl
Encoding: 34 34 5
Width: 971
GlyphClass: 2
Flags: W
LayerCount: 2
Fore
SplineSet
807 898 m 1,0,-1
 588 898 l 1,1,-1
 561 1409 l 1,2,-1
 836 1409 l 1,3,-1
 807 898 l 1,0,-1
381 898 m 1,4,-1
 162 898 l 1,5,-1
 135 1409 l 1,6,-1
 408 1409 l 1,7,-1
 381 898 l 1,4,-1
EndSplineSet
Validated: 1
EndChar

StartChar: numbersign
Encoding: 35 35 6
Width: 1139
GlyphClass: 2
Flags: W
LayerCount: 2
Fore
SplineSet
909 862 m 1,0,-1
 840 530 l 1,1,-1
 1055 530 l 1,2,-1
 1055 381 l 1,3,-1
 809 381 l 1,4,-1
 727 0 l 1,5,-1
 571 0 l 1,6,-1
 651 381 l 1,7,-1
 344 381 l 1,8,-1
 264 0 l 1,9,-1
 111 0 l 1,10,-1
 190 381 l 1,11,-1
 35 381 l 1,12,-1
 35 530 l 1,13,-1
 223 530 l 1,14,-1
 293 862 l 1,15,-1
 86 862 l 1,16,-1
 86 1010 l 1,17,-1
 324 1010 l 1,18,-1
 408 1395 l 1,19,-1
 561 1395 l 1,20,-1
 479 1010 l 1,21,-1
 786 1010 l 1,22,-1
 870 1395 l 1,23,-1
 1026 1395 l 1,24,-1
 942 1010 l 1,25,-1
 1106 1010 l 1,26,-1
 1106 862 l 1,27,-1
 909 862 l 1,0,-1
449 862 m 1,28,-1
 377 530 l 1,29,-1
 686 530 l 1,30,-1
 756 862 l 1,31,-1
 449 862 l 1,28,-1
EndSplineSet
Validated: 1
EndChar

StartChar: dollar
Encoding: 36 36 7
Width: 1139
GlyphClass: 2
Flags: W
LayerCount: 2
Fore
SplineSet
1110 412 m 0,0,1
 1110 231 1110 231 988.5 131.5 c 128,-1,2
 867 32 867 32 629 23 c 1,3,-1
 629 -152 l 1,4,-1
 520 -152 l 1,5,-1
 520 20 l 1,6,7
 305 28 305 28 185 121.5 c 128,-1,8
 65 215 65 215 27 408 c 1,9,-1
 283 455 l 1,10,11
 302 342 302 342 358.5 289.5 c 128,-1,12
 415 237 415 237 520 227 c 1,13,-1
 520 618 l 1,14,15
 517 620 517 620 505 622.5 c 128,-1,16
 493 625 493 625 489 625 c 0,17,18
 327 662 327 662 244.5 712.5 c 128,-1,19
 162 763 162 763 117 840.5 c 128,-1,20
 72 918 72 918 72 1030 c 0,21,22
 72 1196 72 1196 186.5 1287 c 128,-1,23
 301 1378 301 1378 520 1386 c 1,24,-1
 520 1520 l 1,25,-1
 629 1520 l 1,26,-1
 629 1386 l 1,27,28
 760 1381 760 1381 847.5 1344.5 c 128,-1,29
 935 1308 935 1308 988.5 1237.5 c 128,-1,30
 1042 1167 1042 1167 1075 1036 c 1,31,-1
 811 997 l 1,32,33
 796 1084 796 1084 752.5 1131.5 c 128,-1,34
 709 1179 709 1179 629 1190 c 1,35,-1
 629 838 l 1,36,-1
 640 836 l 1,37,38
 669 836 669 836 816.5 788 c 128,-1,39
 964 740 964 740 1037 646.5 c 128,-1,40
 1110 553 1110 553 1110 412 c 0,0,1
520 1194 m 1,41,42
 334 1180 334 1180 334 1034 c 0,43,44
 334 990 334 990 349.5 961 c 128,-1,45
 365 932 365 932 394.5 913 c 128,-1,46
 424 894 424 894 520 862 c 1,47,-1
 520 1194 l 1,41,42
850 408 m 0,48,49
 850 458 850 458 832 489.5 c 128,-1,50
 814 521 814 521 779.5 541 c 128,-1,51
 745 561 745 561 629 594 c 1,52,-1
 629 227 l 1,53,54
 850 242 850 242 850 408 c 0,48,49
EndSplineSet
Validated: 1
EndChar

StartChar: percent
Encoding: 37 37 8
Width: 1821
GlyphClass: 2
Flags: W
LayerCount: 2
Fore
SplineSet
1767 432 m 0,0,1
 1767 214 1767 214 1677 99 c 128,-1,2
 1587 -16 1587 -16 1413 -16 c 0,3,4
 1237 -16 1237 -16 1148 98 c 128,-1,5
 1059 212 1059 212 1059 432 c 0,6,7
 1059 656 1059 656 1145 768.5 c 128,-1,8
 1231 881 1231 881 1417 881 c 0,9,10
 1597 881 1597 881 1682 767.5 c 128,-1,11
 1767 654 1767 654 1767 432 c 0,0,1
552 0 m 1,12,-1
 346 0 l 1,13,-1
 1266 1409 l 1,14,-1
 1475 1409 l 1,15,-1
 552 0 l 1,12,-1
408 1425 m 0,16,17
 587 1425 587 1425 673.5 1312 c 128,-1,18
 760 1199 760 1199 760 977 c 0,19,20
 760 759 760 759 669.5 643.5 c 128,-1,21
 579 528 579 528 403 528 c 0,22,23
 229 528 229 528 140 642.5 c 128,-1,24
 51 757 51 757 51 977 c 0,25,26
 51 1204 51 1204 137 1314.5 c 128,-1,27
 223 1425 223 1425 408 1425 c 0,16,17
1552 432 m 0,28,29
 1552 591 1552 591 1521.5 659 c 128,-1,30
 1491 727 1491 727 1417 727 c 0,31,32
 1337 727 1337 727 1306.5 658 c 128,-1,33
 1276 589 1276 589 1276 432 c 0,34,35
 1276 272 1276 272 1308 206.5 c 128,-1,36
 1340 141 1340 141 1415 141 c 0,37,38
 1488 141 1488 141 1520 209 c 128,-1,39
 1552 277 1552 277 1552 432 c 0,28,29
543 977 m 256,40,41
 543 1134 543 1134 512.5 1202 c 128,-1,42
 482 1270 482 1270 408 1270 c 0,43,44
 328 1270 328 1270 297 1202.5 c 128,-1,45
 266 1135 266 1135 266 977 c 256,46,47
 266 819 266 819 298.5 751.5 c 128,-1,48
 331 684 331 684 406 684 c 0,49,50
 480 684 480 684 511.5 752 c 128,-1,51
 543 820 543 820 543 977 c 256,40,41
EndSplineSet
Validated: 1
EndChar

StartChar: ampersand
Encoding: 38 38 9
Width: 1479
GlyphClass: 2
Flags: W
LayerCount: 2
Fore
SplineSet
90 385 m 0,0,1
 90 520 90 520 171 625.5 c 128,-1,2
 252 731 252 731 428 813 c 1,3,4
 354 963 354 963 354 1092 c 0,5,6
 354 1248 354 1248 452 1332.5 c 128,-1,7
 550 1417 550 1417 731 1417 c 0,8,9
 899 1417 899 1417 996.5 1337 c 128,-1,10
 1094 1257 1094 1257 1094 1120 c 0,11,12
 1094 1043 1094 1043 1055 981 c 128,-1,13
 1016 919 1016 919 944.5 866 c 128,-1,14
 873 813 873 813 702 733 c 1,15,16
 801 558 801 558 946 397 c 1,17,18
 1050 555 1050 555 1104 760 c 1,19,-1
 1313 690 l 1,20,21
 1245 457 1245 457 1120 270 c 1,22,23
 1206 197 1206 197 1298 197 c 0,24,25
 1363 197 1363 197 1415 213 c 1,26,-1
 1415 10 l 1,27,28
 1360 -12 1360 -12 1284 -12 c 0,29,30
 1198 -12 1198 -12 1111.5 19 c 128,-1,31
 1025 50 1025 50 954 109 c 1,32,33
 784 -20 784 -20 575 -20 c 0,34,35
 344 -20 344 -20 217 86.5 c 128,-1,36
 90 193 90 193 90 385 c 0,0,1
870 1118 m 0,37,38
 870 1175 870 1175 832 1211 c 128,-1,39
 794 1247 794 1247 729 1247 c 0,40,41
 652 1247 652 1247 611.5 1204 c 128,-1,42
 571 1161 571 1161 571 1090 c 0,43,44
 571 1003 571 1003 625 897 c 1,45,46
 730 942 730 942 775.5 973 c 128,-1,47
 821 1004 821 1004 845.5 1039 c 128,-1,48
 870 1074 870 1074 870 1118 c 0,37,38
788 246 m 1,49,50
 622 431 622 431 516 623 c 1,51,52
 344 542 344 542 344 389 c 0,53,54
 344 290 344 290 409 230 c 128,-1,55
 474 170 474 170 586 170 c 0,56,57
 651 170 651 170 703.5 194 c 128,-1,58
 756 218 756 218 788 246 c 1,49,50
EndSplineSet
Validated: 1
EndChar

StartChar: quotesingle
Encoding: 39 39 10
Width: 487
GlyphClass: 2
Flags: W
LayerCount: 2
Fore
SplineSet
354 898 m 1,0,-1
 135 898 l 1,1,-1
 109 1409 l 1,2,-1
 381 1409 l 1,3,-1
 354 898 l 1,0,-1
EndSplineSet
Validated: 1
EndChar

StartChar: parenleft
Encoding: 40 40 11
Width: 682
GlyphClass: 2
Flags: W
LayerCount: 2
Fore
SplineSet
399 -425 m 1,0,1
 242 -199 242 -199 172 26 c 128,-1,2
 102 251 102 251 102 531 c 0,3,4
 102 810 102 810 172 1034.5 c 128,-1,5
 242 1259 242 1259 399 1484 c 1,6,-1
 680 1484 l 1,7,8
 522 1256 522 1256 450.5 1030 c 128,-1,9
 379 804 379 804 379 530 c 0,10,11
 379 257 379 257 450 32.5 c 128,-1,12
 521 -192 521 -192 680 -425 c 1,13,-1
 399 -425 l 1,0,1
EndSplineSet
Validated: 1
EndChar

StartChar: parenright
Encoding: 41 41 12
Width: 682
GlyphClass: 2
Flags: W
LayerCount: 2
Fore
SplineSet
2 -425 m 1,0,1
 162 -191 162 -191 232.5 32.5 c 128,-1,2
 303 256 303 256 303 530 c 0,3,4
 303 805 303 805 231 1031.5 c 128,-1,5
 159 1258 159 1258 2 1484 c 1,6,-1
 283 1484 l 1,7,8
 441 1257 441 1257 510.5 1032 c 128,-1,9
 580 807 580 807 580 531 c 0,10,11
 580 253 580 253 510.5 28 c 128,-1,12
 441 -197 441 -197 283 -425 c 1,13,-1
 2 -425 l 1,0,1
EndSplineSet
Validated: 1
EndChar

StartChar: asterisk
Encoding: 42 42 13
Width: 797
GlyphClass: 2
Flags: W
LayerCount: 2
Fore
SplineSet
492 1135 m 1,0,-1
 727 1239 l 1,1,-1
 795 1042 l 1,2,-1
 545 981 l 1,3,-1
 731 768 l 1,4,-1
 547 647 l 1,5,-1
 401 899 l 1,6,-1
 252 647 l 1,7,-1
 66 770 l 1,8,-1
 256 981 l 1,9,-1
 6 1042 l 1,10,-1
 74 1239 l 1,11,-1
 313 1135 l 1,12,-1
 295 1409 l 1,13,-1
 510 1409 l 1,14,-1
 492 1135 l 1,0,-1
EndSplineSet
Validated: 1
EndChar

StartChar: plus
Encoding: 43 43 14
Width: 1196
GlyphClass: 2
Flags: W
LayerCount: 2
Fore
SplineSet
711 569 m 1,0,-1
 711 161 l 1,1,-1
 485 161 l 1,2,-1
 485 569 l 1,3,-1
 86 569 l 1,4,-1
 86 793 l 1,5,-1
 485 793 l 1,6,-1
 485 1201 l 1,7,-1
 711 1201 l 1,8,-1
 711 793 l 1,9,-1
 1113 793 l 1,10,-1
 1113 569 l 1,11,-1
 711 569 l 1,0,-1
EndSplineSet
Validated: 1
EndChar

StartChar: comma
Encoding: 44 44 15
Width: 569
GlyphClass: 2
Flags: W
LayerCount: 2
Fore
SplineSet
432 66 m 2,0,1
 432 -54 432 -54 406.5 -146 c 128,-1,2
 381 -238 381 -238 324 -317 c 1,3,-1
 139 -317 l 1,4,5
 198 -246 198 -246 235 -161 c 128,-1,6
 272 -76 272 -76 272 0 c 1,7,-1
 143 0 l 1,8,-1
 143 305 l 1,9,-1
 432 305 l 1,10,-1
 432 66 l 2,0,1
EndSplineSet
Validated: 1
EndChar

StartChar: hyphen
Encoding: 45 45 16
Width: 682
GlyphClass: 2
Flags: W
LayerCount: 2
Fore
SplineSet
80 409 m 1,0,-1
 80 653 l 1,1,-1
 600 653 l 1,2,-1
 600 409 l 1,3,-1
 80 409 l 1,0,-1
EndSplineSet
Validated: 1
EndChar

StartChar: period
Encoding: 46 46 17
Width: 569
GlyphClass: 2
Flags: W
LayerCount: 2
Fore
SplineSet
139 0 m 1,0,-1
 139 305 l 1,1,-1
 428 305 l 1,2,-1
 428 0 l 1,3,-1
 139 0 l 1,0,-1
EndSplineSet
Validated: 1
EndChar

StartChar: slash
Encoding: 47 47 18
Width: 569
GlyphClass: 2
Flags: W
LayerCount: 2
Fore
SplineSet
20 -41 m 1,0,-1
 311 1484 l 1,1,-1
 549 1484 l 1,2,-1
 263 -41 l 1,3,-1
 20 -41 l 1,0,-1
EndSplineSet
Validated: 1
EndChar

StartChar: zero
Encoding: 48 48 19
Width: 1139
GlyphClass: 2
Flags: W
LayerCount: 2
Fore
SplineSet
1055 705 m 0,0,1
 1055 348 1055 348 932.5 164 c 128,-1,2
 810 -20 810 -20 565 -20 c 0,3,4
 81 -20 81 -20 81 705 c 0,5,6
 81 958 81 958 134 1118 c 128,-1,7
 187 1278 187 1278 293 1354 c 128,-1,8
 399 1430 399 1430 573 1430 c 0,9,10
 823 1430 823 1430 939 1249 c 128,-1,11
 1055 1068 1055 1068 1055 705 c 0,0,1
773 705 m 0,12,13
 773 900 773 900 754 1008 c 128,-1,14
 735 1116 735 1116 693 1163 c 128,-1,15
 651 1210 651 1210 571 1210 c 0,16,17
 486 1210 486 1210 442.5 1162.5 c 128,-1,18
 399 1115 399 1115 380.5 1007.5 c 128,-1,19
 362 900 362 900 362 705 c 0,20,21
 362 512 362 512 381.5 403.5 c 128,-1,22
 401 295 401 295 443.5 248 c 128,-1,23
 486 201 486 201 567 201 c 0,24,25
 647 201 647 201 690.5 250.5 c 128,-1,26
 734 300 734 300 753.5 409 c 128,-1,27
 773 518 773 518 773 705 c 0,12,13
EndSplineSet
Validated: 1
EndChar

StartChar: one
Encoding: 49 49 20
Width: 1139
GlyphClass: 2
Flags: W
LayerCount: 2
Fore
SplineSet
129 0 m 1,0,-1
 129 209 l 1,1,-1
 478 209 l 1,2,-1
 478 1170 l 1,3,-1
 140 959 l 1,4,-1
 140 1180 l 1,5,-1
 493 1409 l 1,6,-1
 759 1409 l 1,7,-1
 759 209 l 1,8,-1
 1082 209 l 1,9,-1
 1082 0 l 1,10,-1
 129 0 l 1,0,-1
EndSplineSet
Validated: 1
EndChar

StartChar: two
Encoding: 50 50 21
Width: 1139
GlyphClass: 2
Flags: W
LayerCount: 2
Fore
SplineSet
71 0 m 1,0,-1
 71 195 l 1,1,2
 126 316 126 316 227.5 431 c 128,-1,3
 329 546 329 546 483 671 c 0,4,5
 631 791 631 791 690.5 869 c 128,-1,6
 750 947 750 947 750 1022 c 0,7,8
 750 1206 750 1206 565 1206 c 0,9,10
 475 1206 475 1206 427.5 1157.5 c 128,-1,11
 380 1109 380 1109 366 1012 c 1,12,-1
 83 1028 l 1,13,14
 107 1224 107 1224 229.5 1327 c 128,-1,15
 352 1430 352 1430 563 1430 c 0,16,17
 791 1430 791 1430 913 1326 c 128,-1,18
 1035 1222 1035 1222 1035 1034 c 0,19,20
 1035 935 1035 935 996 855 c 128,-1,21
 957 775 957 775 896 707.5 c 128,-1,22
 835 640 835 640 760.5 581 c 128,-1,23
 686 522 686 522 616 466 c 128,-1,24
 546 410 546 410 488.5 353 c 128,-1,25
 431 296 431 296 403 231 c 1,26,-1
 1057 231 l 1,27,-1
 1057 0 l 1,28,-1
 71 0 l 1,0,-1
EndSplineSet
Validated: 1
EndChar

StartChar: three
Encoding: 51 51 22
Width: 1139
GlyphClass: 2
Flags: W
LayerCount: 2
Fore
SplineSet
1065 391 m 0,0,1
 1065 193 1065 193 935 85 c 128,-1,2
 805 -23 805 -23 565 -23 c 0,3,4
 338 -23 338 -23 204 81.5 c 128,-1,5
 70 186 70 186 47 383 c 1,6,-1
 333 408 l 1,7,8
 360 205 360 205 564 205 c 0,9,10
 665 205 665 205 721 255 c 128,-1,11
 777 305 777 305 777 408 c 0,12,13
 777 502 777 502 709 552 c 128,-1,14
 641 602 641 602 507 602 c 2,15,-1
 409 602 l 1,16,-1
 409 829 l 1,17,-1
 501 829 l 2,18,19
 622 829 622 829 683 878.5 c 128,-1,20
 744 928 744 928 744 1020 c 0,21,22
 744 1107 744 1107 695.5 1156.5 c 128,-1,23
 647 1206 647 1206 554 1206 c 0,24,25
 467 1206 467 1206 413.5 1158 c 128,-1,26
 360 1110 360 1110 352 1022 c 1,27,-1
 71 1042 l 1,28,29
 93 1224 93 1224 222 1327 c 128,-1,30
 351 1430 351 1430 559 1430 c 0,31,32
 780 1430 780 1430 904.5 1330.5 c 128,-1,33
 1029 1231 1029 1231 1029 1055 c 0,34,35
 1029 923 1029 923 951.5 838 c 128,-1,36
 874 753 874 753 728 725 c 1,37,-1
 728 721 l 1,38,39
 890 702 890 702 977.5 614.5 c 128,-1,40
 1065 527 1065 527 1065 391 c 0,0,1
EndSplineSet
Validated: 1
EndChar

StartChar: four
Encoding: 52 52 23
Width: 1139
GlyphClass: 2
Flags: W
LayerCount: 2
Fore
SplineSet
940 287 m 1,0,-1
 940 0 l 1,1,-1
 672 0 l 1,2,-1
 672 287 l 1,3,-1
 31 287 l 1,4,-1
 31 498 l 1,5,-1
 626 1409 l 1,6,-1
 940 1409 l 1,7,-1
 940 496 l 1,8,-1
 1128 496 l 1,9,-1
 1128 287 l 1,10,-1
 940 287 l 1,0,-1
672 957 m 2,11,12
 672 1011 672 1011 675.5 1074 c 128,-1,13
 679 1137 679 1137 681 1155 c 1,14,15
 655 1099 655 1099 587 993 c 1,16,-1
 260 496 l 1,17,-1
 672 496 l 1,18,-1
 672 957 l 2,11,12
EndSplineSet
Validated: 1
EndChar

StartChar: five
Encoding: 53 53 24
Width: 1139
GlyphClass: 2
Flags: W
LayerCount: 2
Fore
SplineSet
1082 469 m 0,0,1
 1082 245 1082 245 942.5 112.5 c 128,-1,2
 803 -20 803 -20 560 -20 c 0,3,4
 348 -20 348 -20 220.5 75.5 c 128,-1,5
 93 171 93 171 63 352 c 1,6,-1
 344 375 l 1,7,8
 366 285 366 285 422 244 c 128,-1,9
 478 203 478 203 563 203 c 0,10,11
 668 203 668 203 730.5 270 c 128,-1,12
 793 337 793 337 793 463 c 0,13,14
 793 574 793 574 734 640.5 c 128,-1,15
 675 707 675 707 569 707 c 0,16,17
 452 707 452 707 378 616 c 1,18,-1
 104 616 l 1,19,-1
 153 1409 l 1,20,-1
 1000 1409 l 1,21,-1
 1000 1200 l 1,22,-1
 408 1200 l 1,23,-1
 385 844 l 1,24,25
 487 934 487 934 640 934 c 0,26,27
 841 934 841 934 961.5 809 c 128,-1,28
 1082 684 1082 684 1082 469 c 0,0,1
EndSplineSet
Validated: 1
EndChar

StartChar: six
Encoding: 54 54 25
Width: 1139
GlyphClass: 2
Flags: W
LayerCount: 2
Fore
SplineSet
1065 461 m 0,0,1
 1065 236 1065 236 939 108 c 128,-1,2
 813 -20 813 -20 591 -20 c 0,3,4
 342 -20 342 -20 208.5 154.5 c 128,-1,5
 75 329 75 329 75 672 c 0,6,7
 75 1049 75 1049 210.5 1239.5 c 128,-1,8
 346 1430 346 1430 598 1430 c 0,9,10
 777 1430 777 1430 880.5 1351 c 128,-1,11
 984 1272 984 1272 1027 1106 c 1,12,-1
 762 1069 l 1,13,14
 724 1208 724 1208 592 1208 c 0,15,16
 479 1208 479 1208 414.5 1095 c 128,-1,17
 350 982 350 982 350 752 c 1,18,19
 395 827 395 827 475 867 c 128,-1,20
 555 907 555 907 656 907 c 0,21,22
 845 907 845 907 955 787 c 128,-1,23
 1065 667 1065 667 1065 461 c 0,0,1
783 453 m 0,24,25
 783 573 783 573 727.5 636.5 c 128,-1,26
 672 700 672 700 575 700 c 0,27,28
 482 700 482 700 426 640.5 c 128,-1,29
 370 581 370 581 370 483 c 0,30,31
 370 360 370 360 428.5 279.5 c 128,-1,32
 487 199 487 199 582 199 c 256,33,34
 677 199 677 199 730 266.5 c 128,-1,35
 783 334 783 334 783 453 c 0,24,25
EndSplineSet
Validated: 1
EndChar

StartChar: seven
Encoding: 55 55 26
Width: 1139
GlyphClass: 2
Flags: W
LayerCount: 2
Fore
SplineSet
1049 1186 m 1,0,1
 954 1036 954 1036 869.5 895 c 128,-1,2
 785 754 785 754 722 611.5 c 128,-1,3
 659 469 659 469 622.5 318.5 c 128,-1,4
 586 168 586 168 586 0 c 1,5,-1
 293 0 l 1,6,7
 293 176 293 176 339 340.5 c 128,-1,8
 385 505 385 505 472 675.5 c 128,-1,9
 559 846 559 846 788 1178 c 1,10,-1
 88 1178 l 1,11,-1
 88 1409 l 1,12,-1
 1049 1409 l 1,13,-1
 1049 1186 l 1,0,1
EndSplineSet
Validated: 1
EndChar

StartChar: eight
Encoding: 56 56 27
Width: 1139
GlyphClass: 2
Flags: W
LayerCount: 2
Fore
SplineSet
1076 397 m 0,0,1
 1076 199 1076 199 945 89.5 c 128,-1,2
 814 -20 814 -20 571 -20 c 0,3,4
 330 -20 330 -20 197.5 89 c 128,-1,5
 65 198 65 198 65 395 c 0,6,7
 65 530 65 530 143 622.5 c 128,-1,8
 221 715 221 715 352 737 c 1,9,-1
 352 741 l 1,10,11
 238 766 238 766 168 854 c 128,-1,12
 98 942 98 942 98 1057 c 0,13,14
 98 1230 98 1230 220.5 1330 c 128,-1,15
 343 1430 343 1430 567 1430 c 0,16,17
 796 1430 796 1430 918.5 1332.5 c 128,-1,18
 1041 1235 1041 1235 1041 1055 c 0,19,20
 1041 940 1041 940 971.5 853 c 128,-1,21
 902 766 902 766 785 743 c 1,22,-1
 785 739 l 1,23,24
 921 717 921 717 998.5 627.5 c 128,-1,25
 1076 538 1076 538 1076 397 c 0,0,1
752 1040 m 0,26,27
 752 1140 752 1140 706 1186.5 c 128,-1,28
 660 1233 660 1233 567 1233 c 0,29,30
 385 1233 385 1233 385 1040 c 0,31,32
 385 838 385 838 569 838 c 0,33,34
 661 838 661 838 706.5 885 c 128,-1,35
 752 932 752 932 752 1040 c 0,26,27
785 420 m 0,36,37
 785 641 785 641 565 641 c 0,38,39
 463 641 463 641 408.5 583 c 128,-1,40
 354 525 354 525 354 416 c 0,41,42
 354 292 354 292 408 235 c 128,-1,43
 462 178 462 178 573 178 c 0,44,45
 682 178 682 178 733.5 235 c 128,-1,46
 785 292 785 292 785 420 c 0,36,37
EndSplineSet
Validated: 1
EndChar

StartChar: nine
Encoding: 57 57 28
Width: 1139
GlyphClass: 2
Flags: W
LayerCount: 2
Fore
SplineSet
1063 727 m 0,0,1
 1063 352 1063 352 926 166 c 128,-1,2
 789 -20 789 -20 537 -20 c 0,3,4
 351 -20 351 -20 245.5 59.5 c 128,-1,5
 140 139 140 139 96 311 c 1,6,-1
 360 348 l 1,7,8
 399 201 399 201 540 201 c 0,9,10
 658 201 658 201 721.5 314 c 128,-1,11
 785 427 785 427 787 649 c 1,12,13
 749 574 749 574 662.5 531.5 c 128,-1,14
 576 489 576 489 476 489 c 0,15,16
 290 489 290 489 180.5 615.5 c 128,-1,17
 71 742 71 742 71 958 c 0,18,19
 71 1180 71 1180 199.5 1305 c 128,-1,20
 328 1430 328 1430 563 1430 c 0,21,22
 816 1430 816 1430 939.5 1254.5 c 128,-1,23
 1063 1079 1063 1079 1063 727 c 0,0,1
766 924 m 0,24,25
 766 1055 766 1055 708.5 1132.5 c 128,-1,26
 651 1210 651 1210 556 1210 c 0,27,28
 463 1210 463 1210 409.5 1142.5 c 128,-1,29
 356 1075 356 1075 356 956 c 0,30,31
 356 839 356 839 409 768.5 c 128,-1,32
 462 698 462 698 557 698 c 0,33,34
 647 698 647 698 706.5 759.5 c 128,-1,35
 766 821 766 821 766 924 c 0,24,25
EndSplineSet
Validated: 1
EndChar

StartChar: colon
Encoding: 58 58 29
Width: 682
GlyphClass: 2
Flags: W
LayerCount: 2
Fore
SplineSet
197 752 m 1,0,-1
 197 1034 l 1,1,-1
 485 1034 l 1,2,-1
 485 752 l 1,3,-1
 197 752 l 1,0,-1
197 0 m 1,4,-1
 197 281 l 1,5,-1
 485 281 l 1,6,-1
 485 0 l 1,7,-1
 197 0 l 1,4,-1
EndSplineSet
Validated: 1
EndChar

StartChar: semicolon
Encoding: 59 59 30
Width: 682
GlyphClass: 2
Flags: W
LayerCount: 2
Fore
SplineSet
199 752 m 1,0,-1
 199 1034 l 1,1,-1
 487 1034 l 1,2,-1
 487 752 l 1,3,-1
 199 752 l 1,0,-1
487 66 m 2,4,5
 487 -54 487 -54 461.5 -146 c 128,-1,6
 436 -238 436 -238 379 -317 c 1,7,-1
 195 -317 l 1,8,9
 259 -236 259 -236 293.5 -153.5 c 128,-1,10
 328 -71 328 -71 328 0 c 1,11,-1
 199 0 l 1,12,-1
 199 281 l 1,13,-1
 487 281 l 1,14,-1
 487 66 l 2,4,5
EndSplineSet
Validated: 1
EndChar

StartChar: less
Encoding: 60 60 31
Width: 1196
GlyphClass: 2
Flags: W
LayerCount: 2
Fore
SplineSet
86 516 m 1,0,-1
 86 838 l 1,1,-1
 1113 1229 l 1,2,-1
 1113 1001 l 1,3,-1
 280 676 l 1,4,-1
 1113 352 l 1,5,-1
 1113 125 l 1,6,-1
 86 516 l 1,0,-1
EndSplineSet
Validated: 1
EndChar

StartChar: equal
Encoding: 61 61 32
Width: 1196
GlyphClass: 2
Flags: W
LayerCount: 2
Fore
SplineSet
85 842 m 1,0,-1
 85 1065 l 1,1,-1
 1112 1065 l 1,2,-1
 1112 842 l 1,3,-1
 85 842 l 1,0,-1
85 291 m 1,4,-1
 85 512 l 1,5,-1
 1112 512 l 1,6,-1
 1112 291 l 1,7,-1
 85 291 l 1,4,-1
EndSplineSet
Validated: 1
EndChar

StartChar: greater
Encoding: 62 62 33
Width: 1196
GlyphClass: 2
Flags: W
LayerCount: 2
Fore
SplineSet
86 125 m 1,0,-1
 86 352 l 1,1,-1
 918 676 l 1,2,-1
 86 1001 l 1,3,-1
 86 1229 l 1,4,-1
 1113 838 l 1,5,-1
 1113 516 l 1,6,-1
 86 125 l 1,0,-1
EndSplineSet
Validated: 1
EndChar

StartChar: question
Encoding: 63 63 34
Width: 1251
GlyphClass: 2
Flags: W
LayerCount: 2
Fore
SplineSet
1133 1026 m 0,0,1
 1133 929 1133 929 1089.5 852 c 128,-1,2
 1046 775 1046 775 927 690 c 2,3,-1
 851 635 l 2,4,5
 783 586 783 586 749.5 536 c 128,-1,6
 716 486 716 486 713 426 c 1,7,-1
 446 426 l 1,8,9
 452 528 452 528 503.5 608 c 128,-1,10
 555 688 555 688 655 758 c 0,11,12
 762 832 762 832 806 888.5 c 128,-1,13
 850 945 850 945 850 1014 c 0,14,15
 850 1102 850 1102 792.5 1153 c 128,-1,16
 735 1204 735 1204 629 1204 c 0,17,18
 528 1204 528 1204 459.5 1145 c 128,-1,19
 391 1086 391 1086 379 989 c 1,20,-1
 94 1001 l 1,21,22
 121 1204 121 1204 261 1317 c 128,-1,23
 401 1430 401 1430 625 1430 c 0,24,25
 862 1430 862 1430 997.5 1322.5 c 128,-1,26
 1133 1215 1133 1215 1133 1026 c 0,0,1
438 0 m 1,27,-1
 438 270 l 1,28,-1
 727 270 l 1,29,-1
 727 0 l 1,30,-1
 438 0 l 1,27,-1
EndSplineSet
Validated: 1
EndChar

StartChar: at
Encoding: 64 64 35
Width: 1997
GlyphClass: 2
Flags: W
LayerCount: 2
Fore
SplineSet
1878 725 m 0,0,1
 1878 543 1878 543 1814.5 393 c 128,-1,2
 1751 243 1751 243 1639 158.5 c 128,-1,3
 1527 74 1527 74 1397 74 c 0,4,5
 1305 74 1305 74 1255.5 119.5 c 128,-1,6
 1206 165 1206 165 1206 246 c 0,7,8
 1206 283 1206 283 1212 313 c 1,9,-1
 1206 313 l 1,10,11
 1156 208 1156 208 1057.5 141 c 128,-1,12
 959 74 959 74 856 74 c 0,13,14
 699 74 699 74 612.5 175.5 c 128,-1,15
 526 277 526 277 526 459 c 0,16,17
 526 622 526 622 590.5 765 c 128,-1,18
 655 908 655 908 769.5 989.5 c 128,-1,19
 884 1071 884 1071 1026 1071 c 0,20,21
 1221 1071 1221 1071 1290 897 c 1,22,-1
 1296 897 l 1,23,-1
 1335 1049 l 1,24,-1
 1491 1049 l 1,25,-1
 1374 543 l 1,26,27
 1337 371 1337 371 1337 303 c 0,28,29
 1337 253 1337 253 1360.5 232 c 128,-1,30
 1384 211 1384 211 1415 211 c 0,31,32
 1495 211 1495 211 1568 280.5 c 128,-1,33
 1641 350 1641 350 1683.5 466.5 c 128,-1,34
 1726 583 1726 583 1726 723 c 0,35,36
 1726 898 1726 898 1649.5 1032.5 c 128,-1,37
 1573 1167 1573 1167 1429 1240 c 128,-1,38
 1285 1313 1285 1313 1094 1313 c 0,39,40
 854 1313 854 1313 671 1208 c 128,-1,41
 488 1103 488 1103 383.5 905 c 128,-1,42
 279 707 279 707 279 461 c 0,43,44
 279 266 279 266 358.5 118.5 c 128,-1,45
 438 -29 438 -29 582 -104.5 c 128,-1,46
 726 -180 726 -180 920 -180 c 0,47,48
 1214 -180 1214 -180 1509 -25 c 1,49,-1
 1571 -147 l 1,50,51
 1403 -242 1403 -242 1242.5 -283 c 128,-1,52
 1082 -324 1082 -324 913 -324 c 0,53,54
 677 -324 677 -324 497.5 -228.5 c 128,-1,55
 318 -133 318 -133 217.5 47.5 c 128,-1,56
 117 228 117 228 117 461 c 0,57,58
 117 744 117 744 243.5 973 c 128,-1,59
 370 1202 370 1202 593 1328 c 128,-1,60
 816 1454 816 1454 1092 1454 c 0,61,62
 1335 1454 1335 1454 1513 1363.5 c 128,-1,63
 1691 1273 1691 1273 1784.5 1108 c 128,-1,64
 1878 943 1878 943 1878 725 c 0,0,1
1231 721 m 0,65,66
 1231 816 1231 816 1171.5 876 c 128,-1,67
 1112 936 1112 936 1018 936 c 256,68,69
 924 936 924 936 849.5 873.5 c 128,-1,70
 775 811 775 811 733.5 696.5 c 128,-1,71
 692 582 692 582 692 461 c 0,72,73
 692 347 692 347 740.5 281 c 128,-1,74
 789 215 789 215 889 215 c 0,75,76
 955 215 955 215 1017.5 257 c 128,-1,77
 1080 299 1080 299 1129 378.5 c 128,-1,78
 1178 458 1178 458 1204.5 559.5 c 128,-1,79
 1231 661 1231 661 1231 721 c 0,65,66
EndSplineSet
Validated: 1
EndChar

StartChar: A
Encoding: 65 65 36
Width: 1479
GlyphClass: 2
Flags: W
AnchorPoint: "Anchor21" 1200 0 basechar 0
AnchorPoint: "Anchor20" 730 0 basechar 0
AnchorPoint: "Anchor18" 1479 1840 basechar 0
AnchorPoint: "Anchor19" 0 1840 basechar 0
AnchorPoint: "Anchor16" 1479 1540 basechar 0
AnchorPoint: "Anchor17" 1479 -380 basechar 0
AnchorPoint: "Anchor15" 900 1300 basechar 0
AnchorPoint: "Anchor14" 930 1420 basechar 0
AnchorPoint: "Anchor10" 730 1540 basechar 0
AnchorPoint: "Anchor11" 1330 1540 basechar 0
AnchorPoint: "Anchor12" 730 -130 basechar 0
LayerCount: 2
Fore
SplineSet
1133 0 m 1,0,-1
 1008 360 l 1,1,-1
 471 360 l 1,2,-1
 346 0 l 1,3,-1
 51 0 l 1,4,-1
 565 1409 l 1,5,-1
 913 1409 l 1,6,-1
 1425 0 l 1,7,-1
 1133 0 l 1,0,-1
739 1192 m 1,8,-1
 733 1170 l 2,9,10
 723 1134 723 1134 709 1088 c 128,-1,11
 695 1042 695 1042 537 582 c 1,12,-1
 942 582 l 1,13,-1
 803 987 l 1,14,-1
 760 1123 l 1,15,-1
 739 1192 l 1,8,-1
EndSplineSet
Validated: 1
EndChar

StartChar: B
Encoding: 66 66 37
Width: 1479
GlyphClass: 2
Flags: W
AnchorPoint: "Anchor21" 760 0 basechar 0
AnchorPoint: "Anchor18" 1479 1840 basechar 0
AnchorPoint: "Anchor19" 0 1840 basechar 0
AnchorPoint: "Anchor16" 1479 1540 basechar 0
AnchorPoint: "Anchor17" 1479 -380 basechar 0
AnchorPoint: "Anchor15" 1100 1300 basechar 0
AnchorPoint: "Anchor14" 1260 1150 basechar 0
AnchorPoint: "Anchor10" 700 1540 basechar 0
AnchorPoint: "Anchor11" 1330 1540 basechar 0
AnchorPoint: "Anchor12" 700 -130 basechar 0
LayerCount: 2
Fore
SplineSet
1386 402 m 0,0,1
 1386 210 1386 210 1242 105 c 128,-1,2
 1098 0 1098 0 842 0 c 2,3,-1
 137 0 l 1,4,-1
 137 1409 l 1,5,-1
 782 1409 l 2,6,7
 1040 1409 1040 1409 1172.5 1319.5 c 128,-1,8
 1305 1230 1305 1230 1305 1055 c 0,9,10
 1305 935 1305 935 1238.5 852.5 c 128,-1,11
 1172 770 1172 770 1036 741 c 1,12,13
 1207 721 1207 721 1296.5 633.5 c 128,-1,14
 1386 546 1386 546 1386 402 c 0,0,1
1008 1015 m 0,15,16
 1008 1110 1008 1110 947.5 1150 c 128,-1,17
 887 1190 887 1190 768 1190 c 2,18,-1
 432 1190 l 1,19,-1
 432 841 l 1,20,-1
 770 841 l 2,21,22
 895 841 895 841 951.5 884.5 c 128,-1,23
 1008 928 1008 928 1008 1015 c 0,15,16
1090 425 m 0,24,25
 1090 623 1090 623 806 623 c 2,26,-1
 432 623 l 1,27,-1
 432 219 l 1,28,-1
 817 219 l 2,29,30
 959 219 959 219 1024.5 270.5 c 128,-1,31
 1090 322 1090 322 1090 425 c 0,24,25
EndSplineSet
Validated: 1
EndChar

StartChar: C
Encoding: 67 67 38
Width: 1479
GlyphClass: 2
Flags: W
AnchorPoint: "Anchor21" 890 0 basechar 0
AnchorPoint: "Anchor20" 800 0 basechar 0
AnchorPoint: "Anchor18" 1479 1840 basechar 0
AnchorPoint: "Anchor19" 0 1840 basechar 0
AnchorPoint: "Anchor16" 1479 1540 basechar 0
AnchorPoint: "Anchor17" 1479 -380 basechar 0
AnchorPoint: "Anchor15" 1160 1300 basechar 0
AnchorPoint: "Anchor14" 1300 1240 basechar 0
AnchorPoint: "Anchor10" 800 1540 basechar 0
AnchorPoint: "Anchor11" 1330 1540 basechar 0
AnchorPoint: "Anchor12" 800 -130 basechar 0
LayerCount: 2
Fore
SplineSet
795 212 m 0,0,1
 1062 212 1062 212 1166 480 c 1,2,-1
 1423 383 l 1,3,4
 1340 179 1340 179 1179.5 79.5 c 128,-1,5
 1019 -20 1019 -20 795 -20 c 0,6,7
 455 -20 455 -20 269.5 172.5 c 128,-1,8
 84 365 84 365 84 711 c 0,9,10
 84 1058 84 1058 263 1244 c 128,-1,11
 442 1430 442 1430 782 1430 c 0,12,13
 1030 1430 1030 1430 1186 1330.5 c 128,-1,14
 1342 1231 1342 1231 1405 1038 c 1,15,-1
 1145 967 l 1,16,17
 1112 1073 1112 1073 1015.5 1135.5 c 128,-1,18
 919 1198 919 1198 788 1198 c 0,19,20
 588 1198 588 1198 484.5 1074 c 128,-1,21
 381 950 381 950 381 711 c 0,22,23
 381 468 381 468 487.5 340 c 128,-1,24
 594 212 594 212 795 212 c 0,0,1
EndSplineSet
Validated: 1
EndChar

StartChar: D
Encoding: 68 68 39
Width: 1479
GlyphClass: 2
Flags: W
AnchorPoint: "Anchor21" 670 0 basechar 0
AnchorPoint: "Anchor18" 1479 1840 basechar 0
AnchorPoint: "Anchor19" 0 1840 basechar 0
AnchorPoint: "Anchor16" 1479 1540 basechar 0
AnchorPoint: "Anchor17" 1479 -380 basechar 0
AnchorPoint: "Anchor15" 1100 1300 basechar 0
AnchorPoint: "Anchor14" 1300 1150 basechar 0
AnchorPoint: "Anchor10" 700 1540 basechar 0
AnchorPoint: "Anchor11" 1330 1540 basechar 0
AnchorPoint: "Anchor12" 700 -130 basechar 0
LayerCount: 2
Fore
SplineSet
1393 715 m 0,0,1
 1393 497 1393 497 1307.5 334.5 c 128,-1,2
 1222 172 1222 172 1065.5 86 c 128,-1,3
 909 0 909 0 707 0 c 2,4,-1
 137 0 l 1,5,-1
 137 1409 l 1,6,-1
 647 1409 l 2,7,8
 1003 1409 1003 1409 1198 1229.5 c 128,-1,9
 1393 1050 1393 1050 1393 715 c 0,0,1
1096 715 m 0,10,11
 1096 942 1096 942 978 1061.5 c 128,-1,12
 860 1181 860 1181 641 1181 c 2,13,-1
 432 1181 l 1,14,-1
 432 228 l 1,15,-1
 682 228 l 2,16,17
 872 228 872 228 984 359 c 128,-1,18
 1096 490 1096 490 1096 715 c 0,10,11
EndSplineSet
Validated: 1
EndChar

StartChar: E
Encoding: 69 69 40
Width: 1366
GlyphClass: 2
Flags: W
AnchorPoint: "Anchor21" 1120 0 basechar 0
AnchorPoint: "Anchor20" 720 0 basechar 0
AnchorPoint: "Anchor18" 1479 1840 basechar 0
AnchorPoint: "Anchor19" 0 1840 basechar 0
AnchorPoint: "Anchor16" 1366 1540 basechar 0
AnchorPoint: "Anchor17" 1366 -380 basechar 0
AnchorPoint: "Anchor15" 1200 1340 basechar 0
AnchorPoint: "Anchor14" 1215 1420 basechar 0
AnchorPoint: "Anchor10" 700 1540 basechar 0
AnchorPoint: "Anchor11" 1240 1540 basechar 0
AnchorPoint: "Anchor12" 740 -130 basechar 0
LayerCount: 2
Fore
SplineSet
137 0 m 1,0,-1
 137 1409 l 1,1,-1
 1245 1409 l 1,2,-1
 1245 1181 l 1,3,-1
 432 1181 l 1,4,-1
 432 827 l 1,5,-1
 1184 827 l 1,6,-1
 1184 599 l 1,7,-1
 432 599 l 1,8,-1
 432 228 l 1,9,-1
 1286 228 l 1,10,-1
 1286 0 l 1,11,-1
 137 0 l 1,0,-1
EndSplineSet
Validated: 1
EndChar

StartChar: F
Encoding: 70 70 41
Width: 1251
GlyphClass: 2
Flags: W
AnchorPoint: "Anchor21" 190 0 basechar 0
AnchorPoint: "Anchor18" 1479 1840 basechar 0
AnchorPoint: "Anchor19" 0 1840 basechar 0
AnchorPoint: "Anchor16" 1251 1540 basechar 0
AnchorPoint: "Anchor17" 1251 -380 basechar 0
AnchorPoint: "Anchor15" 1160 1340 basechar 0
AnchorPoint: "Anchor14" 1143 1420 basechar 0
AnchorPoint: "Anchor10" 680 1540 basechar 0
AnchorPoint: "Anchor11" 1180 1540 basechar 0
AnchorPoint: "Anchor12" 680 -130 basechar 0
LayerCount: 2
Fore
SplineSet
432 1181 m 1,0,-1
 432 745 l 1,1,-1
 1153 745 l 1,2,-1
 1153 517 l 1,3,-1
 432 517 l 1,4,-1
 432 0 l 1,5,-1
 137 0 l 1,6,-1
 137 1409 l 1,7,-1
 1176 1409 l 1,8,-1
 1176 1181 l 1,9,-1
 432 1181 l 1,0,-1
EndSplineSet
Validated: 1
EndChar

StartChar: G
Encoding: 71 71 42
Width: 1593
GlyphClass: 2
Flags: W
AnchorPoint: "Anchor21" 960 0 basechar 0
AnchorPoint: "Anchor20" 800 0 basechar 0
AnchorPoint: "Anchor18" 1479 1840 basechar 0
AnchorPoint: "Anchor19" 0 1840 basechar 0
AnchorPoint: "Anchor16" 1593 1540 basechar 0
AnchorPoint: "Anchor17" 1593 -380 basechar 0
AnchorPoint: "Anchor15" 1180 1300 basechar 0
AnchorPoint: "Anchor14" 1350 1240 basechar 0
AnchorPoint: "Anchor10" 840 1540 basechar 0
AnchorPoint: "Anchor11" 1400 1540 basechar 0
AnchorPoint: "Anchor12" 840 -130 basechar 0
LayerCount: 2
Fore
SplineSet
806 211 m 0,0,1
 921 211 921 211 1029 244.5 c 128,-1,2
 1137 278 1137 278 1196 330 c 1,3,-1
 1196 525 l 1,4,-1
 852 525 l 1,5,-1
 852 743 l 1,6,-1
 1466 743 l 1,7,-1
 1466 225 l 1,8,9
 1354 110 1354 110 1174.5 45 c 128,-1,10
 995 -20 995 -20 798 -20 c 0,11,12
 454 -20 454 -20 269 170.5 c 128,-1,13
 84 361 84 361 84 711 c 0,14,15
 84 1059 84 1059 270 1244.5 c 128,-1,16
 456 1430 456 1430 805 1430 c 0,17,18
 1301 1430 1301 1430 1436 1063 c 1,19,-1
 1164 981 l 1,20,21
 1120 1088 1120 1088 1026 1143 c 128,-1,22
 932 1198 932 1198 805 1198 c 0,23,24
 597 1198 597 1198 489 1072 c 128,-1,25
 381 946 381 946 381 711 c 0,26,27
 381 472 381 472 492.5 341.5 c 128,-1,28
 604 211 604 211 806 211 c 0,0,1
EndSplineSet
Validated: 1
EndChar

StartChar: H
Encoding: 72 72 43
Width: 1479
GlyphClass: 2
Flags: W
AnchorPoint: "Anchor21" 1100 0 basechar 0
AnchorPoint: "Anchor18" 1479 1840 basechar 0
AnchorPoint: "Anchor19" 0 1840 basechar 0
AnchorPoint: "Anchor16" 1479 1540 basechar 0
AnchorPoint: "Anchor17" 1479 -380 basechar 0
AnchorPoint: "Anchor15" 1300 1300 basechar 0
AnchorPoint: "Anchor14" 1300 1420 basechar 0
AnchorPoint: "Anchor10" 730 1540 basechar 0
AnchorPoint: "Anchor11" 1330 1540 basechar 0
AnchorPoint: "Anchor12" 730 -130 basechar 0
LayerCount: 2
Fore
SplineSet
1046 0 m 1,0,-1
 1046 604 l 1,1,-1
 432 604 l 1,2,-1
 432 0 l 1,3,-1
 137 0 l 1,4,-1
 137 1409 l 1,5,-1
 432 1409 l 1,6,-1
 432 848 l 1,7,-1
 1046 848 l 1,8,-1
 1046 1409 l 1,9,-1
 1341 1409 l 1,10,-1
 1341 0 l 1,11,-1
 1046 0 l 1,0,-1
EndSplineSet
Validated: 1
EndChar

StartChar: I
Encoding: 73 73 44
Width: 569
GlyphClass: 2
Flags: W
AnchorPoint: "Anchor21" 200 0 basechar 0
AnchorPoint: "Anchor20" 280 0 basechar 0
AnchorPoint: "Anchor18" 1479 1840 basechar 0
AnchorPoint: "Anchor19" 0 1840 basechar 0
AnchorPoint: "Anchor16" 569 1540 basechar 0
AnchorPoint: "Anchor17" 569 -380 basechar 0
AnchorPoint: "Anchor15" 400 1300 basechar 0
AnchorPoint: "Anchor14" 380 1420 basechar 0
AnchorPoint: "Anchor10" 280 1540 basechar 0
AnchorPoint: "Anchor11" 440 1540 basechar 0
AnchorPoint: "Anchor12" 280 -130 basechar 0
LayerCount: 2
Fore
SplineSet
137 0 m 1,0,-1
 137 1409 l 1,1,-1
 432 1409 l 1,2,-1
 432 0 l 1,3,-1
 137 0 l 1,0,-1
EndSplineSet
Validated: 1
EndChar

StartChar: J
Encoding: 74 74 45
Width: 1139
GlyphClass: 2
Flags: W
AnchorPoint: "Anchor21" 530 0 basechar 0
AnchorPoint: "Anchor18" 1479 1840 basechar 0
AnchorPoint: "Anchor19" 0 1840 basechar 0
AnchorPoint: "Anchor16" 1139 1540 basechar 0
AnchorPoint: "Anchor17" 1139 -380 basechar 0
AnchorPoint: "Anchor15" 940 1300 basechar 0
AnchorPoint: "Anchor14" 960 1420 basechar 0
AnchorPoint: "Anchor10" 720 1540 basechar 0
AnchorPoint: "Anchor11" 1000 1540 basechar 0
AnchorPoint: "Anchor12" 540 -130 basechar 0
LayerCount: 2
Fore
SplineSet
524 -20 m 0,0,1
 305 -20 305 -20 187.5 75 c 128,-1,2
 70 170 70 170 31 382 c 1,3,-1
 324 425 l 1,4,5
 342 316 342 316 391 263.5 c 128,-1,6
 440 211 440 211 526 211 c 0,7,8
 614 211 614 211 659.5 270 c 128,-1,9
 705 329 705 329 705 439 c 2,10,-1
 705 1178 l 1,11,-1
 424 1178 l 1,12,-1
 424 1409 l 1,13,-1
 999 1409 l 1,14,-1
 999 446 l 2,15,16
 999 226 999 226 874 103 c 128,-1,17
 749 -20 749 -20 524 -20 c 0,0,1
EndSplineSet
Validated: 1
EndChar

StartChar: K
Encoding: 75 75 46
Width: 1479
GlyphClass: 2
Flags: W
AnchorPoint: "Anchor21" 1160 0 basechar 0
AnchorPoint: "Anchor20" 700 0 basechar 0
AnchorPoint: "Anchor18" 1479 1840 basechar 0
AnchorPoint: "Anchor19" 0 1840 basechar 0
AnchorPoint: "Anchor16" 1479 1540 basechar 0
AnchorPoint: "Anchor17" 1479 -380 basechar 0
AnchorPoint: "Anchor15" 1160 1340 basechar 0
AnchorPoint: "Anchor14" 1200 1420 basechar 0
AnchorPoint: "Anchor10" 700 1540 basechar 0
AnchorPoint: "Anchor11" 1330 1540 basechar 0
AnchorPoint: "Anchor12" 700 -130 basechar 0
LayerCount: 2
Fore
SplineSet
1112 0 m 1,0,-1
 606 647 l 1,1,-1
 432 514 l 1,2,-1
 432 0 l 1,3,-1
 137 0 l 1,4,-1
 137 1409 l 1,5,-1
 432 1409 l 1,6,-1
 432 770 l 1,7,-1
 1067 1409 l 1,8,-1
 1411 1409 l 1,9,-1
 809 813 l 1,10,-1
 1460 0 l 1,11,-1
 1112 0 l 1,0,-1
EndSplineSet
Validated: 1
EndChar

StartChar: L
Encoding: 76 76 47
Width: 1251
GlyphClass: 2
Flags: W
AnchorPoint: "Anchor21" 940 0 basechar 0
AnchorPoint: "Anchor20" 650 0 basechar 0
AnchorPoint: "Anchor18" 1479 1840 basechar 0
AnchorPoint: "Anchor19" 0 1840 basechar 0
AnchorPoint: "Anchor16" 1251 1540 basechar 0
AnchorPoint: "Anchor17" 1251 -380 basechar 0
AnchorPoint: "Anchor15" 400 1300 basechar 0
AnchorPoint: "Anchor14" 400 1420 basechar 0
AnchorPoint: "Anchor10" 650 1540 basechar 0
AnchorPoint: "Anchor11" 1100 1540 basechar 0
AnchorPoint: "Anchor12" 650 -130 basechar 0
LayerCount: 2
Fore
SplineSet
137 0 m 1,0,-1
 137 1409 l 1,1,-1
 432 1409 l 1,2,-1
 432 228 l 1,3,-1
 1188 228 l 1,4,-1
 1188 0 l 1,5,-1
 137 0 l 1,0,-1
EndSplineSet
Validated: 1
EndChar

StartChar: M
Encoding: 77 77 48
Width: 1706
GlyphClass: 2
Flags: W
AnchorPoint: "Anchor21" 1380 0 basechar 0
AnchorPoint: "Anchor18" 1479 1840 basechar 0
AnchorPoint: "Anchor19" 0 1840 basechar 0
AnchorPoint: "Anchor16" 1706 1540 basechar 0
AnchorPoint: "Anchor17" 1706 -380 basechar 0
AnchorPoint: "Anchor15" 1540 1300 basechar 0
AnchorPoint: "Anchor14" 1540 1420 basechar 0
AnchorPoint: "Anchor10" 860 1540 basechar 0
AnchorPoint: "Anchor11" 1580 1540 basechar 0
AnchorPoint: "Anchor12" 860 -130 basechar 0
LayerCount: 2
Fore
SplineSet
1307 0 m 1,0,-1
 1307 854 l 2,1,2
 1307 883 1307 883 1307.5 912 c 128,-1,3
 1308 941 1308 941 1317 1161 c 1,4,5
 1246 892 1246 892 1212 786 c 2,6,-1
 958 0 l 1,7,-1
 748 0 l 1,8,-1
 494 786 l 1,9,-1
 387 1161 l 1,10,11
 399 929 399 929 399 854 c 2,12,-1
 399 0 l 1,13,-1
 137 0 l 1,14,-1
 137 1409 l 1,15,-1
 532 1409 l 1,16,-1
 784 621 l 1,17,-1
 806 545 l 1,18,-1
 854 356 l 1,19,-1
 917 582 l 1,20,-1
 1176 1409 l 1,21,-1
 1569 1409 l 1,22,-1
 1569 0 l 1,23,-1
 1307 0 l 1,0,-1
EndSplineSet
Validated: 1
EndChar

StartChar: N
Encoding: 78 78 49
Width: 1479
GlyphClass: 2
Flags: W
AnchorPoint: "Anchor21" 1080 0 basechar 0
AnchorPoint: "Anchor20" 730 0 basechar 0
AnchorPoint: "Anchor18" 1479 1840 basechar 0
AnchorPoint: "Anchor19" 0 1840 basechar 0
AnchorPoint: "Anchor16" 1479 1540 basechar 0
AnchorPoint: "Anchor17" 1479 -380 basechar 0
AnchorPoint: "Anchor15" 1300 1300 basechar 0
AnchorPoint: "Anchor14" 1300 1420 basechar 0
AnchorPoint: "Anchor10" 730 1540 basechar 0
AnchorPoint: "Anchor11" 1330 1540 basechar 0
AnchorPoint: "Anchor12" 730 -130 basechar 0
LayerCount: 2
Fore
SplineSet
995 0 m 1,0,-1
 381 1085 l 1,1,2
 399 927 399 927 399 831 c 2,3,-1
 399 0 l 1,4,-1
 137 0 l 1,5,-1
 137 1409 l 1,6,-1
 474 1409 l 1,7,-1
 1097 315 l 1,8,9
 1079 466 1079 466 1079 590 c 2,10,-1
 1079 1409 l 1,11,-1
 1341 1409 l 1,12,-1
 1341 0 l 1,13,-1
 995 0 l 1,0,-1
EndSplineSet
Validated: 1
EndChar

StartChar: O
Encoding: 79 79 50
Width: 1593
GlyphClass: 2
Flags: W
AnchorPoint: "Anchor21" 920 0 basechar 0
AnchorPoint: "Anchor20" 800 0 basechar 0
AnchorPoint: "Anchor18" 1479 1840 basechar 0
AnchorPoint: "Anchor19" 0 1840 basechar 0
AnchorPoint: "Anchor16" 1593 1540 basechar 0
AnchorPoint: "Anchor17" 1593 -380 basechar 0
AnchorPoint: "Anchor15" 1240 1300 basechar 0
AnchorPoint: "Anchor14" 1440 1150 basechar 0
AnchorPoint: "Anchor10" 800 1540 basechar 0
AnchorPoint: "Anchor11" 1330 1540 basechar 0
AnchorPoint: "Anchor12" 800 -130 basechar 0
LayerCount: 2
Fore
SplineSet
1507 711 m 0,0,1
 1507 491 1507 491 1420 324 c 128,-1,2
 1333 157 1333 157 1171 68.5 c 128,-1,3
 1009 -20 1009 -20 793 -20 c 0,4,5
 461 -20 461 -20 272.5 175.5 c 128,-1,6
 84 371 84 371 84 711 c 0,7,8
 84 1050 84 1050 272 1240 c 128,-1,9
 460 1430 460 1430 795 1430 c 256,10,11
 1130 1430 1130 1430 1318.5 1238 c 128,-1,12
 1507 1046 1507 1046 1507 711 c 0,0,1
1206 711 m 0,13,14
 1206 939 1206 939 1098 1068.5 c 128,-1,15
 990 1198 990 1198 795 1198 c 0,16,17
 597 1198 597 1198 489 1069.5 c 128,-1,18
 381 941 381 941 381 711 c 0,19,20
 381 479 381 479 491.5 345.5 c 128,-1,21
 602 212 602 212 793 212 c 0,22,23
 991 212 991 212 1098.5 342 c 128,-1,24
 1206 472 1206 472 1206 711 c 0,13,14
EndSplineSet
Validated: 1
EndChar

StartChar: P
Encoding: 80 80 51
Width: 1366
GlyphClass: 2
Flags: W
AnchorPoint: "Anchor21" 180 0 basechar 0
AnchorPoint: "Anchor18" 1479 1840 basechar 0
AnchorPoint: "Anchor19" 0 1840 basechar 0
AnchorPoint: "Anchor16" 1366 1540 basechar 0
AnchorPoint: "Anchor17" 1366 -380 basechar 0
AnchorPoint: "Anchor15" 1100 1300 basechar 0
AnchorPoint: "Anchor14" 1260 1150 basechar 0
AnchorPoint: "Anchor10" 680 1540 basechar 0
AnchorPoint: "Anchor11" 1180 1540 basechar 0
AnchorPoint: "Anchor12" 680 -130 basechar 0
LayerCount: 2
Fore
SplineSet
1296 963 m 0,0,1
 1296 827 1296 827 1234 720 c 128,-1,2
 1172 613 1172 613 1056.5 554.5 c 128,-1,3
 941 496 941 496 782 496 c 2,4,-1
 432 496 l 1,5,-1
 432 0 l 1,6,-1
 137 0 l 1,7,-1
 137 1409 l 1,8,-1
 770 1409 l 2,9,10
 1023 1409 1023 1409 1159.5 1292.5 c 128,-1,11
 1296 1176 1296 1176 1296 963 c 0,0,1
999 958 m 0,12,13
 999 1180 999 1180 737 1180 c 2,14,-1
 432 1180 l 1,15,-1
 432 723 l 1,16,-1
 745 723 l 2,17,18
 867 723 867 723 933 783.5 c 128,-1,19
 999 844 999 844 999 958 c 0,12,13
EndSplineSet
Validated: 1
EndChar

StartChar: Q
Encoding: 81 81 52
Width: 1593
GlyphClass: 2
Flags: W
AnchorPoint: "Anchor21" 640 0 basechar 0
AnchorPoint: "Anchor18" 1479 1840 basechar 0
AnchorPoint: "Anchor19" 0 1840 basechar 0
AnchorPoint: "Anchor16" 1593 1540 basechar 0
AnchorPoint: "Anchor17" 1593 -380 basechar 0
AnchorPoint: "Anchor15" 1240 1300 basechar 0
AnchorPoint: "Anchor14" 1440 1150 basechar 0
AnchorPoint: "Anchor10" 800 1540 basechar 0
AnchorPoint: "Anchor11" 1430 1540 basechar 0
AnchorPoint: "Anchor12" 600 -130 basechar 0
LayerCount: 2
Fore
SplineSet
1507 711 m 0,0,1
 1507 429 1507 429 1368.5 241.5 c 128,-1,2
 1230 54 1230 54 983 4 c 1,3,4
 1017 -95 1017 -95 1078.5 -139 c 128,-1,5
 1140 -183 1140 -183 1251 -183 c 0,6,7
 1310 -183 1310 -183 1370 -173 c 1,8,-1
 1368 -375 l 1,9,10
 1242 -403 1242 -403 1126 -403 c 0,11,12
 963 -403 963 -403 856 -312 c 128,-1,13
 749 -221 749 -221 684 -10 c 1,14,15
 399 17 399 17 241.5 207.5 c 128,-1,16
 84 398 84 398 84 711 c 0,17,18
 84 1050 84 1050 272 1240 c 128,-1,19
 460 1430 460 1430 795 1430 c 256,20,21
 1130 1430 1130 1430 1318.5 1238 c 128,-1,22
 1507 1046 1507 1046 1507 711 c 0,0,1
1206 711 m 0,23,24
 1206 939 1206 939 1098 1068.5 c 128,-1,25
 990 1198 990 1198 795 1198 c 0,26,27
 597 1198 597 1198 489 1069.5 c 128,-1,28
 381 941 381 941 381 711 c 0,29,30
 381 479 381 479 491 345 c 128,-1,31
 601 211 601 211 793 211 c 0,32,33
 991 211 991 211 1098.5 341 c 128,-1,34
 1206 471 1206 471 1206 711 c 0,23,24
EndSplineSet
Validated: 1
EndChar

StartChar: R
Encoding: 82 82 53
Width: 1479
GlyphClass: 2
Flags: W
AnchorPoint: "Anchor21" 1180 0 basechar 0
AnchorPoint: "Anchor20" 680 0 basechar 0
AnchorPoint: "Anchor18" 1479 1840 basechar 0
AnchorPoint: "Anchor19" 0 1840 basechar 0
AnchorPoint: "Anchor16" 1479 1540 basechar 0
AnchorPoint: "Anchor17" 1479 -380 basechar 0
AnchorPoint: "Anchor15" 1200 1300 basechar 0
AnchorPoint: "Anchor14" 1320 1150 basechar 0
AnchorPoint: "Anchor10" 680 1540 basechar 0
AnchorPoint: "Anchor11" 1180 1540 basechar 0
AnchorPoint: "Anchor12" 680 -130 basechar 0
LayerCount: 2
Fore
SplineSet
1105 0 m 1,0,-1
 778 535 l 1,1,-1
 432 535 l 1,2,-1
 432 0 l 1,3,-1
 137 0 l 1,4,-1
 137 1409 l 1,5,-1
 841 1409 l 2,6,7
 1093 1409 1093 1409 1230 1300.5 c 128,-1,8
 1367 1192 1367 1192 1367 989 c 0,9,10
 1367 841 1367 841 1283 733.5 c 128,-1,11
 1199 626 1199 626 1056 592 c 1,12,-1
 1437 0 l 1,13,-1
 1105 0 l 1,0,-1
1070 977 m 0,14,15
 1070 1180 1070 1180 810 1180 c 2,16,-1
 432 1180 l 1,17,-1
 432 764 l 1,18,-1
 818 764 l 2,19,20
 942 764 942 764 1006 820 c 128,-1,21
 1070 876 1070 876 1070 977 c 0,14,15
EndSplineSet
Validated: 1
EndChar

StartChar: S
Encoding: 83 83 54
Width: 1366
GlyphClass: 2
Flags: W
AnchorPoint: "Anchor21" 800 0 basechar 0
AnchorPoint: "Anchor20" 700 0 basechar 0
AnchorPoint: "Anchor18" 1479 1840 basechar 0
AnchorPoint: "Anchor19" 0 1840 basechar 0
AnchorPoint: "Anchor16" 1366 1540 basechar 0
AnchorPoint: "Anchor17" 1366 -380 basechar 0
AnchorPoint: "Anchor15" 1100 1300 basechar 0
AnchorPoint: "Anchor14" 1160 1280 basechar 0
AnchorPoint: "Anchor10" 700 1540 basechar 0
AnchorPoint: "Anchor11" 1330 1540 basechar 0
AnchorPoint: "Anchor12" 700 -130 basechar 0
LayerCount: 2
Fore
SplineSet
1286 406 m 0,0,1
 1286 199 1286 199 1132.5 89.5 c 128,-1,2
 979 -20 979 -20 682 -20 c 0,3,4
 411 -20 411 -20 257 76 c 128,-1,5
 103 172 103 172 59 367 c 1,6,-1
 344 414 l 1,7,8
 373 302 373 302 457 251.5 c 128,-1,9
 541 201 541 201 690 201 c 0,10,11
 999 201 999 201 999 389 c 0,12,13
 999 449 999 449 963.5 488 c 128,-1,14
 928 527 928 527 863.5 553 c 128,-1,15
 799 579 799 579 616 616 c 1,16,17
 458 653 458 653 396 675.5 c 128,-1,18
 334 698 334 698 284 728.5 c 128,-1,19
 234 759 234 759 199 802 c 128,-1,20
 164 845 164 845 144.5 903 c 128,-1,21
 125 961 125 961 125 1036 c 0,22,23
 125 1227 125 1227 268.5 1328.5 c 128,-1,24
 412 1430 412 1430 686 1430 c 0,25,26
 948 1430 948 1430 1079.5 1348 c 128,-1,27
 1211 1266 1211 1266 1249 1077 c 1,28,-1
 963 1038 l 1,29,30
 941 1129 941 1129 873.5 1175 c 128,-1,31
 806 1221 806 1221 680 1221 c 0,32,33
 412 1221 412 1221 412 1053 c 0,34,35
 412 998 412 998 440.5 963 c 128,-1,36
 469 928 469 928 525 903.5 c 128,-1,37
 581 879 581 879 752 842 c 0,38,39
 955 799 955 799 1042.5 762.5 c 128,-1,40
 1130 726 1130 726 1181 677.5 c 128,-1,41
 1232 629 1232 629 1259 561.5 c 128,-1,42
 1286 494 1286 494 1286 406 c 0,0,1
EndSplineSet
Validated: 1
EndChar

StartChar: T
Encoding: 84 84 55
Width: 1251
GlyphClass: 2
Flags: W
AnchorPoint: "Anchor21" 550 0 basechar 0
AnchorPoint: "Anchor20" 620 0 basechar 0
AnchorPoint: "Anchor18" 1479 1840 basechar 0
AnchorPoint: "Anchor19" 0 1840 basechar 0
AnchorPoint: "Anchor16" 1251 1540 basechar 0
AnchorPoint: "Anchor17" 1251 -380 basechar 0
AnchorPoint: "Anchor15" 1200 1340 basechar 0
AnchorPoint: "Anchor14" 1180 1420 basechar 0
AnchorPoint: "Anchor10" 620 1540 basechar 0
AnchorPoint: "Anchor11" 1240 1540 basechar 0
AnchorPoint: "Anchor12" 620 -130 basechar 0
LayerCount: 2
Fore
SplineSet
773 1181 m 1,0,-1
 773 0 l 1,1,-1
 478 0 l 1,2,-1
 478 1181 l 1,3,-1
 23 1181 l 1,4,-1
 23 1409 l 1,5,-1
 1229 1409 l 1,6,-1
 1229 1181 l 1,7,-1
 773 1181 l 1,0,-1
EndSplineSet
Validated: 1
EndChar

StartChar: U
Encoding: 85 85 56
Width: 1479
GlyphClass: 2
Flags: W
AnchorPoint: "Anchor21" 830 0 basechar 0
AnchorPoint: "Anchor20" 730 0 basechar 0
AnchorPoint: "Anchor18" 1479 1840 basechar 0
AnchorPoint: "Anchor19" 0 1840 basechar 0
AnchorPoint: "Anchor16" 1479 1540 basechar 0
AnchorPoint: "Anchor17" 1479 -380 basechar 0
AnchorPoint: "Anchor15" 1300 1300 basechar 0
AnchorPoint: "Anchor14" 1300 1420 basechar 0
AnchorPoint: "Anchor10" 730 1540 basechar 0
AnchorPoint: "Anchor11" 1330 1540 basechar 0
AnchorPoint: "Anchor12" 730 -130 basechar 0
LayerCount: 2
Fore
SplineSet
723 -20 m 0,0,1
 432 -20 432 -20 277.5 122 c 128,-1,2
 123 264 123 264 123 528 c 2,3,-1
 123 1409 l 1,4,-1
 418 1409 l 1,5,-1
 418 551 l 2,6,7
 418 384 418 384 497.5 297.5 c 128,-1,8
 577 211 577 211 731 211 c 0,9,10
 889 211 889 211 974 301.5 c 128,-1,11
 1059 392 1059 392 1059 561 c 2,12,-1
 1059 1409 l 1,13,-1
 1354 1409 l 1,14,-1
 1354 543 l 2,15,16
 1354 275 1354 275 1188.5 127.5 c 128,-1,17
 1023 -20 1023 -20 723 -20 c 0,0,1
EndSplineSet
Validated: 1
EndChar

StartChar: V
Encoding: 86 86 57
Width: 1366
GlyphClass: 2
Flags: W
AnchorPoint: "Anchor21" 600 0 basechar 0
AnchorPoint: "Anchor18" 1479 1840 basechar 0
AnchorPoint: "Anchor19" 0 1840 basechar 0
AnchorPoint: "Anchor16" 1366 1540 basechar 0
AnchorPoint: "Anchor17" 1366 -380 basechar 0
AnchorPoint: "Anchor15" 1200 1300 basechar 0
AnchorPoint: "Anchor14" 1240 1420 basechar 0
AnchorPoint: "Anchor10" 680 1540 basechar 0
AnchorPoint: "Anchor11" 1180 1540 basechar 0
AnchorPoint: "Anchor12" 680 -130 basechar 0
LayerCount: 2
Fore
SplineSet
834 0 m 1,0,-1
 535 0 l 1,1,-1
 14 1409 l 1,2,-1
 322 1409 l 1,3,-1
 612 504 l 1,4,5
 639 416 639 416 686 238 c 1,6,-1
 707 324 l 1,7,-1
 758 504 l 1,8,-1
 1047 1409 l 1,9,-1
 1352 1409 l 1,10,-1
 834 0 l 1,0,-1
EndSplineSet
Validated: 1
EndChar

StartChar: W
Encoding: 87 87 58
Width: 1933
GlyphClass: 2
Flags: W
AnchorPoint: "Anchor21" 1300 0 basechar 0
AnchorPoint: "Anchor18" 1479 1840 basechar 0
AnchorPoint: "Anchor19" 0 1840 basechar 0
AnchorPoint: "Anchor16" 1933 1540 basechar 0
AnchorPoint: "Anchor17" 1933 -380 basechar 0
AnchorPoint: "Anchor15" 1840 1300 basechar 0
AnchorPoint: "Anchor14" 1840 1420 basechar 0
AnchorPoint: "Anchor10" 970 1540 basechar 0
AnchorPoint: "Anchor11" 1900 1540 basechar 0
AnchorPoint: "Anchor12" 970 -130 basechar 0
LayerCount: 2
Fore
SplineSet
1567 0 m 1,0,-1
 1217 0 l 1,1,-1
 1026 815 l 1,2,3
 991 959 991 959 967 1116 c 1,4,5
 943 985 943 985 928 916.5 c 128,-1,6
 913 848 913 848 715 0 c 1,7,-1
 365 0 l 1,8,-1
 2 1409 l 1,9,-1
 301 1409 l 1,10,-1
 505 499 l 1,11,-1
 551 279 l 1,12,13
 579 418 579 418 605.5 544.5 c 128,-1,14
 632 671 632 671 805 1409 c 1,15,-1
 1135 1409 l 1,16,-1
 1313 659 l 1,17,18
 1334 575 1334 575 1384 279 c 1,19,-1
 1409 395 l 1,20,-1
 1462 625 l 1,21,-1
 1632 1409 l 1,22,-1
 1931 1409 l 1,23,-1
 1567 0 l 1,0,-1
EndSplineSet
Validated: 1
EndChar

StartChar: X
Encoding: 88 88 59
Width: 1366
GlyphClass: 2
Flags: W
AnchorPoint: "Anchor21" 1100 0 basechar 0
AnchorPoint: "Anchor18" 1479 1840 basechar 0
AnchorPoint: "Anchor19" 0 1840 basechar 0
AnchorPoint: "Anchor16" 1366 1540 basechar 0
AnchorPoint: "Anchor17" 1366 -380 basechar 0
AnchorPoint: "Anchor15" 1100 1300 basechar 0
AnchorPoint: "Anchor14" 1160 1420 basechar 0
AnchorPoint: "Anchor10" 680 1540 basechar 0
AnchorPoint: "Anchor11" 1180 1540 basechar 0
AnchorPoint: "Anchor12" 680 -130 basechar 0
LayerCount: 2
Fore
SplineSet
1038 0 m 1,0,-1
 684 561 l 1,1,-1
 330 0 l 1,2,-1
 18 0 l 1,3,-1
 506 741 l 1,4,-1
 59 1409 l 1,5,-1
 371 1409 l 1,6,-1
 684 911 l 1,7,-1
 997 1409 l 1,8,-1
 1307 1409 l 1,9,-1
 879 741 l 1,10,-1
 1348 0 l 1,11,-1
 1038 0 l 1,0,-1
EndSplineSet
Validated: 1
EndChar

StartChar: Y
Encoding: 89 89 60
Width: 1366
GlyphClass: 2
Flags: W
AnchorPoint: "Anchor21" 600 0 basechar 0
AnchorPoint: "Anchor18" 1479 1840 basechar 0
AnchorPoint: "Anchor19" 0 1840 basechar 0
AnchorPoint: "Anchor16" 1366 1540 basechar 0
AnchorPoint: "Anchor17" 1366 -380 basechar 0
AnchorPoint: "Anchor15" 1160 1300 basechar 0
AnchorPoint: "Anchor14" 1200 1420 basechar 0
AnchorPoint: "Anchor10" 680 1540 basechar 0
AnchorPoint: "Anchor11" 1180 1540 basechar 0
AnchorPoint: "Anchor12" 680 -130 basechar 0
LayerCount: 2
Fore
SplineSet
831 578 m 1,0,-1
 831 0 l 1,1,-1
 537 0 l 1,2,-1
 537 578 l 1,3,-1
 35 1409 l 1,4,-1
 344 1409 l 1,5,-1
 682 813 l 1,6,-1
 1024 1409 l 1,7,-1
 1333 1409 l 1,8,-1
 831 578 l 1,0,-1
EndSplineSet
Validated: 1
EndChar

StartChar: Z
Encoding: 90 90 61
Width: 1251
GlyphClass: 2
Flags: W
AnchorPoint: "Anchor21" 1030 0 basechar 0
AnchorPoint: "Anchor18" 1479 1840 basechar 0
AnchorPoint: "Anchor19" 0 1840 basechar 0
AnchorPoint: "Anchor16" 1251 1540 basechar 0
AnchorPoint: "Anchor17" 1251 -380 basechar 0
AnchorPoint: "Anchor15" 1100 1300 basechar 0
AnchorPoint: "Anchor14" 1130 1420 basechar 0
AnchorPoint: "Anchor10" 640 1540 basechar 0
AnchorPoint: "Anchor11" 1140 1540 basechar 0
AnchorPoint: "Anchor12" 640 -130 basechar 0
LayerCount: 2
Fore
SplineSet
1192 0 m 1,0,-1
 61 0 l 1,1,-1
 61 209 l 1,2,-1
 823 1178 l 1,3,-1
 137 1178 l 1,4,-1
 137 1409 l 1,5,-1
 1151 1409 l 1,6,-1
 1151 1204 l 1,7,-1
 389 231 l 1,8,-1
 1192 231 l 1,9,-1
 1192 0 l 1,0,-1
EndSplineSet
Validated: 1
EndChar

StartChar: bracketleft
Encoding: 91 91 62
Width: 682
GlyphClass: 2
Flags: W
LayerCount: 2
Fore
SplineSet
115 -425 m 1,0,-1
 115 1484 l 1,1,-1
 657 1484 l 1,2,-1
 657 1294 l 1,3,-1
 381 1294 l 1,4,-1
 381 -234 l 1,5,-1
 657 -234 l 1,6,-1
 657 -425 l 1,7,-1
 115 -425 l 1,0,-1
EndSplineSet
Validated: 1
EndChar

StartChar: backslash
Encoding: 92 92 63
Width: 569
GlyphClass: 2
Flags: W
LayerCount: 2
Fore
SplineSet
307 -41 m 1,0,-1
 21 1485 l 1,1,-1
 259 1485 l 1,2,-1
 550 -41 l 1,3,-1
 307 -41 l 1,0,-1
EndSplineSet
Validated: 1
EndChar

StartChar: bracketright
Encoding: 93 93 64
Width: 682
GlyphClass: 2
Flags: W
LayerCount: 2
Fore
SplineSet
25 -425 m 1,0,-1
 25 -234 l 1,1,-1
 303 -234 l 1,2,-1
 303 1294 l 1,3,-1
 25 1294 l 1,4,-1
 25 1484 l 1,5,-1
 567 1484 l 1,6,-1
 567 -425 l 1,7,-1
 25 -425 l 1,0,-1
EndSplineSet
Validated: 1
EndChar

StartChar: asciicircum
Encoding: 94 94 65
Width: 1196
GlyphClass: 2
Flags: W
LayerCount: 2
Fore
SplineSet
922 514 m 1,0,-1
 596 1266 l 1,1,-1
 272 514 l 1,2,-1
 45 514 l 1,3,-1
 436 1409 l 1,4,-1
 758 1409 l 1,5,-1
 1151 514 l 1,6,-1
 922 514 l 1,0,-1
EndSplineSet
Validated: 1
EndChar

StartChar: underscore
Encoding: 95 95 66
Width: 1139
GlyphClass: 2
Flags: W
LayerCount: 2
Fore
SplineSet
-20 -250 m 1,0,-1
 -20 -172 l 1,1,-1
 1157 -172 l 1,2,-1
 1157 -250 l 1,3,-1
 -20 -250 l 1,0,-1
EndSplineSet
Validated: 1
EndChar

StartChar: grave
Encoding: 96 96 67
Width: 682
GlyphClass: 2
Flags: W
LayerCount: 2
Fore
SplineSet
406 1183 m 1,0,-1
 66 1459 l 1,1,-1
 66 1502 l 1,2,-1
 324 1502 l 1,3,-1
 575 1214 l 1,4,-1
 575 1183 l 1,5,-1
 406 1183 l 1,0,-1
EndSplineSet
Validated: 1
EndChar

StartChar: a
Encoding: 97 97 68
Width: 1139
GlyphClass: 2
Flags: W
AnchorPoint: "Anchor21" 940 0 basechar 0
AnchorPoint: "Anchor20" 500 0 basechar 0
AnchorPoint: "Anchor18" 1479 1840 basechar 0
AnchorPoint: "Anchor19" 0 1840 basechar 0
AnchorPoint: "Anchor16" 1139 1230 basechar 0
AnchorPoint: "Anchor17" 1139 -90 basechar 0
AnchorPoint: "Anchor15" 820 1000 basechar 0
AnchorPoint: "Anchor14" 950 900 basechar 0
AnchorPoint: "Anchor10" 560 1200 basechar 0
AnchorPoint: "Anchor11" 1000 1200 basechar 0
AnchorPoint: "Anchor12" 560 -130 basechar 0
LayerCount: 2
Fore
SplineSet
393 -20 m 0,0,1
 236 -20 236 -20 148 65.5 c 128,-1,2
 60 151 60 151 60 306 c 0,3,4
 60 474 60 474 169.5 562 c 128,-1,5
 279 650 279 650 487 652 c 1,6,-1
 720 656 l 1,7,-1
 720 711 l 2,8,9
 720 817 720 817 683 868.5 c 128,-1,10
 646 920 646 920 562 920 c 0,11,12
 484 920 484 920 447.5 884.5 c 128,-1,13
 411 849 411 849 402 767 c 1,14,-1
 109 781 l 1,15,16
 136 939 136 939 253.5 1020.5 c 128,-1,17
 371 1102 371 1102 574 1102 c 0,18,19
 779 1102 779 1102 890 1001 c 128,-1,20
 1001 900 1001 900 1001 714 c 2,21,-1
 1001 320 l 2,22,23
 1001 229 1001 229 1021.5 194.5 c 128,-1,24
 1042 160 1042 160 1090 160 c 0,25,26
 1122 160 1122 160 1152 166 c 1,27,-1
 1152 14 l 1,28,29
 1127 8 1127 8 1107 3 c 128,-1,30
 1087 -2 1087 -2 1067 -5 c 128,-1,31
 1047 -8 1047 -8 1024.5 -10 c 128,-1,32
 1002 -12 1002 -12 972 -12 c 0,33,34
 866 -12 866 -12 815.5 40 c 128,-1,35
 765 92 765 92 755 193 c 1,36,-1
 749 193 l 1,37,38
 631 -20 631 -20 393 -20 c 0,0,1
720 501 m 1,39,-1
 576 499 l 1,40,41
 478 495 478 495 437 477.5 c 128,-1,42
 396 460 396 460 374.5 424 c 128,-1,43
 353 388 353 388 353 328 c 0,44,45
 353 251 353 251 388.5 213.5 c 128,-1,46
 424 176 424 176 483 176 c 0,47,48
 549 176 549 176 603.5 212 c 128,-1,49
 658 248 658 248 689 311.5 c 128,-1,50
 720 375 720 375 720 446 c 2,51,-1
 720 501 l 1,39,-1
EndSplineSet
Validated: 1
EndChar

StartChar: b
Encoding: 98 98 69
Width: 1251
GlyphClass: 2
Flags: W
AnchorPoint: "Anchor21" 680 0 basechar 0
AnchorPoint: "Anchor18" 1479 1840 basechar 0
AnchorPoint: "Anchor19" 0 1840 basechar 0
AnchorPoint: "Anchor16" 1251 1540 basechar 0
AnchorPoint: "Anchor17" 1251 -110 basechar 0
AnchorPoint: "Anchor15" 980 1000 basechar 0
AnchorPoint: "Anchor14" 1120 900 basechar 0
AnchorPoint: "Anchor10" 680 1540 basechar 0
AnchorPoint: "Anchor11" 1180 1540 basechar 0
AnchorPoint: "Anchor12" 680 -130 basechar 0
LayerCount: 2
Fore
SplineSet
1167 545 m 0,0,1
 1167 277 1167 277 1059.5 128.5 c 128,-1,2
 952 -20 952 -20 752 -20 c 0,3,4
 637 -20 637 -20 553 30 c 128,-1,5
 469 80 469 80 424 174 c 1,6,-1
 422 174 l 1,7,8
 422 139 422 139 417.5 78 c 128,-1,9
 413 17 413 17 408 0 c 1,10,-1
 135 0 l 1,11,12
 143 93 143 93 143 247 c 2,13,-1
 143 1484 l 1,14,-1
 424 1484 l 1,15,-1
 424 1070 l 1,16,-1
 420 894 l 1,17,-1
 424 894 l 1,18,19
 519 1102 519 1102 770 1102 c 0,20,21
 962 1102 962 1102 1064.5 956.5 c 128,-1,22
 1167 811 1167 811 1167 545 c 0,0,1
874 545 m 0,23,24
 874 729 874 729 820 818 c 128,-1,25
 766 907 766 907 653 907 c 0,26,27
 539 907 539 907 479.5 811.5 c 128,-1,28
 420 716 420 716 420 536 c 0,29,30
 420 364 420 364 478.5 268 c 128,-1,31
 537 172 537 172 651 172 c 0,32,33
 874 172 874 172 874 545 c 0,23,24
EndSplineSet
Validated: 1
EndChar

StartChar: c
Encoding: 99 99 70
Width: 1139
GlyphClass: 2
Flags: W
AnchorPoint: "Anchor21" 580 0 basechar 0
AnchorPoint: "Anchor20" 600 0 basechar 0
AnchorPoint: "Anchor18" 1479 1840 basechar 0
AnchorPoint: "Anchor19" 0 1840 basechar 0
AnchorPoint: "Anchor16" 1139 1220 basechar 0
AnchorPoint: "Anchor17" 1139 -100 basechar 0
AnchorPoint: "Anchor15" 900 1000 basechar 0
AnchorPoint: "Anchor14" 900 940 basechar 0
AnchorPoint: "Anchor10" 800 1540 basechar 0
AnchorPoint: "Anchor11" 1430 1540 basechar 0
AnchorPoint: "Anchor12" 600 -130 basechar 0
LayerCount: 2
Fore
SplineSet
594 -20 m 0,0,1
 348 -20 348 -20 214 126.5 c 128,-1,2
 80 273 80 273 80 535 c 0,3,4
 80 803 80 803 215 952.5 c 128,-1,5
 350 1102 350 1102 598 1102 c 0,6,7
 789 1102 789 1102 914 1006 c 128,-1,8
 1039 910 1039 910 1071 741 c 1,9,-1
 788 727 l 1,10,11
 776 810 776 810 728 859.5 c 128,-1,12
 680 909 680 909 592 909 c 0,13,14
 375 909 375 909 375 546 c 0,15,16
 375 172 375 172 596 172 c 0,17,18
 676 172 676 172 730 222.5 c 128,-1,19
 784 273 784 273 797 373 c 1,20,-1
 1079 360 l 1,21,22
 1064 249 1064 249 999.5 162 c 128,-1,23
 935 75 935 75 830 27.5 c 128,-1,24
 725 -20 725 -20 594 -20 c 0,0,1
EndSplineSet
Validated: 1
EndChar

StartChar: d
Encoding: 100 100 71
Width: 1251
GlyphClass: 2
Flags: W
AnchorPoint: "Anchor21" 920 0 basechar 0
AnchorPoint: "Anchor18" 1479 1840 basechar 0
AnchorPoint: "Anchor19" 0 1840 basechar 0
AnchorPoint: "Anchor16" 1251 1540 basechar 0
AnchorPoint: "Anchor17" 1251 -110 basechar 0
AnchorPoint: "Anchor15" 1060 1300 basechar 0
AnchorPoint: "Anchor14" 1080 1500 basechar 0
AnchorPoint: "Anchor10" 580 1540 basechar 0
AnchorPoint: "Anchor11" 1120 1540 basechar 0
AnchorPoint: "Anchor12" 580 -130 basechar 0
LayerCount: 2
Fore
SplineSet
844 0 m 1,0,1
 840 15 840 15 834.5 75.5 c 128,-1,2
 829 136 829 136 829 176 c 1,3,-1
 825 176 l 1,4,5
 734 -20 734 -20 479 -20 c 0,6,7
 290 -20 290 -20 187 127.5 c 128,-1,8
 84 275 84 275 84 540 c 0,9,10
 84 809 84 809 192.5 955.5 c 128,-1,11
 301 1102 301 1102 500 1102 c 0,12,13
 615 1102 615 1102 698.5 1054 c 128,-1,14
 782 1006 782 1006 827 911 c 1,15,-1
 829 911 l 1,16,-1
 827 1089 l 1,17,-1
 827 1484 l 1,18,-1
 1108 1484 l 1,19,-1
 1108 236 l 2,20,21
 1108 136 1108 136 1116 0 c 1,22,-1
 844 0 l 1,0,1
831 547 m 0,23,24
 831 722 831 722 772.5 816.5 c 128,-1,25
 714 911 714 911 600 911 c 0,26,27
 487 911 487 911 432 819.5 c 128,-1,28
 377 728 377 728 377 540 c 0,29,30
 377 172 377 172 598 172 c 0,31,32
 709 172 709 172 770 269.5 c 128,-1,33
 831 367 831 367 831 547 c 0,23,24
EndSplineSet
Validated: 1
EndChar

StartChar: e
Encoding: 101 101 72
Width: 1139
GlyphClass: 2
Flags: W
AnchorPoint: "Anchor21" 680 0 basechar 0
AnchorPoint: "Anchor20" 580 0 basechar 0
AnchorPoint: "Anchor18" 1479 1840 basechar 0
AnchorPoint: "Anchor19" 0 1840 basechar 0
AnchorPoint: "Anchor16" 1139 1210 basechar 0
AnchorPoint: "Anchor17" 1139 -120 basechar 0
AnchorPoint: "Anchor15" 900 1000 basechar 0
AnchorPoint: "Anchor14" 1020 900 basechar 0
AnchorPoint: "Anchor10" 580 1540 basechar 0
AnchorPoint: "Anchor11" 1120 1540 basechar 0
AnchorPoint: "Anchor12" 580 -130 basechar 0
LayerCount: 2
Fore
SplineSet
586 -20 m 0,0,1
 342 -20 342 -20 211 124.5 c 128,-1,2
 80 269 80 269 80 546 c 0,3,4
 80 814 80 814 213 958 c 128,-1,5
 346 1102 346 1102 590 1102 c 0,6,7
 823 1102 823 1102 946 947.5 c 128,-1,8
 1069 793 1069 793 1069 495 c 2,9,-1
 1069 487 l 1,10,-1
 375 487 l 1,11,12
 375 329 375 329 433.5 248.5 c 128,-1,13
 492 168 492 168 600 168 c 0,14,15
 749 168 749 168 788 297 c 1,16,-1
 1053 274 l 1,17,18
 938 -20 938 -20 586 -20 c 0,0,1
586 925 m 0,19,20
 487 925 487 925 433.5 856 c 128,-1,21
 380 787 380 787 377 663 c 1,22,-1
 797 663 l 1,23,24
 789 794 789 794 734 859.5 c 128,-1,25
 679 925 679 925 586 925 c 0,19,20
EndSplineSet
Validated: 1
EndChar

StartChar: f
Encoding: 102 102 73
Width: 682
GlyphClass: 2
Flags: W
AnchorPoint: "Anchor21" 280 0 basechar 0
AnchorPoint: "Anchor18" 1479 1840 basechar 0
AnchorPoint: "Anchor19" 0 1840 basechar 0
AnchorPoint: "Anchor16" 682 1540 basechar 0
AnchorPoint: "Anchor17" 682 -110 basechar 0
AnchorPoint: "Anchor15" 680 1440 basechar 0
AnchorPoint: "Anchor14" 680 1500 basechar 0
AnchorPoint: "Anchor10" 460 1580 basechar 0
AnchorPoint: "Anchor11" 700 1540 basechar 0
AnchorPoint: "Anchor12" 340 -130 basechar 0
LayerCount: 2
Fore
SplineSet
473 892 m 1,0,-1
 473 0 l 1,1,-1
 193 0 l 1,2,-1
 193 892 l 1,3,-1
 35 892 l 1,4,-1
 35 1082 l 1,5,-1
 193 1082 l 1,6,-1
 193 1195 l 2,7,8
 193 1342 193 1342 271 1413 c 128,-1,9
 349 1484 349 1484 508 1484 c 0,10,11
 587 1484 587 1484 686 1468 c 1,12,-1
 686 1287 l 1,13,14
 645 1296 645 1296 604 1296 c 0,15,16
 532 1296 532 1296 502.5 1267.5 c 128,-1,17
 473 1239 473 1239 473 1167 c 2,18,-1
 473 1082 l 1,19,-1
 686 1082 l 1,20,-1
 686 892 l 1,21,-1
 473 892 l 1,0,-1
EndSplineSet
Validated: 1
EndChar

StartChar: g
Encoding: 103 103 74
Width: 1251
GlyphClass: 2
Flags: W
AnchorPoint: "Anchor21" 660 -400 basechar 0
AnchorPoint: "Anchor20" 600 -420 basechar 0
AnchorPoint: "Anchor18" 1479 1840 basechar 0
AnchorPoint: "Anchor19" 0 1840 basechar 0
AnchorPoint: "Anchor16" 1251 1210 basechar 0
AnchorPoint: "Anchor17" 1251 -380 basechar 0
AnchorPoint: "Anchor15" 1080 1000 basechar 0
AnchorPoint: "Anchor14" 1080 1100 basechar 0
AnchorPoint: "Anchor10" 580 1200 basechar 0
AnchorPoint: "Anchor11" 1120 1200 basechar 0
AnchorPoint: "Anchor12" 580 -540 basechar 0
LayerCount: 2
Fore
SplineSet
596 -434 m 0,0,1
 398 -434 398 -434 277.5 -358.5 c 128,-1,2
 157 -283 157 -283 129 -143 c 1,3,-1
 410 -110 l 1,4,5
 425 -175 425 -175 474.5 -212 c 128,-1,6
 524 -249 524 -249 604 -249 c 0,7,8
 721 -249 721 -249 775 -177 c 128,-1,9
 829 -105 829 -105 829 37 c 2,10,-1
 829 94 l 1,11,-1
 831 201 l 1,12,-1
 829 201 l 1,13,14
 736 2 736 2 481 2 c 0,15,16
 292 2 292 2 188 144 c 128,-1,17
 84 286 84 286 84 550 c 0,18,19
 84 815 84 815 191 959 c 128,-1,20
 298 1103 298 1103 502 1103 c 0,21,22
 738 1103 738 1103 829 908 c 1,23,-1
 834 908 l 1,24,25
 834 943 834 943 838.5 1003 c 128,-1,26
 843 1063 843 1063 848 1082 c 1,27,-1
 1114 1082 l 1,28,29
 1108 974 1108 974 1108 832 c 2,30,-1
 1108 33 l 2,31,32
 1108 -198 1108 -198 977 -316 c 128,-1,33
 846 -434 846 -434 596 -434 c 0,0,1
831 556 m 0,34,35
 831 723 831 723 771.5 816.5 c 128,-1,36
 712 910 712 910 602 910 c 0,37,38
 377 910 377 910 377 550 c 0,39,40
 377 197 377 197 600 197 c 0,41,42
 712 197 712 197 771.5 290.5 c 128,-1,43
 831 384 831 384 831 556 c 0,34,35
EndSplineSet
Validated: 1
EndChar

StartChar: h
Encoding: 104 104 75
Width: 1251
GlyphClass: 2
Flags: W
AnchorPoint: "Anchor21" 920 0 basechar 0
AnchorPoint: "Anchor18" 1479 1840 basechar 0
AnchorPoint: "Anchor19" 0 1840 basechar 0
AnchorPoint: "Anchor16" 1251 1540 basechar 0
AnchorPoint: "Anchor17" 1251 -110 basechar 0
AnchorPoint: "Anchor15" 980 1000 basechar 0
AnchorPoint: "Anchor14" 1080 900 basechar 0
AnchorPoint: "Anchor10" 640 1540 basechar 0
AnchorPoint: "Anchor11" 1140 1540 basechar 0
AnchorPoint: "Anchor12" 640 -130 basechar 0
LayerCount: 2
Fore
SplineSet
420 866 m 1,0,1
 477 990 477 990 563 1046 c 128,-1,2
 649 1102 649 1102 768 1102 c 0,3,4
 940 1102 940 1102 1032 996 c 128,-1,5
 1124 890 1124 890 1124 686 c 2,6,-1
 1124 0 l 1,7,-1
 844 0 l 1,8,-1
 844 606 l 2,9,10
 844 891 844 891 651 891 c 0,11,12
 549 891 549 891 486.5 803.5 c 128,-1,13
 424 716 424 716 424 579 c 2,14,-1
 424 0 l 1,15,-1
 143 0 l 1,16,-1
 143 1484 l 1,17,-1
 424 1484 l 1,18,-1
 424 1079 l 2,19,20
 424 970 424 970 416 866 c 1,21,-1
 420 866 l 1,0,1
EndSplineSet
Validated: 1
EndChar

StartChar: i
Encoding: 105 105 76
Width: 569
GlyphClass: 2
Flags: W
AnchorPoint: "Anchor21" 200 0 basechar 0
AnchorPoint: "Anchor20" 280 0 basechar 0
AnchorPoint: "Anchor18" 1479 1840 basechar 0
AnchorPoint: "Anchor19" 0 1840 basechar 0
AnchorPoint: "Anchor16" 569 1540 basechar 0
AnchorPoint: "Anchor17" 569 -100 basechar 0
AnchorPoint: "Anchor15" 380 1000 basechar 0
AnchorPoint: "Anchor14" 410 1100 basechar 0
AnchorPoint: "Anchor10" 280 1540 basechar 0
AnchorPoint: "Anchor11" 440 1540 basechar 0
AnchorPoint: "Anchor12" 280 -130 basechar 0
LayerCount: 2
Fore
SplineSet
143 1277 m 1,0,-1
 143 1484 l 1,1,-1
 424 1484 l 1,2,-1
 424 1277 l 1,3,-1
 143 1277 l 1,0,-1
143 0 m 1,4,-1
 143 1082 l 1,5,-1
 424 1082 l 1,6,-1
 424 0 l 1,7,-1
 143 0 l 1,4,-1
EndSplineSet
Validated: 1
EndChar

StartChar: j
Encoding: 106 106 77
Width: 569
GlyphClass: 2
Flags: W
AnchorPoint: "Anchor21" 130 -400 basechar 0
AnchorPoint: "Anchor18" 1479 1840 basechar 0
AnchorPoint: "Anchor19" 0 1840 basechar 0
AnchorPoint: "Anchor16" 569 1540 basechar 0
AnchorPoint: "Anchor17" 569 -380 basechar 0
AnchorPoint: "Anchor15" 380 1000 basechar 0
AnchorPoint: "Anchor14" 410 1100 basechar 0
AnchorPoint: "Anchor10" 280 1580 basechar 0
AnchorPoint: "Anchor11" 420 1540 basechar 0
AnchorPoint: "Anchor12" 200 -540 basechar 0
LayerCount: 2
Fore
SplineSet
144 1277 m 1,0,-1
 144 1484 l 1,1,-1
 425 1484 l 1,2,-1
 425 1277 l 1,3,-1
 144 1277 l 1,0,-1
138 -425 m 0,4,5
 38 -425 38 -425 -32 -416 c 1,6,-1
 -32 -218 l 1,7,-1
 19 -222 l 1,8,9
 91 -222 91 -222 117.5 -190.5 c 128,-1,10
 144 -159 144 -159 144 -60 c 2,11,-1
 144 1082 l 1,12,-1
 425 1082 l 1,13,-1
 425 -128 l 2,14,15
 425 -271 425 -271 352.5 -348 c 128,-1,16
 280 -425 280 -425 138 -425 c 0,4,5
EndSplineSet
Validated: 1
EndChar

StartChar: k
Encoding: 107 107 78
Width: 1139
GlyphClass: 2
Flags: W
AnchorPoint: "Anchor21" 900 0 basechar 0
AnchorPoint: "Anchor20" 580 0 basechar 0
AnchorPoint: "Anchor18" 1479 1840 basechar 0
AnchorPoint: "Anchor19" 0 1840 basechar 0
AnchorPoint: "Anchor16" 1139 1540 basechar 0
AnchorPoint: "Anchor17" 1139 -110 basechar 0
AnchorPoint: "Anchor15" 860 1000 basechar 0
AnchorPoint: "Anchor14" 940 1100 basechar 0
AnchorPoint: "Anchor10" 580 1540 basechar 0
AnchorPoint: "Anchor11" 1120 1540 basechar 0
AnchorPoint: "Anchor12" 580 -130 basechar 0
LayerCount: 2
Fore
SplineSet
834 0 m 1,0,-1
 545 490 l 1,1,-1
 424 406 l 1,2,-1
 424 0 l 1,3,-1
 143 0 l 1,4,-1
 143 1484 l 1,5,-1
 424 1484 l 1,6,-1
 424 634 l 1,7,-1
 810 1082 l 1,8,-1
 1112 1082 l 1,9,-1
 732 660 l 1,10,-1
 1141 0 l 1,11,-1
 834 0 l 1,0,-1
EndSplineSet
Validated: 1
EndChar

StartChar: l
Encoding: 108 108 79
Width: 569
GlyphClass: 2
Flags: W
AnchorPoint: "Anchor21" 200 0 basechar 0
AnchorPoint: "Anchor20" 280 0 basechar 0
AnchorPoint: "Anchor18" 1479 1840 basechar 0
AnchorPoint: "Anchor19" 0 1840 basechar 0
AnchorPoint: "Anchor16" 569 1540 basechar 0
AnchorPoint: "Anchor17" 569 -110 basechar 0
AnchorPoint: "Anchor15" 380 1300 basechar 0
AnchorPoint: "Anchor14" 410 1500 basechar 0
AnchorPoint: "Anchor10" 280 1540 basechar 0
AnchorPoint: "Anchor11" 440 1540 basechar 0
AnchorPoint: "Anchor12" 280 -130 basechar 0
LayerCount: 2
Fore
SplineSet
143 0 m 1,0,-1
 143 1484 l 1,1,-1
 424 1484 l 1,2,-1
 424 0 l 1,3,-1
 143 0 l 1,0,-1
EndSplineSet
Validated: 1
EndChar

StartChar: m
Encoding: 109 109 80
Width: 1821
GlyphClass: 2
Flags: W
AnchorPoint: "Anchor21" 1480 0 basechar 0
AnchorPoint: "Anchor18" 1479 1840 basechar 0
AnchorPoint: "Anchor19" 0 1840 basechar 0
AnchorPoint: "Anchor16" 1821 1220 basechar 0
AnchorPoint: "Anchor17" 1821 -110 basechar 0
AnchorPoint: "Anchor15" 1600 1000 basechar 0
AnchorPoint: "Anchor14" 1680 900 basechar 0
AnchorPoint: "Anchor10" 920 1200 basechar 0
AnchorPoint: "Anchor11" 1700 1200 basechar 0
AnchorPoint: "Anchor12" 920 -130 basechar 0
LayerCount: 2
Fore
SplineSet
780 0 m 1,0,-1
 780 607 l 2,1,2
 780 892 780 892 616 892 c 0,3,4
 531 892 531 892 477.5 805 c 128,-1,5
 424 718 424 718 424 580 c 2,6,-1
 424 0 l 1,7,-1
 143 0 l 1,8,-1
 143 840 l 2,9,10
 143 927 143 927 140.5 982.5 c 128,-1,11
 138 1038 138 1038 135 1082 c 1,12,-1
 403 1082 l 1,13,14
 406 1063 406 1063 411 980.5 c 128,-1,15
 416 898 416 898 416 867 c 1,16,-1
 420 867 l 1,17,18
 472 991 472 991 549.5 1047 c 128,-1,19
 627 1103 627 1103 735 1103 c 0,20,21
 983 1103 983 1103 1036 867 c 1,22,-1
 1042 867 l 1,23,24
 1097 993 1097 993 1174 1048 c 128,-1,25
 1251 1103 1251 1103 1370 1103 c 0,26,27
 1528 1103 1528 1103 1611 995.5 c 128,-1,28
 1694 888 1694 888 1694 687 c 2,29,-1
 1694 0 l 1,30,-1
 1415 0 l 1,31,-1
 1415 607 l 2,32,33
 1415 892 1415 892 1251 892 c 0,34,35
 1169 892 1169 892 1116.5 812.5 c 128,-1,36
 1064 733 1064 733 1059 593 c 1,37,-1
 1059 0 l 1,38,-1
 780 0 l 1,0,-1
EndSplineSet
Validated: 1
EndChar

StartChar: n
Encoding: 110 110 81
Width: 1251
GlyphClass: 2
Flags: W
AnchorPoint: "Anchor21" 920 0 basechar 0
AnchorPoint: "Anchor20" 630 0 basechar 0
AnchorPoint: "Anchor18" 1479 1840 basechar 0
AnchorPoint: "Anchor19" 0 1840 basechar 0
AnchorPoint: "Anchor16" 1251 1220 basechar 0
AnchorPoint: "Anchor17" 1251 -90 basechar 0
AnchorPoint: "Anchor15" 980 1000 basechar 0
AnchorPoint: "Anchor14" 1080 900 basechar 0
AnchorPoint: "Anchor10" 620 1540 basechar 0
AnchorPoint: "Anchor11" 1240 1540 basechar 0
AnchorPoint: "Anchor12" 620 -130 basechar 0
LayerCount: 2
Fore
SplineSet
844 0 m 1,0,-1
 844 607 l 2,1,2
 844 892 844 892 651 892 c 0,3,4
 549 892 549 892 486.5 804.5 c 128,-1,5
 424 717 424 717 424 580 c 2,6,-1
 424 0 l 1,7,-1
 143 0 l 1,8,-1
 143 840 l 2,9,10
 143 927 143 927 140.5 982.5 c 128,-1,11
 138 1038 138 1038 135 1082 c 1,12,-1
 403 1082 l 1,13,14
 406 1063 406 1063 411 980.5 c 128,-1,15
 416 898 416 898 416 867 c 1,16,-1
 420 867 l 1,17,18
 477 991 477 991 563 1047 c 128,-1,19
 649 1103 649 1103 768 1103 c 0,20,21
 940 1103 940 1103 1032 997 c 128,-1,22
 1124 891 1124 891 1124 687 c 2,23,-1
 1124 0 l 1,24,-1
 844 0 l 1,0,-1
EndSplineSet
Validated: 1
EndChar

StartChar: o
Encoding: 111 111 82
Width: 1251
GlyphClass: 2
Flags: W
AnchorPoint: "Anchor21" 680 0 basechar 0
AnchorPoint: "Anchor20" 630 0 basechar 0
AnchorPoint: "Anchor18" 1479 1840 basechar 0
AnchorPoint: "Anchor19" 0 1840 basechar 0
AnchorPoint: "Anchor16" 1251 1240 basechar 0
AnchorPoint: "Anchor17" 1251 -90 basechar 0
AnchorPoint: "Anchor15" 980 1000 basechar 0
AnchorPoint: "Anchor14" 1120 900 basechar 0
AnchorPoint: "Anchor10" 630 1200 basechar 0
AnchorPoint: "Anchor11" 1120 1200 basechar 0
AnchorPoint: "Anchor12" 630 -130 basechar 0
LayerCount: 2
Fore
SplineSet
1171 542 m 0,0,1
 1171 279 1171 279 1025 129.5 c 128,-1,2
 879 -20 879 -20 621 -20 c 0,3,4
 368 -20 368 -20 224 130 c 128,-1,5
 80 280 80 280 80 542 c 0,6,7
 80 803 80 803 224 952.5 c 128,-1,8
 368 1102 368 1102 627 1102 c 0,9,10
 892 1102 892 1102 1031.5 957.5 c 128,-1,11
 1171 813 1171 813 1171 542 c 0,0,1
877 542 m 0,12,13
 877 735 877 735 814 822 c 128,-1,14
 751 909 751 909 631 909 c 0,15,16
 375 909 375 909 375 542 c 0,17,18
 375 361 375 361 437.5 266.5 c 128,-1,19
 500 172 500 172 618 172 c 0,20,21
 877 172 877 172 877 542 c 0,12,13
EndSplineSet
Validated: 1
EndChar

StartChar: p
Encoding: 112 112 83
Width: 1251
GlyphClass: 2
Flags: W
AnchorPoint: "Anchor21" 200 -400 basechar 0
AnchorPoint: "Anchor18" 1479 1840 basechar 0
AnchorPoint: "Anchor19" 0 1840 basechar 0
AnchorPoint: "Anchor16" 1251 1230 basechar 0
AnchorPoint: "Anchor17" 1251 -380 basechar 0
AnchorPoint: "Anchor15" 980 1000 basechar 0
AnchorPoint: "Anchor14" 1120 900 basechar 0
AnchorPoint: "Anchor10" 680 1200 basechar 0
AnchorPoint: "Anchor11" 1120 1200 basechar 0
AnchorPoint: "Anchor12" 680 -540 basechar 0
LayerCount: 2
Fore
SplineSet
1167 546 m 0,0,1
 1167 275 1167 275 1058.5 127.5 c 128,-1,2
 950 -20 950 -20 752 -20 c 0,3,4
 638 -20 638 -20 553.5 29.5 c 128,-1,5
 469 79 469 79 424 172 c 1,6,-1
 418 172 l 1,7,8
 424 142 424 142 424 -10 c 2,9,-1
 424 -425 l 1,10,-1
 143 -425 l 1,11,-1
 143 833 l 2,12,13
 143 986 143 986 135 1082 c 1,14,-1
 408 1082 l 1,15,16
 413 1064 413 1064 416.5 1011 c 128,-1,17
 420 958 420 958 420 906 c 1,18,-1
 424 906 l 1,19,20
 519 1105 519 1105 770 1105 c 0,21,22
 959 1105 959 1105 1063 959.5 c 128,-1,23
 1167 814 1167 814 1167 546 c 0,0,1
874 546 m 0,24,25
 874 910 874 910 651 910 c 0,26,27
 539 910 539 910 479.5 812 c 128,-1,28
 420 714 420 714 420 538 c 0,29,30
 420 363 420 363 479.5 267.5 c 128,-1,31
 539 172 539 172 649 172 c 0,32,33
 874 172 874 172 874 546 c 0,24,25
EndSplineSet
Validated: 1
EndChar

StartChar: q
Encoding: 113 113 84
Width: 1251
GlyphClass: 2
Flags: W
AnchorPoint: "Anchor21" 900 -400 basechar 0
AnchorPoint: "Anchor18" 1479 1840 basechar 0
AnchorPoint: "Anchor19" 0 1840 basechar 0
AnchorPoint: "Anchor16" 1251 1220 basechar 0
AnchorPoint: "Anchor17" 1251 -380 basechar 0
AnchorPoint: "Anchor15" 1080 1000 basechar 0
AnchorPoint: "Anchor14" 1080 1100 basechar 0
AnchorPoint: "Anchor10" 560 1200 basechar 0
AnchorPoint: "Anchor11" 1120 1200 basechar 0
AnchorPoint: "Anchor12" 560 -540 basechar 0
LayerCount: 2
Fore
SplineSet
84 540 m 0,0,1
 84 808 84 808 193.5 955.5 c 128,-1,2
 303 1103 303 1103 502 1103 c 0,3,4
 738 1103 738 1103 829 908 c 1,5,6
 829 954 829 954 834.5 1010.5 c 128,-1,7
 840 1067 840 1067 844 1082 c 1,8,-1
 1114 1082 l 1,9,10
 1108 974 1108 974 1108 833 c 2,11,-1
 1108 -425 l 1,12,-1
 829 -425 l 1,13,-1
 829 25 l 1,14,-1
 834 180 l 1,15,-1
 832 180 l 1,16,17
 739 -20 739 -20 479 -20 c 0,18,19
 290 -20 290 -20 187 127.5 c 128,-1,20
 84 275 84 275 84 540 c 0,0,1
831 546 m 0,21,22
 831 719 831 719 773 814.5 c 128,-1,23
 715 910 715 910 602 910 c 0,24,25
 377 910 377 910 377 540 c 0,26,27
 377 172 377 172 600 172 c 0,28,29
 710 172 710 172 770.5 269.5 c 128,-1,30
 831 367 831 367 831 546 c 0,21,22
EndSplineSet
Validated: 1
EndChar

StartChar: r
Encoding: 114 114 85
Width: 797
GlyphClass: 2
Flags: W
AnchorPoint: "Anchor21" 200 0 basechar 0
AnchorPoint: "Anchor20" 280 0 basechar 0
AnchorPoint: "Anchor18" 1479 1840 basechar 0
AnchorPoint: "Anchor19" 0 1840 basechar 0
AnchorPoint: "Anchor16" 797 1520 basechar 0
AnchorPoint: "Anchor17" 797 -100 basechar 0
AnchorPoint: "Anchor15" 727 1000 basechar 0
AnchorPoint: "Anchor14" 760 1100 basechar 0
AnchorPoint: "Anchor10" 280 1540 basechar 0
AnchorPoint: "Anchor11" 440 1540 basechar 0
AnchorPoint: "Anchor12" 280 -130 basechar 0
LayerCount: 2
Fore
SplineSet
143 0 m 1,0,-1
 143 828 l 2,1,2
 143 917 143 917 140.5 976.5 c 128,-1,3
 138 1036 138 1036 135 1082 c 1,4,-1
 403 1082 l 1,5,6
 406 1064 406 1064 411 972.5 c 128,-1,7
 416 881 416 881 416 851 c 1,8,-1
 420 851 l 1,9,10
 461 965 461 965 493 1011.5 c 128,-1,11
 525 1058 525 1058 569 1080.5 c 128,-1,12
 613 1103 613 1103 679 1103 c 0,13,14
 733 1103 733 1103 766 1088 c 1,15,-1
 766 853 l 1,16,17
 698 868 698 868 646 868 c 0,18,19
 541 868 541 868 482.5 783 c 128,-1,20
 424 698 424 698 424 531 c 2,21,-1
 424 0 l 1,22,-1
 143 0 l 1,0,-1
EndSplineSet
Validated: 1
EndChar

StartChar: s
Encoding: 115 115 86
Width: 1139
GlyphClass: 2
Flags: W
AnchorPoint: "Anchor21" 550 0 basechar 0
AnchorPoint: "Anchor20" 580 0 basechar 0
AnchorPoint: "Anchor18" 1479 1840 basechar 0
AnchorPoint: "Anchor19" 0 1840 basechar 0
AnchorPoint: "Anchor16" 1139 1220 basechar 0
AnchorPoint: "Anchor17" 1139 -110 basechar 0
AnchorPoint: "Anchor15" 900 1000 basechar 0
AnchorPoint: "Anchor14" 960 1020 basechar 0
AnchorPoint: "Anchor10" 580 1540 basechar 0
AnchorPoint: "Anchor11" 1120 1540 basechar 0
AnchorPoint: "Anchor12" 580 -130 basechar 0
LayerCount: 2
Fore
SplineSet
1055 316 m 0,0,1
 1055 159 1055 159 926.5 69.5 c 128,-1,2
 798 -20 798 -20 571 -20 c 0,3,4
 348 -20 348 -20 229.5 50.5 c 128,-1,5
 111 121 111 121 72 270 c 1,6,-1
 319 307 l 1,7,8
 340 230 340 230 391.5 198 c 128,-1,9
 443 166 443 166 571 166 c 0,10,11
 689 166 689 166 743 196 c 128,-1,12
 797 226 797 226 797 290 c 0,13,14
 797 342 797 342 753.5 372.5 c 128,-1,15
 710 403 710 403 606 424 c 0,16,17
 368 471 368 471 285 511.5 c 128,-1,18
 202 552 202 552 158.5 616.5 c 128,-1,19
 115 681 115 681 115 775 c 0,20,21
 115 930 115 930 234.5 1016.5 c 128,-1,22
 354 1103 354 1103 573 1103 c 0,23,24
 766 1103 766 1103 883.5 1028 c 128,-1,25
 1001 953 1001 953 1030 811 c 1,26,-1
 781 785 l 1,27,28
 769 851 769 851 722 883.5 c 128,-1,29
 675 916 675 916 573 916 c 0,30,31
 473 916 473 916 423 890.5 c 128,-1,32
 373 865 373 865 373 805 c 0,33,34
 373 758 373 758 411.5 730.5 c 128,-1,35
 450 703 450 703 541 685 c 0,36,37
 668 659 668 659 766.5 631.5 c 128,-1,38
 865 604 865 604 924.5 566 c 128,-1,39
 984 528 984 528 1019.5 468.5 c 128,-1,40
 1055 409 1055 409 1055 316 c 0,0,1
EndSplineSet
Validated: 1
EndChar

StartChar: t
Encoding: 116 116 87
Width: 682
GlyphClass: 2
Flags: W
AnchorPoint: "Anchor21" 380 0 basechar 0
AnchorPoint: "Anchor20" 420 0 basechar 0
AnchorPoint: "Anchor18" 1479 1840 basechar 0
AnchorPoint: "Anchor19" 0 1840 basechar 0
AnchorPoint: "Anchor16" 682 1540 basechar 0
AnchorPoint: "Anchor17" 682 -110 basechar 0
AnchorPoint: "Anchor15" 380 1300 basechar 0
AnchorPoint: "Anchor14" 600 1100 basechar 0
AnchorPoint: "Anchor10" 340 1480 basechar 0
AnchorPoint: "Anchor11" 620 1480 basechar 0
AnchorPoint: "Anchor12" 420 -130 basechar 0
LayerCount: 2
Fore
SplineSet
420 -18 m 0,0,1
 296 -18 296 -18 229 49.5 c 128,-1,2
 162 117 162 117 162 254 c 2,3,-1
 162 892 l 1,4,-1
 25 892 l 1,5,-1
 25 1082 l 1,6,-1
 176 1082 l 1,7,-1
 264 1336 l 1,8,-1
 440 1336 l 1,9,-1
 440 1082 l 1,10,-1
 645 1082 l 1,11,-1
 645 892 l 1,12,-1
 440 892 l 1,13,-1
 440 330 l 2,14,15
 440 251 440 251 470 213.5 c 128,-1,16
 500 176 500 176 563 176 c 0,17,18
 596 176 596 176 657 190 c 1,19,-1
 657 16 l 1,20,21
 553 -18 553 -18 420 -18 c 0,0,1
EndSplineSet
Validated: 1
EndChar

StartChar: u
Encoding: 117 117 88
Width: 1251
GlyphClass: 2
Flags: W
AnchorPoint: "Anchor21" 920 0 basechar 0
AnchorPoint: "Anchor20" 580 0 basechar 0
AnchorPoint: "Anchor18" 1479 1840 basechar 0
AnchorPoint: "Anchor19" 0 1840 basechar 0
AnchorPoint: "Anchor16" 1251 1210 basechar 0
AnchorPoint: "Anchor17" 1251 -120 basechar 0
AnchorPoint: "Anchor15" 1080 1000 basechar 0
AnchorPoint: "Anchor14" 1080 1100 basechar 0
AnchorPoint: "Anchor10" 620 1540 basechar 0
AnchorPoint: "Anchor11" 1240 1540 basechar 0
AnchorPoint: "Anchor12" 620 -130 basechar 0
LayerCount: 2
Fore
SplineSet
408 1082 m 1,0,-1
 408 475 l 2,1,2
 408 190 408 190 600 190 c 0,3,4
 702 190 702 190 764.5 277.5 c 128,-1,5
 827 365 827 365 827 502 c 2,6,-1
 827 1082 l 1,7,-1
 1108 1082 l 1,8,-1
 1108 242 l 2,9,10
 1108 104 1108 104 1116 0 c 1,11,-1
 848 0 l 1,12,13
 836 144 836 144 836 215 c 1,14,-1
 831 215 l 1,15,16
 775 92 775 92 688.5 36 c 128,-1,17
 602 -20 602 -20 483 -20 c 0,18,19
 311 -20 311 -20 219 85.5 c 128,-1,20
 127 191 127 191 127 395 c 2,21,-1
 127 1082 l 1,22,-1
 408 1082 l 1,0,-1
EndSplineSet
Validated: 1
EndChar

StartChar: v
Encoding: 118 118 89
Width: 1139
GlyphClass: 2
Flags: W
AnchorPoint: "Anchor21" 440 0 basechar 0
AnchorPoint: "Anchor18" 1479 1840 basechar 0
AnchorPoint: "Anchor19" 0 1840 basechar 0
AnchorPoint: "Anchor16" 1139 1200 basechar 0
AnchorPoint: "Anchor17" 1139 -100 basechar 0
AnchorPoint: "Anchor15" 980 1000 basechar 0
AnchorPoint: "Anchor14" 1020 1100 basechar 0
AnchorPoint: "Anchor10" 560 1200 basechar 0
AnchorPoint: "Anchor11" 1000 1200 basechar 0
AnchorPoint: "Anchor12" 560 -130 basechar 0
LayerCount: 2
Fore
SplineSet
731 0 m 1,0,-1
 395 0 l 1,1,-1
 8 1082 l 1,2,-1
 305 1082 l 1,3,-1
 494 477 l 2,4,5
 509 427 509 427 565 227 c 1,6,7
 575 268 575 268 606 371 c 128,-1,8
 637 474 637 474 836 1082 c 1,9,-1
 1130 1082 l 1,10,-1
 731 0 l 1,0,-1
EndSplineSet
Validated: 1
EndChar

StartChar: w
Encoding: 119 119 90
Width: 1593
GlyphClass: 2
Flags: W
AnchorPoint: "Anchor21" 1100 0 basechar 0
AnchorPoint: "Anchor18" 1479 1840 basechar 0
AnchorPoint: "Anchor19" 0 1840 basechar 0
AnchorPoint: "Anchor16" 1593 1200 basechar 0
AnchorPoint: "Anchor17" 1593 -90 basechar 0
AnchorPoint: "Anchor15" 1500 1000 basechar 0
AnchorPoint: "Anchor14" 1520 1100 basechar 0
AnchorPoint: "Anchor10" 800 1540 basechar 0
AnchorPoint: "Anchor11" 1330 1540 basechar 0
AnchorPoint: "Anchor12" 800 -130 basechar 0
LayerCount: 2
Fore
SplineSet
1313 0 m 1,0,-1
 1016 0 l 1,1,-1
 844 660 l 2,2,3
 832 705 832 705 797 882 c 1,4,-1
 745 658 l 1,5,-1
 571 0 l 1,6,-1
 274 0 l 1,7,-1
 -6 1082 l 1,8,-1
 258 1082 l 1,9,-1
 436 255 l 1,10,-1
 450 329 l 1,11,-1
 475 446 l 1,12,-1
 645 1082 l 1,13,-1
 946 1082 l 1,14,-1
 1112 446 l 2,15,16
 1126 394 1126 394 1153 255 c 1,17,-1
 1181 387 l 1,18,-1
 1337 1082 l 1,19,-1
 1597 1082 l 1,20,-1
 1313 0 l 1,0,-1
EndSplineSet
Validated: 1
EndChar

StartChar: x
Encoding: 120 120 91
Width: 1139
GlyphClass: 2
Flags: W
AnchorPoint: "Anchor21" 900 0 basechar 0
AnchorPoint: "Anchor18" 1479 1840 basechar 0
AnchorPoint: "Anchor19" 0 1840 basechar 0
AnchorPoint: "Anchor16" 1139 1180 basechar 0
AnchorPoint: "Anchor17" 1139 -100 basechar 0
AnchorPoint: "Anchor15" 900 1000 basechar 0
AnchorPoint: "Anchor14" 940 1100 basechar 0
AnchorPoint: "Anchor10" 560 1200 basechar 0
AnchorPoint: "Anchor11" 1000 1200 basechar 0
AnchorPoint: "Anchor12" 560 -130 basechar 0
LayerCount: 2
Fore
SplineSet
819 0 m 1,0,-1
 567 392 l 1,1,-1
 313 0 l 1,2,-1
 14 0 l 1,3,-1
 410 559 l 1,4,-1
 33 1082 l 1,5,-1
 336 1082 l 1,6,-1
 567 728 l 1,7,-1
 797 1082 l 1,8,-1
 1102 1082 l 1,9,-1
 725 562 l 1,10,-1
 1124 0 l 1,11,-1
 819 0 l 1,0,-1
EndSplineSet
Validated: 1
EndChar

StartChar: y
Encoding: 121 121 92
Width: 1139
GlyphClass: 2
Flags: W
AnchorPoint: "Anchor21" 280 -400 basechar 0
AnchorPoint: "Anchor18" 1479 1840 basechar 0
AnchorPoint: "Anchor19" 0 1840 basechar 0
AnchorPoint: "Anchor16" 1139 1210 basechar 0
AnchorPoint: "Anchor17" 1139 -380 basechar 0
AnchorPoint: "Anchor15" 980 1000 basechar 0
AnchorPoint: "Anchor14" 1020 1100 basechar 0
AnchorPoint: "Anchor10" 560 1200 basechar 0
AnchorPoint: "Anchor11" 1120 1200 basechar 0
AnchorPoint: "Anchor12" 460 -540 basechar 0
LayerCount: 2
Fore
SplineSet
283 -425 m 0,0,1
 182 -425 182 -425 106 -412 c 1,2,-1
 106 -212 l 1,3,4
 159 -220 159 -220 203 -220 c 0,5,6
 263 -220 263 -220 302.5 -201 c 128,-1,7
 342 -182 342 -182 373.5 -138 c 128,-1,8
 405 -94 405 -94 444 11 c 1,9,-1
 16 1082 l 1,10,-1
 313 1082 l 1,11,-1
 483 575 l 1,12,13
 523 466 523 466 584 241 c 1,14,-1
 609 336 l 1,15,-1
 674 571 l 1,16,-1
 834 1082 l 1,17,-1
 1128 1082 l 1,18,-1
 700 -57 l 1,19,20
 614 -265 614 -265 521.5 -345 c 128,-1,21
 429 -425 429 -425 283 -425 c 0,0,1
EndSplineSet
Validated: 1
EndChar

StartChar: z
Encoding: 122 122 93
Width: 1024
GlyphClass: 2
Flags: W
AnchorPoint: "Anchor21" 740 0 basechar 0
AnchorPoint: "Anchor18" 1479 1840 basechar 0
AnchorPoint: "Anchor19" 0 1840 basechar 0
AnchorPoint: "Anchor16" 1024 1210 basechar 0
AnchorPoint: "Anchor17" 1024 -110 basechar 0
AnchorPoint: "Anchor15" 870 1000 basechar 0
AnchorPoint: "Anchor14" 880 1100 basechar 0
AnchorPoint: "Anchor10" 500 1200 basechar 0
AnchorPoint: "Anchor11" 900 1200 basechar 0
AnchorPoint: "Anchor12" 500 -130 basechar 0
LayerCount: 2
Fore
SplineSet
82 0 m 1,0,-1
 82 199 l 1,1,-1
 591 879 l 1,2,-1
 123 879 l 1,3,-1
 123 1082 l 1,4,-1
 901 1082 l 1,5,-1
 901 881 l 1,6,-1
 395 205 l 1,7,-1
 950 205 l 1,8,-1
 950 0 l 1,9,-1
 82 0 l 1,0,-1
EndSplineSet
Validated: 1
EndChar

StartChar: braceleft
Encoding: 123 123 94
Width: 797
GlyphClass: 2
Flags: W
LayerCount: 2
Fore
SplineSet
557 -425 m 2,0,1
 423 -425 423 -425 342.5 -346.5 c 128,-1,2
 262 -268 262 -268 262 -126 c 2,3,-1
 262 202 l 2,4,5
 262 316 262 316 207 372.5 c 128,-1,6
 152 429 152 429 33 431 c 1,7,-1
 33 626 l 1,8,9
 154 631 154 631 208 687.5 c 128,-1,10
 262 744 262 744 262 857 c 2,11,-1
 262 1185 l 2,12,13
 262 1331 262 1331 340.5 1407.5 c 128,-1,14
 419 1484 419 1484 557 1484 c 2,15,-1
 754 1484 l 1,16,-1
 754 1294 l 1,17,-1
 696 1294 l 2,18,19
 605 1294 605 1294 564.5 1242 c 128,-1,20
 524 1190 524 1190 524 1085 c 2,21,-1
 524 784 l 2,22,23
 524 689 524 689 466.5 620 c 128,-1,24
 409 551 409 551 317 532 c 1,25,-1
 317 528 l 1,26,27
 412 506 412 506 468 437.5 c 128,-1,28
 524 369 524 369 524 276 c 2,29,-1
 524 -25 l 2,30,31
 524 -131 524 -131 564.5 -182.5 c 128,-1,32
 605 -234 605 -234 696 -234 c 2,33,-1
 754 -234 l 1,34,-1
 754 -425 l 1,35,-1
 557 -425 l 2,0,1
EndSplineSet
Validated: 1
EndChar

StartChar: bar
Encoding: 124 124 95
Width: 573
GlyphClass: 2
Flags: W
LayerCount: 2
Fore
SplineSet
156 -455 m 1,0,-1
 156 1484 l 1,1,-1
 418 1484 l 1,2,-1
 418 -455 l 1,3,-1
 156 -455 l 1,0,-1
EndSplineSet
Validated: 1
EndChar

StartChar: braceright
Encoding: 125 125 96
Width: 797
GlyphClass: 2
Flags: W
LayerCount: 2
Fore
SplineSet
43 -234 m 1,0,-1
 100 -234 l 2,1,2
 193 -234 193 -234 232.5 -182.5 c 128,-1,3
 272 -131 272 -131 272 -25 c 2,4,-1
 272 276 l 2,5,6
 272 368 272 368 328.5 437 c 128,-1,7
 385 506 385 506 479 528 c 1,8,-1
 479 532 l 1,9,10
 388 551 388 551 330 619.5 c 128,-1,11
 272 688 272 688 272 784 c 2,12,-1
 272 1085 l 2,13,14
 272 1190 272 1190 232.5 1242 c 128,-1,15
 193 1294 193 1294 100 1294 c 2,16,-1
 43 1294 l 1,17,-1
 43 1484 l 1,18,-1
 240 1484 l 2,19,20
 378 1484 378 1484 456.5 1407.5 c 128,-1,21
 535 1331 535 1331 535 1185 c 2,22,-1
 535 857 l 2,23,24
 535 745 535 745 590 688 c 128,-1,25
 645 631 645 631 766 626 c 1,26,-1
 766 431 l 1,27,28
 645 429 645 429 590 371 c 128,-1,29
 535 313 535 313 535 202 c 2,30,-1
 535 -126 l 2,31,32
 535 -267 535 -267 455 -346 c 128,-1,33
 375 -425 375 -425 240 -425 c 2,34,-1
 43 -425 l 1,35,-1
 43 -234 l 1,0,-1
EndSplineSet
Validated: 1
EndChar

StartChar: asciitilde
Encoding: 126 126 97
Width: 1196
GlyphClass: 2
Flags: W
LayerCount: 2
Fore
SplineSet
852 516 m 0,0,1
 777 516 777 516 704.5 537 c 128,-1,2
 632 558 632 558 557 584 c 0,3,4
 422 631 422 631 336 631 c 0,5,6
 265 631 265 631 205.5 609.5 c 128,-1,7
 146 588 146 588 81 543 c 1,8,-1
 81 756 l 1,9,10
 194 840 194 840 352 840 c 0,11,12
 457 840 457 840 594 793 c 0,13,14
 726 747 726 747 776 735 c 128,-1,15
 826 723 826 723 871 723 c 0,16,17
 1005 723 1005 723 1119 815 c 1,18,-1
 1119 596 l 1,19,20
 1055 552 1055 552 996.5 534 c 128,-1,21
 938 516 938 516 852 516 c 0,0,1
EndSplineSet
Validated: 1
EndChar

StartChar: dagger
Encoding: 8224 8224 130
Width: 1139
GlyphClass: 2
Flags: W
LayerCount: 2
Fore
SplineSet
669 960 m 1,0,-1
 647 -138 l 1,1,-1
 492 -138 l 1,2,-1
 470 960 l 1,3,-1
 138 933 l 1,4,-1
 138 1137 l 1,5,-1
 470 1108 l 1,6,-1
 442 1484 l 1,7,-1
 697 1484 l 1,8,-1
 669 1108 l 1,9,-1
 1002 1137 l 1,10,-1
 1002 933 l 1,11,-1
 669 960 l 1,0,-1
EndSplineSet
Validated: 1
EndChar

StartChar: degree
Encoding: 176 176 131
Width: 819
GlyphClass: 2
Flags: W
LayerCount: 2
Fore
SplineSet
731 1110 m 256,0,1
 731 980 731 980 637.5 887.5 c 128,-1,2
 544 795 544 795 410 795 c 0,3,4
 278 795 278 795 184 886 c 128,-1,5
 90 977 90 977 90 1110 c 0,6,7
 90 1196 90 1196 132.5 1269 c 128,-1,8
 175 1342 175 1342 248.5 1383.5 c 128,-1,9
 322 1425 322 1425 410 1425 c 0,10,11
 545 1425 545 1425 638 1332.5 c 128,-1,12
 731 1240 731 1240 731 1110 c 256,0,1
573 1110 m 256,13,14
 573 1180 573 1180 526.5 1228 c 128,-1,15
 480 1276 480 1276 410 1276 c 0,16,17
 339 1276 339 1276 291.5 1227.5 c 128,-1,18
 244 1179 244 1179 244 1110 c 256,19,20
 244 1041 244 1041 293 991.5 c 128,-1,21
 342 942 342 942 410 942 c 0,22,23
 477 942 477 942 525 991 c 128,-1,24
 573 1040 573 1040 573 1110 c 256,13,14
EndSplineSet
Validated: 1
EndChar

StartChar: cent
Encoding: 162 162 132
Width: 1139
GlyphClass: 2
Flags: W
LayerCount: 2
Fore
SplineSet
588 340 m 0,0,1
 676 340 676 340 735.5 394.5 c 128,-1,2
 795 449 795 449 809 549 c 1,3,-1
 1092 537 l 1,4,5
 1070 384 1070 384 958 282.5 c 128,-1,6
 846 181 846 181 668 160 c 1,7,-1
 668 -31 l 1,8,-1
 506 -31 l 1,9,-1
 506 158 l 1,10,11
 291 179 291 179 171 315 c 128,-1,12
 51 451 51 451 51 686 c 0,13,14
 51 918 51 918 168.5 1059 c 128,-1,15
 286 1200 286 1200 506 1225 c 1,16,-1
 506 1409 l 1,17,-1
 668 1409 l 1,18,-1
 668 1225 l 1,19,20
 837 1206 837 1206 946 1112.5 c 128,-1,21
 1055 1019 1055 1019 1083 868 c 1,22,-1
 801 854 l 1,23,24
 786 945 786 945 730 994.5 c 128,-1,25
 674 1044 674 1044 586 1044 c 0,26,27
 462 1044 462 1044 398 952 c 128,-1,28
 334 860 334 860 334 696 c 0,29,30
 334 522 334 522 400.5 431 c 128,-1,31
 467 340 467 340 588 340 c 0,0,1
EndSplineSet
Validated: 1
EndChar

StartChar: sterling
Encoding: 163 163 133
Width: 1139
GlyphClass: 2
Flags: W
LayerCount: 2
Fore
SplineSet
1118 363 m 1,0,1
 1087 191 1087 191 982 95.5 c 128,-1,2
 877 0 877 0 726 0 c 2,3,-1
 32 0 l 1,4,-1
 32 205 l 1,5,6
 134 263 134 263 171.5 335 c 128,-1,7
 209 407 209 407 209 512 c 2,8,-1
 209 604 l 1,9,-1
 21 604 l 1,10,-1
 21 774 l 1,11,-1
 199 774 l 1,12,-1
 199 1022 l 2,13,14
 199 1223 199 1223 306 1326.5 c 128,-1,15
 413 1430 413 1430 625 1430 c 0,16,17
 794 1430 794 1430 891 1361 c 128,-1,18
 988 1292 988 1292 1032 1139 c 1,19,-1
 799 1092 l 1,20,21
 778 1169 778 1169 737 1204 c 128,-1,22
 696 1239 696 1239 630 1239 c 0,23,24
 539 1239 539 1239 499 1181.5 c 128,-1,25
 459 1124 459 1124 459 999 c 2,26,-1
 459 774 l 1,27,-1
 745 774 l 1,28,-1
 745 604 l 1,29,-1
 459 604 l 1,30,-1
 459 514 l 2,31,32
 459 411 459 411 418 338 c 128,-1,33
 377 265 377 265 277 209 c 1,34,-1
 657 209 l 2,35,36
 761 209 761 209 814.5 258.5 c 128,-1,37
 868 308 868 308 885 402 c 1,38,-1
 1118 363 l 1,0,1
EndSplineSet
Validated: 1
EndChar

StartChar: section
Encoding: 167 167 134
Width: 1139
GlyphClass: 2
Flags: W
LayerCount: 2
Fore
SplineSet
575 1427 m 0,0,1
 769 1427 769 1427 886.5 1356.5 c 128,-1,2
 1004 1286 1004 1286 1031 1153 c 1,3,-1
 792 1128 l 1,4,5
 779 1190 779 1190 722 1223.5 c 128,-1,6
 665 1257 665 1257 575 1257 c 0,7,8
 463 1257 463 1257 410.5 1227.5 c 128,-1,9
 358 1198 358 1198 358 1133 c 0,10,11
 358 1092 358 1092 385 1063.5 c 128,-1,12
 412 1035 412 1035 461.5 1013.5 c 128,-1,13
 511 992 511 992 642 963 c 0,14,15
 810 925 810 925 890.5 884 c 128,-1,16
 971 843 971 843 1013.5 782 c 128,-1,17
 1056 721 1056 721 1056 634 c 0,18,19
 1056 541 1056 541 1001 469.5 c 128,-1,20
 946 398 946 398 859 371 c 1,21,22
 1040 292 1040 292 1040 115 c 0,23,24
 1040 -52 1040 -52 914.5 -140.5 c 128,-1,25
 789 -229 789 -229 556 -229 c 0,26,27
 333 -229 333 -229 212.5 -159.5 c 128,-1,28
 92 -90 92 -90 53 59 c 1,29,-1
 290 96 l 1,30,31
 310 16 310 16 371.5 -21.5 c 128,-1,32
 433 -59 433 -59 556 -59 c 0,33,34
 678 -59 678 -59 741 -26.5 c 128,-1,35
 804 6 804 6 804 86 c 0,36,37
 804 134 804 134 780 164 c 128,-1,38
 756 194 756 194 704.5 216.5 c 128,-1,39
 653 239 653 239 468 283 c 0,40,41
 262 332 262 332 176.5 410 c 128,-1,42
 91 488 91 488 91 600 c 0,43,44
 91 693 91 693 146 757 c 128,-1,45
 201 821 201 821 304 856 c 1,46,47
 214 894 214 894 165 962 c 128,-1,48
 116 1030 116 1030 116 1114 c 0,49,50
 116 1263 116 1263 233.5 1345 c 128,-1,51
 351 1427 351 1427 575 1427 c 0,0,1
818 600 m 0,52,53
 818 671 818 671 758.5 709 c 128,-1,54
 699 747 699 747 526 780 c 1,55,56
 333 757 333 757 333 627 c 0,57,58
 333 586 333 586 360 558.5 c 128,-1,59
 387 531 387 531 437 510 c 128,-1,60
 487 489 487 489 623 458 c 1,61,62
 818 468 818 468 818 600 c 0,52,53
EndSplineSet
Validated: 1
EndChar

StartChar: bullet
Encoding: 8226 8226 135
Width: 717
GlyphClass: 2
Flags: W
LayerCount: 2
Fore
SplineSet
651 676 m 0,0,1
 651 555 651 555 564 468 c 128,-1,2
 477 381 477 381 356 381 c 0,3,4
 237 381 237 381 151 467.5 c 128,-1,5
 65 554 65 554 65 676 c 256,6,7
 65 798 65 798 150.5 883.5 c 128,-1,8
 236 969 236 969 356 969 c 0,9,10
 478 969 478 969 564.5 883.5 c 128,-1,11
 651 798 651 798 651 676 c 0,0,1
EndSplineSet
Validated: 1
EndChar

StartChar: paragraph
Encoding: 182 182 136
Width: 1139
GlyphClass: 2
Flags: W
LayerCount: 2
Fore
SplineSet
940 1266 m 1,0,-1
 940 -264 l 1,1,-1
 784 -264 l 1,2,-1
 784 1266 l 1,3,-1
 589 1266 l 1,4,-1
 589 -264 l 1,5,-1
 434 -264 l 1,6,-1
 434 694 l 1,7,8
 265 694 265 694 168 786.5 c 128,-1,9
 71 879 71 879 71 1049 c 0,10,11
 71 1218 71 1218 169.5 1313.5 c 128,-1,12
 268 1409 268 1409 442 1409 c 2,13,-1
 1071 1409 l 1,14,-1
 1071 1266 l 1,15,-1
 940 1266 l 1,0,-1
EndSplineSet
Validated: 1
EndChar

StartChar: germandbls
Encoding: 223 223 137
Width: 1251
GlyphClass: 2
Flags: W
AnchorPoint: "Anchor21" 830 0 basechar 0
AnchorPoint: "Anchor18" 1479 1840 basechar 0
AnchorPoint: "Anchor19" 0 1840 basechar 0
AnchorPoint: "Anchor16" 1251 1540 basechar 0
AnchorPoint: "Anchor17" 1251 -380 basechar 0
AnchorPoint: "Anchor10" 600 1580 basechar 0
AnchorPoint: "Anchor11" 1200 1260 basechar 0
AnchorPoint: "Anchor12" 660 -130 basechar 0
LayerCount: 2
Fore
SplineSet
1193 312 m 0,0,1
 1193 150 1193 150 1092.5 65 c 128,-1,2
 992 -20 992 -20 806 -20 c 0,3,4
 660 -20 660 -20 544 23 c 1,5,-1
 544 229 l 1,6,7
 594 206 594 206 661.5 188 c 128,-1,8
 729 170 729 170 776 170 c 0,9,10
 857 170 857 170 894 204.5 c 128,-1,11
 931 239 931 239 931 296 c 0,12,13
 931 348 931 348 893 392.5 c 128,-1,14
 855 437 855 437 762 498 c 0,15,16
 593 607 593 607 593 760 c 0,17,18
 593 814 593 814 620.5 861 c 128,-1,19
 648 908 648 908 705 958 c 0,20,21
 766 1012 766 1012 791 1052.5 c 128,-1,22
 816 1093 816 1093 816 1138 c 0,23,24
 816 1203 816 1203 769.5 1242 c 128,-1,25
 723 1281 723 1281 635 1281 c 0,26,27
 532 1281 532 1281 478 1217.5 c 128,-1,28
 424 1154 424 1154 424 1013 c 2,29,-1
 424 0 l 1,30,-1
 143 0 l 1,31,-1
 143 1007 l 2,32,33
 143 1241 143 1241 270.5 1362.5 c 128,-1,34
 398 1484 398 1484 638 1484 c 0,35,36
 844 1484 844 1484 963 1394 c 128,-1,37
 1082 1304 1082 1304 1082 1149 c 0,38,39
 1082 1095 1082 1095 1065.5 1052.5 c 128,-1,40
 1049 1010 1049 1010 1024 976 c 128,-1,41
 999 942 999 942 969.5 915 c 128,-1,42
 940 888 940 888 915 865.5 c 128,-1,43
 890 843 890 843 873.5 822.5 c 128,-1,44
 857 802 857 802 857 782 c 0,45,46
 857 757 857 757 877.5 734.5 c 128,-1,47
 898 712 898 712 1025 618 c 0,48,49
 1193 493 1193 493 1193 312 c 0,0,1
EndSplineSet
Validated: 1
EndChar

StartChar: registered
Encoding: 174 174 138
Width: 1509
GlyphClass: 2
Flags: W
LayerCount: 2
Fore
SplineSet
1478 707 m 0,0,1
 1478 514 1478 514 1381.5 345.5 c 128,-1,2
 1285 177 1285 177 1116.5 80.5 c 128,-1,3
 948 -16 948 -16 755 -16 c 0,4,5
 558 -16 558 -16 388.5 84.5 c 128,-1,6
 219 185 219 185 125.5 351.5 c 128,-1,7
 32 518 32 518 32 707 c 0,8,9
 32 900 32 900 129 1068 c 128,-1,10
 226 1236 226 1236 394 1333 c 128,-1,11
 562 1430 562 1430 755 1430 c 0,12,13
 949 1430 949 1430 1117.5 1332.5 c 128,-1,14
 1286 1235 1286 1235 1382 1068 c 128,-1,15
 1478 901 1478 901 1478 707 c 0,0,1
1366 707 m 256,16,17
 1366 870 1366 870 1284 1010.5 c 128,-1,18
 1202 1151 1202 1151 1060 1233 c 128,-1,19
 918 1315 918 1315 755 1315 c 0,20,21
 598 1315 598 1315 458 1237 c 128,-1,22
 318 1159 318 1159 232.5 1017.5 c 128,-1,23
 147 876 147 876 147 707 c 0,24,25
 147 544 147 544 228.5 402 c 128,-1,26
 310 260 310 260 450.5 178 c 128,-1,27
 591 96 591 96 755 96 c 256,28,29
 919 96 919 96 1061 178 c 128,-1,30
 1203 260 1203 260 1284.5 402 c 128,-1,31
 1366 544 1366 544 1366 707 c 256,16,17
923 297 m 1,32,-1
 745 610 l 1,33,-1
 628 610 l 1,34,-1
 628 297 l 1,35,-1
 450 297 l 1,36,-1
 450 1112 l 1,37,-1
 780 1112 l 2,38,39
 933 1112 933 1112 1009 1047.5 c 128,-1,40
 1085 983 1085 983 1085 870 c 0,41,42
 1085 776 1085 776 1037 717 c 128,-1,43
 989 658 989 658 911 633 c 1,44,-1
 1124 297 l 1,45,-1
 923 297 l 1,32,-1
905 868 m 0,46,47
 905 925 905 925 867.5 955 c 128,-1,48
 830 985 830 985 761 985 c 2,49,-1
 628 985 l 1,50,-1
 628 739 l 1,51,-1
 772 739 l 2,52,53
 838 739 838 739 871.5 774.5 c 128,-1,54
 905 810 905 810 905 868 c 0,46,47
EndSplineSet
Validated: 1
EndChar

StartChar: copyright
Encoding: 169 169 139
Width: 1509
GlyphClass: 2
Flags: W
LayerCount: 2
Fore
SplineSet
1478 707 m 0,0,1
 1478 514 1478 514 1381.5 345.5 c 128,-1,2
 1285 177 1285 177 1116.5 80.5 c 128,-1,3
 948 -16 948 -16 755 -16 c 0,4,5
 558 -16 558 -16 388.5 84.5 c 128,-1,6
 219 185 219 185 125.5 351.5 c 128,-1,7
 32 518 32 518 32 707 c 0,8,9
 32 900 32 900 129 1068 c 128,-1,10
 226 1236 226 1236 394 1333 c 128,-1,11
 562 1430 562 1430 755 1430 c 0,12,13
 949 1430 949 1430 1117.5 1332.5 c 128,-1,14
 1286 1235 1286 1235 1382 1068 c 128,-1,15
 1478 901 1478 901 1478 707 c 0,0,1
1366 707 m 256,16,17
 1366 870 1366 870 1284 1010.5 c 128,-1,18
 1202 1151 1202 1151 1060 1233 c 128,-1,19
 918 1315 918 1315 755 1315 c 0,20,21
 598 1315 598 1315 458 1237 c 128,-1,22
 318 1159 318 1159 232.5 1017.5 c 128,-1,23
 147 876 147 876 147 707 c 0,24,25
 147 544 147 544 228.5 402 c 128,-1,26
 310 260 310 260 450.5 178 c 128,-1,27
 591 96 591 96 755 96 c 256,28,29
 919 96 919 96 1061 178 c 128,-1,30
 1203 260 1203 260 1284.5 402 c 128,-1,31
 1366 544 1366 544 1366 707 c 256,16,17
544 709 m 0,32,33
 544 574 544 574 603 500 c 128,-1,34
 662 426 662 426 768 426 c 0,35,36
 834 426 834 426 885 463 c 128,-1,37
 936 500 936 500 964 569 c 1,38,-1
 1124 522 l 1,39,40
 1066 397 1066 397 979 341 c 128,-1,41
 892 285 892 285 768 285 c 0,42,43
 575 285 575 285 469.5 396 c 128,-1,44
 364 507 364 507 364 709 c 0,45,46
 364 912 364 912 466 1018 c 128,-1,47
 568 1124 568 1124 759 1124 c 0,48,49
 889 1124 889 1124 976.5 1068 c 128,-1,50
 1064 1012 1064 1012 1112 895 c 1,51,-1
 956 854 l 1,52,53
 930 915 930 915 881.5 949 c 128,-1,54
 833 983 833 983 764 983 c 0,55,56
 655 983 655 983 599.5 913 c 128,-1,57
 544 843 544 843 544 709 c 0,32,33
EndSplineSet
Validated: 1
EndChar

StartChar: trademark
Encoding: 8482 8482 140
Width: 2048
GlyphClass: 2
Flags: W
LayerCount: 2
Fore
SplineSet
1059 768 m 1,0,-1
 893 768 l 1,1,-1
 893 1409 l 1,2,-1
 1141 1409 l 1,3,-1
 1280 1108 l 2,4,5
 1302 1059 1302 1059 1345 948 c 1,6,-1
 1409 1108 l 1,7,-1
 1553 1409 l 1,8,-1
 1796 1409 l 1,9,-1
 1796 768 l 1,10,-1
 1631 768 l 1,11,-1
 1631 1108 l 2,12,13
 1631 1124 1631 1124 1639 1280 c 1,14,-1
 1609 1205 l 1,15,-1
 1563 1096 l 1,16,-1
 1409 768 l 1,17,-1
 1278 768 l 1,18,-1
 1129 1096 l 1,19,-1
 1052 1280 l 1,20,21
 1059 1137 1059 1137 1059 1108 c 2,22,-1
 1059 768 l 1,0,-1
548 1270 m 1,23,-1
 548 768 l 1,24,-1
 368 768 l 1,25,-1
 368 1270 l 1,26,-1
 125 1270 l 1,27,-1
 125 1409 l 1,28,-1
 799 1409 l 1,29,-1
 799 1270 l 1,30,-1
 548 1270 l 1,23,-1
EndSplineSet
Validated: 1
EndChar

StartChar: acute
Encoding: 180 180 141
Width: 682
GlyphClass: 2
Flags: W
LayerCount: 2
Fore
SplineSet
87 1183 m 1,0,-1
 87 1214 l 1,1,-1
 339 1502 l 1,2,-1
 597 1502 l 1,3,-1
 597 1459 l 1,4,-1
 257 1183 l 1,5,-1
 87 1183 l 1,0,-1
EndSplineSet
Validated: 1
EndChar

StartChar: dieresis
Encoding: 168 168 142
Width: 682
GlyphClass: 2
Flags: W
LayerCount: 2
Fore
SplineSet
450 1199 m 1,0,-1
 450 1418 l 1,1,-1
 667 1418 l 1,2,-1
 667 1199 l 1,3,-1
 450 1199 l 1,0,-1
16 1199 m 1,4,-1
 16 1418 l 1,5,-1
 230 1418 l 1,6,-1
 230 1199 l 1,7,-1
 16 1199 l 1,4,-1
EndSplineSet
Validated: 1
EndChar

StartChar: notequal
Encoding: 8800 8800 143
Width: 1124
GlyphClass: 2
Flags: W
LayerCount: 2
Fore
SplineSet
461 291 m 1,0,-1
 332 37 l 1,1,-1
 119 37 l 1,2,-1
 248 291 l 1,3,-1
 29 291 l 1,4,-1
 29 512 l 1,5,-1
 356 512 l 1,6,-1
 522 842 l 1,7,-1
 29 842 l 1,8,-1
 29 1065 l 1,9,-1
 631 1065 l 1,10,-1
 764 1323 l 1,11,-1
 975 1323 l 1,12,-1
 844 1065 l 1,13,-1
 1096 1065 l 1,14,-1
 1096 842 l 1,15,-1
 735 842 l 1,16,-1
 569 512 l 1,17,-1
 1096 512 l 1,18,-1
 1096 291 l 1,19,-1
 461 291 l 1,0,-1
EndSplineSet
Validated: 1
EndChar

StartChar: AE
Encoding: 198 198 144
Width: 2048
GlyphClass: 2
Flags: W
AnchorPoint: "Anchor21" 1780 0 basechar 0
AnchorPoint: "Anchor18" 1479 1840 basechar 0
AnchorPoint: "Anchor19" 0 1840 basechar 0
AnchorPoint: "Anchor16" 2048 1840 basechar 0
AnchorPoint: "Anchor17" 2048 -380 basechar 0
AnchorPoint: "Anchor10" 1300 1540 basechar 0
AnchorPoint: "Anchor11" 1920 1540 basechar 0
AnchorPoint: "Anchor12" 1060 -130 basechar 0
LayerCount: 2
Fore
SplineSet
931 0 m 1,0,-1
 931 360 l 1,1,-1
 481 360 l 1,2,-1
 309 0 l 1,3,-1
 4 0 l 1,4,-1
 704 1409 l 1,5,-1
 1927 1409 l 1,6,-1
 1927 1182 l 1,7,-1
 1226 1182 l 1,8,-1
 1226 827 l 1,9,-1
 1865 827 l 1,10,-1
 1865 606 l 1,11,-1
 1226 606 l 1,12,-1
 1226 227 l 1,13,-1
 1968 227 l 1,14,-1
 1968 0 l 1,15,-1
 931 0 l 1,0,-1
931 1192 m 1,16,-1
 870 1192 l 1,17,18
 821 1081 821 1081 583 582 c 1,19,-1
 931 582 l 1,20,-1
 931 1192 l 1,16,-1
EndSplineSet
Validated: 1
EndChar

StartChar: Oslash
Encoding: 216 216 145
Width: 1593
GlyphClass: 2
Flags: W
AnchorPoint: "Anchor21" 920 0 basechar 0
AnchorPoint: "Anchor18" 1479 1840 basechar 0
AnchorPoint: "Anchor19" 0 1840 basechar 0
AnchorPoint: "Anchor16" 1593 1540 basechar 0
AnchorPoint: "Anchor17" 1593 -380 basechar 0
AnchorPoint: "Anchor10" 800 1540 basechar 0
AnchorPoint: "Anchor11" 1330 1540 basechar 0
AnchorPoint: "Anchor12" 800 -130 basechar 0
LayerCount: 2
Fore
SplineSet
147 -73 m 1,0,-1
 301 145 l 1,1,2
 84 342 84 342 84 711 c 0,3,4
 84 1050 84 1050 272 1240 c 128,-1,5
 460 1430 460 1430 795 1430 c 0,6,7
 993 1430 993 1430 1149 1356 c 1,8,-1
 1231 1473 l 1,9,-1
 1424 1473 l 1,10,-1
 1282 1270 l 1,11,12
 1394 1176 1394 1176 1451 1033.5 c 128,-1,13
 1508 891 1508 891 1508 711 c 0,14,15
 1508 491 1508 491 1421 324 c 128,-1,16
 1334 157 1334 157 1172.5 68.5 c 128,-1,17
 1011 -20 1011 -20 793 -20 c 0,18,19
 581 -20 581 -20 433 57 c 1,20,-1
 342 -72 l 1,21,-1
 147 -73 l 1,0,-1
1207 711 m 0,22,23
 1207 914 1207 914 1121 1038 c 1,24,-1
 580 266 l 1,25,26
 671 211 671 211 793 211 c 0,27,28
 992 211 992 211 1099.5 341.5 c 128,-1,29
 1207 472 1207 472 1207 711 c 0,22,23
381 711 m 0,30,31
 381 506 381 506 465 379 c 1,32,-1
 1004 1147 l 1,33,34
 912 1198 912 1198 795 1198 c 0,35,36
 597 1198 597 1198 489 1069.5 c 128,-1,37
 381 941 381 941 381 711 c 0,30,31
EndSplineSet
Validated: 1
EndChar

StartChar: infinity
Encoding: 8734 8734 146
Width: 1460
GlyphClass: 2
Flags: W
LayerCount: 2
Fore
SplineSet
1389 583 m 0,0,1
 1389 428 1389 428 1296 322 c 128,-1,2
 1203 216 1203 216 1066 216 c 0,3,4
 852 216 852 216 730 455 c 1,5,6
 599 226 599 226 397 226 c 0,7,8
 252 226 252 226 162 328.5 c 128,-1,9
 72 431 72 431 72 597 c 0,10,11
 72 756 72 756 164.5 860 c 128,-1,12
 257 964 257 964 397 964 c 0,13,14
 500 964 500 964 582.5 908.5 c 128,-1,15
 665 853 665 853 730 725 c 1,16,17
 857 955 857 955 1054 955 c 0,18,19
 1206 955 1206 955 1297.5 853.5 c 128,-1,20
 1389 752 1389 752 1389 583 c 0,0,1
1042 782 m 0,21,22
 922 782 922 782 828 585 c 1,23,24
 872 491 872 491 921.5 440 c 128,-1,25
 971 389 971 389 1041 389 c 0,26,27
 1110 389 1110 389 1154.5 444 c 128,-1,28
 1199 499 1199 499 1199 585 c 0,29,30
 1199 673 1199 673 1156 727.5 c 128,-1,31
 1113 782 1113 782 1042 782 c 0,21,22
631 595 m 1,32,33
 578 708 578 708 533 750.5 c 128,-1,34
 488 793 488 793 428 793 c 0,35,36
 357 793 357 793 309.5 737.5 c 128,-1,37
 262 682 262 682 262 595 c 0,38,39
 262 511 262 511 307 455.5 c 128,-1,40
 352 400 352 400 429 400 c 0,41,42
 488 400 488 400 536 447.5 c 128,-1,43
 584 495 584 495 631 595 c 1,32,33
EndSplineSet
Validated: 1
EndChar

StartChar: plusminus
Encoding: 177 177 147
Width: 1124
GlyphClass: 2
Flags: W
LayerCount: 2
Fore
SplineSet
674 707 m 1,0,-1
 674 366 l 1,1,-1
 450 366 l 1,2,-1
 450 707 l 1,3,-1
 49 707 l 1,4,-1
 49 930 l 1,5,-1
 450 930 l 1,6,-1
 450 1270 l 1,7,-1
 674 1270 l 1,8,-1
 674 930 l 1,9,-1
 1076 930 l 1,10,-1
 1076 707 l 1,11,-1
 674 707 l 1,0,-1
49 0 m 1,12,-1
 49 223 l 1,13,-1
 1076 223 l 1,14,-1
 1076 0 l 1,15,-1
 49 0 l 1,12,-1
EndSplineSet
Validated: 1
EndChar

StartChar: lessequal
Encoding: 8804 8804 148
Width: 1124
GlyphClass: 2
Flags: W
LayerCount: 2
Fore
SplineSet
49 631 m 1,0,-1
 49 952 l 1,1,-1
 1075 1298 l 1,2,-1
 1075 1071 l 1,3,-1
 243 791 l 1,4,-1
 1075 512 l 1,5,-1
 1075 285 l 1,6,-1
 49 631 l 1,0,-1
49 0 m 1,7,-1
 49 223 l 1,8,-1
 1073 223 l 1,9,-1
 1073 0 l 1,10,-1
 49 0 l 1,7,-1
EndSplineSet
Validated: 1
EndChar

StartChar: greaterequal
Encoding: 8805 8805 149
Width: 1124
GlyphClass: 2
Flags: W
LayerCount: 2
Fore
SplineSet
49 285 m 1,0,-1
 49 512 l 1,1,-1
 880 791 l 1,2,-1
 49 1071 l 1,3,-1
 49 1298 l 1,4,-1
 1075 952 l 1,5,-1
 1075 631 l 1,6,-1
 49 285 l 1,0,-1
49 0 m 1,7,-1
 49 223 l 1,8,-1
 1075 223 l 1,9,-1
 1075 0 l 1,10,-1
 49 0 l 1,7,-1
EndSplineSet
Validated: 1
EndChar

StartChar: yen
Encoding: 165 165 150
Width: 1139
GlyphClass: 2
Flags: W
LayerCount: 2
Fore
SplineSet
766 691 m 1,0,-1
 1042 691 l 1,1,-1
 1042 545 l 1,2,-1
 704 545 l 1,3,-1
 704 383 l 1,4,-1
 1042 383 l 1,5,-1
 1042 236 l 1,6,-1
 704 236 l 1,7,-1
 704 0 l 1,8,-1
 432 0 l 1,9,-1
 432 236 l 1,10,-1
 96 236 l 1,11,-1
 96 383 l 1,12,-1
 432 383 l 1,13,-1
 434 545 l 1,14,-1
 96 545 l 1,15,-1
 96 691 l 1,16,-1
 372 691 l 1,17,-1
 8 1409 l 1,18,-1
 297 1409 l 1,19,-1
 567 813 l 1,20,-1
 841 1409 l 1,21,-1
 1130 1409 l 1,22,-1
 766 691 l 1,0,-1
EndSplineSet
Validated: 1
EndChar

StartChar: mu
Encoding: 181 181 151
Width: 1180
GlyphClass: 2
Flags: W
LayerCount: 2
Fore
SplineSet
789 0 m 1,0,1
 776 100 776 100 776 144 c 1,2,-1
 773 144 l 1,3,4
 740 58 740 58 695 19 c 128,-1,5
 650 -20 650 -20 571 -20 c 0,6,7
 519 -20 519 -20 478.5 4 c 128,-1,8
 438 28 438 28 415 70 c 1,9,-1
 411 70 l 1,10,11
 415 27 415 27 415 -45 c 2,12,-1
 415 -426 l 1,13,-1
 134 -426 l 1,14,-1
 134 1082 l 1,15,-1
 415 1082 l 1,16,-1
 415 477 l 2,17,18
 415 327 415 327 457.5 260 c 128,-1,19
 500 193 500 193 590 193 c 0,20,21
 679 193 679 193 723.5 269 c 128,-1,22
 768 345 768 345 768 504 c 2,23,-1
 768 1082 l 1,24,-1
 1049 1082 l 1,25,-1
 1049 242 l 2,26,27
 1049 112 1049 112 1057 0 c 1,28,-1
 789 0 l 1,0,1
EndSplineSet
Validated: 1
EndChar

StartChar: partialdiff
Encoding: 8706 8706 152
Width: 1012
GlyphClass: 2
Flags: W
LayerCount: 2
Fore
SplineSet
945 907 m 0,0,1
 945 707 945 707 905.5 527 c 128,-1,2
 866 347 866 347 794.5 224 c 128,-1,3
 723 101 723 101 622 38 c 128,-1,4
 521 -25 521 -25 393 -25 c 0,5,6
 230 -25 230 -25 141.5 77 c 128,-1,7
 53 179 53 179 53 371 c 0,8,9
 53 533 53 533 112.5 682.5 c 128,-1,10
 172 832 172 832 267.5 907.5 c 128,-1,11
 363 983 363 983 484 983 c 0,12,13
 560 983 560 983 621 940 c 128,-1,14
 682 897 682 897 713 821 c 1,15,-1
 717 821 l 1,16,17
 718 885 718 885 718 911 c 0,18,19
 718 1084 718 1084 665 1179 c 128,-1,20
 612 1274 612 1274 501 1274 c 0,21,22
 448 1274 448 1274 388.5 1254 c 128,-1,23
 329 1234 329 1234 292 1206 c 1,24,-1
 337 1411 l 1,25,26
 434 1468 434 1468 549 1468 c 0,27,28
 737 1468 737 1468 841 1323.5 c 128,-1,29
 945 1179 945 1179 945 907 c 0,0,1
685 645 m 1,30,31
 670 720 670 720 627 766.5 c 128,-1,32
 584 813 584 813 529 813 c 0,33,34
 465 813 465 813 411 754.5 c 128,-1,35
 357 696 357 696 323.5 588 c 128,-1,36
 290 480 290 480 290 375 c 0,37,38
 290 278 290 278 325.5 224 c 128,-1,39
 361 170 361 170 423 170 c 0,40,41
 517 170 517 170 590 309 c 128,-1,42
 663 448 663 448 685 645 c 1,30,31
EndSplineSet
Validated: 1
EndChar

StartChar: summation
Encoding: 8721 8721 153
Width: 1460
GlyphClass: 2
Flags: W
LayerCount: 2
Fore
SplineSet
134 -455 m 1,0,-1
 134 -295 l 1,1,-1
 740 481 l 1,2,-1
 154 1257 l 1,3,-1
 154 1409 l 1,4,-1
 1291 1409 l 1,5,-1
 1291 1182 l 1,6,-1
 525 1182 l 1,7,-1
 1053 485 l 1,8,-1
 505 -227 l 1,9,-1
 1348 -227 l 1,10,-1
 1348 -455 l 1,11,-1
 134 -455 l 1,0,-1
EndSplineSet
Validated: 1
EndChar

StartChar: product
Encoding: 8719 8719 154
Width: 1686
GlyphClass: 2
Flags: W
LayerCount: 2
Fore
SplineSet
1200 -455 m 1,0,-1
 1200 1165 l 1,1,-1
 499 1165 l 1,2,-1
 499 -455 l 1,3,-1
 204 -455 l 1,4,-1
 204 1409 l 1,5,-1
 1482 1409 l 1,6,-1
 1482 -455 l 1,7,-1
 1200 -455 l 1,0,-1
EndSplineSet
Validated: 1
EndChar

StartChar: integral
Encoding: 8747 8747 155
Width: 561
GlyphClass: 2
Flags: W
LayerCount: 2
Fore
SplineSet
26 -455 m 0,0,1
 -17 -455 -17 -455 -63 -448 c 128,-1,2
 -109 -441 -109 -441 -129 -434 c 1,3,-1
 -129 -217 l 1,4,5
 -63 -242 -63 -242 -10 -242 c 0,6,7
 145 -242 145 -242 145 -45 c 2,8,-1
 145 1106 l 2,9,10
 145 1286 145 1286 251 1386.5 c 128,-1,11
 357 1487 357 1487 547 1487 c 0,12,13
 635 1487 635 1487 702 1468 c 1,14,-1
 702 1249 l 1,15,16
 652 1274 652 1274 583 1274 c 0,17,18
 506 1274 506 1274 466 1223.5 c 128,-1,19
 426 1173 426 1173 426 1079 c 2,20,-1
 426 -74 l 2,21,22
 426 -256 426 -256 320.5 -355.5 c 128,-1,23
 215 -455 215 -455 26 -455 c 0,0,1
EndSplineSet
Validated: 1
EndChar

StartChar: ordfeminine
Encoding: 170 170 156
Width: 758
GlyphClass: 2
Flags: W
LayerCount: 2
Fore
SplineSet
257 725 m 0,0,1
 160 725 160 725 102.5 777.5 c 128,-1,2
 45 830 45 830 45 927 c 0,3,4
 45 1133 45 1133 329 1138 c 1,5,-1
 476 1140 l 1,6,-1
 476 1182 l 2,7,8
 476 1301 476 1301 372 1301 c 0,9,10
 270 1301 270 1301 260 1207 c 1,11,-1
 70 1216 l 1,12,13
 88 1314 88 1314 166.5 1366.5 c 128,-1,14
 245 1419 245 1419 371 1419 c 0,15,16
 509 1419 509 1419 583.5 1358 c 128,-1,17
 658 1297 658 1297 658 1184 c 2,18,-1
 658 947 l 2,19,20
 658 899 658 899 667 874.5 c 128,-1,21
 676 850 676 850 709 850 c 1,22,-1
 758 855 l 1,23,-1
 758 746 l 1,24,25
 693 728 693 728 639 728 c 0,26,27
 568 728 568 728 527.5 764.5 c 128,-1,28
 487 801 487 801 482 862 c 1,29,-1
 479 862 l 1,30,31
 407 725 407 725 257 725 c 0,0,1
328 856 m 0,32,33
 389 856 389 856 432.5 904 c 128,-1,34
 476 952 476 952 476 1017 c 2,35,-1
 476 1044 l 1,36,-1
 384 1042 l 1,37,38
 296 1039 296 1039 265 1015 c 128,-1,39
 234 991 234 991 234 941 c 0,40,41
 234 856 234 856 328 856 c 0,32,33
EndSplineSet
Validated: 1
EndChar

StartChar: ordmasculine
Encoding: 186 186 157
Width: 748
GlyphClass: 2
Flags: W
LayerCount: 2
Fore
SplineSet
713 1073 m 0,0,1
 713 911 713 911 623.5 818 c 128,-1,2
 534 725 534 725 375 725 c 0,3,4
 223 725 223 725 134 817 c 128,-1,5
 45 909 45 909 45 1073 c 0,6,7
 45 1235 45 1235 133 1327 c 128,-1,8
 221 1419 221 1419 379 1419 c 0,9,10
 539 1419 539 1419 626 1330 c 128,-1,11
 713 1241 713 1241 713 1073 c 0,0,1
513 1073 m 0,12,13
 513 1179 513 1179 483.5 1227.5 c 128,-1,14
 454 1276 454 1276 381 1276 c 256,15,16
 308 1276 308 1276 275.5 1226.5 c 128,-1,17
 243 1177 243 1177 243 1073 c 0,18,19
 243 967 243 967 275 916 c 128,-1,20
 307 865 307 865 374 865 c 0,21,22
 449 865 449 865 481 915.5 c 128,-1,23
 513 966 513 966 513 1073 c 0,12,13
EndSplineSet
Validated: 1
EndChar

StartChar: Ohm
Encoding: 8486 8486 158
Width: 1573
GlyphClass: 2
Flags: W
LayerCount: 2
Fore
SplineSet
787 1430 m 256,0,1
 1102 1430 1102 1430 1281 1269 c 128,-1,2
 1460 1108 1460 1108 1460 828 c 0,3,4
 1460 615 1460 615 1357.5 464.5 c 128,-1,5
 1255 314 1255 314 1049 217 c 1,6,7
 1159 228 1159 228 1220 228 c 2,8,-1
 1488 228 l 1,9,-1
 1488 0 l 1,10,-1
 859 0 l 1,11,-1
 859 309 l 1,12,13
 1017 387 1017 387 1092.5 499 c 128,-1,14
 1168 611 1168 611 1168 774 c 0,15,16
 1168 976 1168 976 1068.5 1087 c 128,-1,17
 969 1198 969 1198 788 1198 c 0,18,19
 608 1198 608 1198 508 1087.5 c 128,-1,20
 408 977 408 977 408 774 c 0,21,22
 408 608 408 608 486.5 496.5 c 128,-1,23
 565 385 565 385 721 309 c 1,24,-1
 721 0 l 1,25,-1
 85 0 l 1,26,-1
 85 228 l 1,27,-1
 355 228 l 2,28,29
 419 228 419 228 529 217 c 1,30,31
 320 313 320 313 216.5 463.5 c 128,-1,32
 113 614 113 614 113 829 c 0,33,34
 113 1110 113 1110 292.5 1270 c 128,-1,35
 472 1430 472 1430 787 1430 c 256,0,1
EndSplineSet
Validated: 1
EndChar

StartChar: ae
Encoding: 230 230 159
Width: 1821
GlyphClass: 2
Flags: W
AnchorPoint: "Anchor21" 1360 0 basechar 0
AnchorPoint: "Anchor18" 1479 1840 basechar 0
AnchorPoint: "Anchor19" 0 1840 basechar 0
AnchorPoint: "Anchor16" 1821 1540 basechar 0
AnchorPoint: "Anchor17" 1821 -380 basechar 0
AnchorPoint: "Anchor14" 1690 900 basechar 0
AnchorPoint: "Anchor10" 860 1540 basechar 0
AnchorPoint: "Anchor11" 1580 1540 basechar 0
AnchorPoint: "Anchor12" 860 -130 basechar 0
LayerCount: 2
Fore
SplineSet
1253 -20 m 0,0,1
 943 -20 943 -20 819 209 c 1,2,3
 686 -20 686 -20 406 -20 c 0,4,5
 245 -20 245 -20 155.5 66 c 128,-1,6
 66 152 66 152 66 306 c 0,7,8
 66 472 66 472 177 559.5 c 128,-1,9
 288 647 288 647 506 652 c 1,10,-1
 746 656 l 1,11,-1
 746 711 l 2,12,13
 746 819 746 819 706 869.5 c 128,-1,14
 666 920 666 920 578 920 c 0,15,16
 493 920 493 920 455 883 c 128,-1,17
 417 846 417 846 408 767 c 1,18,-1
 115 781 l 1,19,20
 141 938 141 938 259.5 1020 c 128,-1,21
 378 1102 378 1102 586 1102 c 0,22,23
 803 1102 803 1102 919 995 c 1,24,25
 1049 1102 1049 1102 1257 1102 c 0,26,27
 1490 1102 1490 1102 1613 947.5 c 128,-1,28
 1736 793 1736 793 1736 495 c 2,29,-1
 1736 476 l 1,30,-1
 1042 476 l 1,31,32
 1042 330 1042 330 1101 249 c 128,-1,33
 1160 168 1160 168 1267 168 c 0,34,35
 1416 168 1416 168 1455 297 c 1,36,-1
 1720 274 l 1,37,38
 1605 -20 1605 -20 1253 -20 c 0,0,1
496 176 m 0,39,40
 565 176 565 176 623 215 c 128,-1,41
 681 254 681 254 713.5 319 c 128,-1,42
 746 384 746 384 746 456 c 2,43,-1
 746 501 l 1,44,-1
 594 499 l 1,45,46
 490 495 490 495 447 477.5 c 128,-1,47
 404 460 404 460 381.5 424 c 128,-1,48
 359 388 359 388 359 328 c 0,49,50
 359 251 359 251 396.5 213.5 c 128,-1,51
 434 176 434 176 496 176 c 0,39,40
1253 925 m 0,52,53
 1154 925 1154 925 1100.5 856 c 128,-1,54
 1047 787 1047 787 1044 663 c 1,55,-1
 1464 663 l 1,56,57
 1456 794 1456 794 1401 859.5 c 128,-1,58
 1346 925 1346 925 1253 925 c 0,52,53
EndSplineSet
Validated: 1
EndChar

StartChar: oslash
Encoding: 248 248 160
Width: 1251
GlyphClass: 2
Flags: W
AnchorPoint: "Anchor21" 680 0 basechar 0
AnchorPoint: "Anchor18" 1479 1840 basechar 0
AnchorPoint: "Anchor19" 0 1840 basechar 0
AnchorPoint: "Anchor16" 1251 1540 basechar 0
AnchorPoint: "Anchor17" 1251 -380 basechar 0
AnchorPoint: "Anchor14" 1120 900 basechar 0
AnchorPoint: "Anchor10" 630 1200 basechar 0
AnchorPoint: "Anchor11" 1120 1200 basechar 0
AnchorPoint: "Anchor12" 630 -130 basechar 0
LayerCount: 2
Fore
SplineSet
1171 542 m 0,0,1
 1171 279 1171 279 1025 129.5 c 128,-1,2
 879 -20 879 -20 621 -20 c 0,3,4
 429 -20 429 -20 297 69 c 1,5,-1
 184 -55 l 1,6,-1
 1 -55 l 1,7,-1
 198 160 l 1,8,9
 80 306 80 306 80 542 c 0,10,11
 80 803 80 803 224 952.5 c 128,-1,12
 368 1102 368 1102 627 1102 c 0,13,14
 826 1102 826 1102 957 1019 c 1,15,-1
 1058 1133 l 1,16,-1
 1242 1133 l 1,17,-1
 1058 927 l 1,18,19
 1171 785 1171 785 1171 542 c 0,0,1
375 542 m 0,20,21
 375 450 375 450 392 379 c 1,22,-1
 799 840 l 1,23,24
 739 909 739 909 631 909 c 0,25,26
 375 909 375 909 375 542 c 0,20,21
877 542 m 0,27,28
 877 636 877 636 861 704 c 1,29,-1
 454 244 l 1,30,31
 516 172 516 172 618 172 c 0,32,33
 877 172 877 172 877 542 c 0,27,28
EndSplineSet
Validated: 1
EndChar

StartChar: questiondown
Encoding: 191 191 161
Width: 1251
GlyphClass: 2
Flags: W
LayerCount: 2
Fore
SplineSet
114 56 m 0,0,1
 114 153 114 153 157.5 230 c 128,-1,2
 201 307 201 307 320 392 c 2,3,-1
 397 447 l 2,4,5
 464 496 464 496 497.5 546 c 128,-1,6
 531 596 531 596 534 656 c 1,7,-1
 801 656 l 1,8,9
 795 554 795 554 743 473.5 c 128,-1,10
 691 393 691 393 592 325 c 1,11,12
 485 250 485 250 441 194 c 128,-1,13
 397 138 397 138 397 68 c 0,14,15
 397 -20 397 -20 454.5 -71 c 128,-1,16
 512 -122 512 -122 618 -122 c 0,17,18
 719 -122 719 -122 787.5 -63 c 128,-1,19
 856 -4 856 -4 868 93 c 1,20,-1
 1153 81 l 1,21,22
 1126 -122 1126 -122 986 -235 c 128,-1,23
 846 -348 846 -348 622 -348 c 0,24,25
 385 -348 385 -348 249.5 -240.5 c 128,-1,26
 114 -133 114 -133 114 56 c 0,0,1
809 1082 m 1,27,-1
 809 812 l 1,28,-1
 520 812 l 1,29,-1
 520 1082 l 1,30,-1
 809 1082 l 1,27,-1
EndSplineSet
Validated: 1
EndChar

StartChar: exclamdown
Encoding: 161 161 162
Width: 682
GlyphClass: 2
Flags: W
LayerCount: 2
Fore
SplineSet
200 812 m 1,0,-1
 200 1082 l 1,1,-1
 488 1082 l 1,2,-1
 488 812 l 1,3,-1
 200 812 l 1,0,-1
194 -327 m 1,4,-1
 226 654 l 1,5,-1
 456 654 l 1,6,-1
 488 -327 l 1,7,-1
 194 -327 l 1,4,-1
EndSplineSet
Validated: 1
EndChar

StartChar: logicalnot
Encoding: 172 172 163
Width: 1196
GlyphClass: 2
Flags: W
LayerCount: 2
Fore
SplineSet
887 141 m 1,0,-1
 887 569 l 1,1,-1
 84 569 l 1,2,-1
 84 793 l 1,3,-1
 1111 793 l 1,4,-1
 1111 141 l 1,5,-1
 887 141 l 1,0,-1
EndSplineSet
Validated: 1
EndChar

StartChar: radical
Encoding: 8730 8730 164
Width: 1124
GlyphClass: 2
Flags: W
LayerCount: 2
Fore
SplineSet
624 -25 m 1,0,-1
 456 -25 l 1,1,-1
 186 729 l 1,2,-1
 2 729 l 1,3,-1
 2 895 l 1,4,-1
 313 895 l 1,5,-1
 532 260 l 1,6,-1
 944 1620 l 1,7,-1
 1130 1620 l 1,8,-1
 624 -25 l 1,0,-1
EndSplineSet
Validated: 1
EndChar

StartChar: florin
Encoding: 402 402 165
Width: 1139
GlyphClass: 2
Flags: W
AnchorPoint: "Anchor21" 260 -400 basechar 0
AnchorPoint: "Anchor18" 1479 1840 basechar 0
AnchorPoint: "Anchor19" 0 1840 basechar 0
AnchorPoint: "Anchor16" 1139 1540 basechar 0
AnchorPoint: "Anchor17" 1139 -380 basechar 0
AnchorPoint: "Anchor10" 800 1540 basechar 0
AnchorPoint: "Anchor11" 1100 1540 basechar 0
AnchorPoint: "Anchor12" 320 -540 basechar 0
LayerCount: 2
Fore
SplineSet
993 1247 m 1,0,1
 977 1252 977 1252 945 1258 c 128,-1,2
 913 1264 913 1264 891 1264 c 0,3,4
 826 1264 826 1264 797.5 1231 c 128,-1,5
 769 1198 769 1198 757 1137 c 2,6,-1
 737 1030 l 1,7,-1
 949 1030 l 1,8,-1
 913 840 l 1,9,-1
 700 840 l 1,10,-1
 449 -425 l 1,11,-1
 168 -425 l 1,12,-1
 419 840 l 1,13,-1
 261 840 l 1,14,-1
 298 1030 l 1,15,-1
 456 1030 l 1,16,-1
 483 1165 l 1,17,18
 509 1312 509 1312 600 1383 c 128,-1,19
 691 1454 691 1454 851 1454 c 0,20,21
 893 1454 893 1454 946 1445.5 c 128,-1,22
 999 1437 999 1437 1033 1424 c 1,23,-1
 993 1247 l 1,0,1
EndSplineSet
Validated: 1
EndChar

StartChar: approxequal
Encoding: 8776 8776 166
Width: 1124
GlyphClass: 2
Flags: W
LayerCount: 2
Fore
SplineSet
814 756 m 0,0,1
 739 756 739 756 666.5 776.5 c 128,-1,2
 594 797 594 797 519 823 c 0,3,4
 387 870 387 870 298 870 c 0,5,6
 231 870 231 870 172 850.5 c 128,-1,7
 113 831 113 831 43 782 c 1,8,-1
 43 995 l 1,9,10
 153 1079 153 1079 314 1079 c 0,11,12
 367 1079 367 1079 429 1066.5 c 128,-1,13
 491 1054 491 1054 633 1006 c 1,14,15
 754 963 754 963 833 963 c 0,16,17
 967 963 967 963 1081 1055 c 1,18,-1
 1081 836 l 1,19,20
 1018 791 1018 791 958 773.5 c 128,-1,21
 898 756 898 756 814 756 c 0,0,1
814 274 m 0,22,23
 739 274 739 274 666.5 296 c 128,-1,24
 594 318 594 318 519 344 c 0,25,26
 390 389 390 389 298 389 c 0,27,28
 227 389 227 389 167.5 367.5 c 128,-1,29
 108 346 108 346 43 301 c 1,30,-1
 43 514 l 1,31,32
 156 598 156 598 314 598 c 0,33,34
 397 598 397 598 477 575 c 128,-1,35
 557 552 557 552 633 526 c 1,36,37
 735 494 735 494 770 487.5 c 128,-1,38
 805 481 805 481 833 481 c 0,39,40
 967 481 967 481 1081 573 c 1,41,-1
 1081 354 l 1,42,43
 1017 310 1017 310 958.5 292 c 128,-1,44
 900 274 900 274 814 274 c 0,22,23
EndSplineSet
Validated: 1
EndChar

StartChar: Delta
Encoding: 8710 8710 167
Width: 1253
GlyphClass: 2
Flags: W
LayerCount: 2
Fore
SplineSet
43 0 m 1,0,-1
 43 215 l 1,1,-1
 440 1409 l 1,2,-1
 808 1409 l 1,3,-1
 1209 215 l 1,4,-1
 1209 0 l 1,5,-1
 43 0 l 1,0,-1
624 1208 m 1,6,-1
 615 1174 l 1,7,-1
 543 920 l 1,8,-1
 336 231 l 1,9,-1
 916 231 l 1,10,11
 627 1193 627 1193 624 1208 c 1,6,-1
EndSplineSet
Validated: 1
EndChar

StartChar: guillemotleft
Encoding: 171 171 168
Width: 1139
GlyphClass: 2
Flags: W
LayerCount: 2
Fore
SplineSet
807 141 m 1,0,-1
 551 502 l 1,1,-1
 551 573 l 1,2,-1
 807 940 l 1,3,-1
 1045 940 l 1,4,-1
 1045 903 l 1,5,-1
 791 537 l 1,6,-1
 1047 176 l 1,7,-1
 1047 141 l 1,8,-1
 807 141 l 1,0,-1
350 141 m 1,9,-1
 92 502 l 1,10,-1
 92 573 l 1,11,-1
 350 940 l 1,12,-1
 586 940 l 1,13,-1
 586 903 l 1,14,-1
 332 537 l 1,15,-1
 588 176 l 1,16,-1
 588 141 l 1,17,-1
 350 141 l 1,9,-1
EndSplineSet
Validated: 1
EndChar

StartChar: guillemotright
Encoding: 187 187 169
Width: 1139
GlyphClass: 2
Flags: W
LayerCount: 2
Fore
SplineSet
93 141 m 1,0,-1
 93 176 l 1,1,-1
 349 537 l 1,2,-1
 95 903 l 1,3,-1
 95 940 l 1,4,-1
 333 940 l 1,5,-1
 589 573 l 1,6,-1
 589 502 l 1,7,-1
 333 141 l 1,8,-1
 93 141 l 1,0,-1
552 141 m 1,9,-1
 552 176 l 1,10,-1
 808 537 l 1,11,-1
 554 903 l 1,12,-1
 554 940 l 1,13,-1
 790 940 l 1,14,-1
 1048 573 l 1,15,-1
 1048 502 l 1,16,-1
 790 141 l 1,17,-1
 552 141 l 1,9,-1
EndSplineSet
Validated: 1
EndChar

StartChar: ellipsis
Encoding: 8230 8230 170
Width: 2048
GlyphClass: 2
Flags: W
LayerCount: 2
Fore
SplineSet
1528 0 m 1,0,-1
 1528 305 l 1,1,-1
 1816 305 l 1,2,-1
 1816 0 l 1,3,-1
 1528 0 l 1,0,-1
880 0 m 1,4,-1
 880 305 l 1,5,-1
 1166 305 l 1,6,-1
 1166 0 l 1,7,-1
 880 0 l 1,4,-1
225 0 m 1,8,-1
 225 305 l 1,9,-1
 513 305 l 1,10,-1
 513 0 l 1,11,-1
 225 0 l 1,8,-1
EndSplineSet
Validated: 1
EndChar

StartChar: OE
Encoding: 338 338 174
Width: 2048
GlyphClass: 2
Flags: W
AnchorPoint: "Anchor21" 1800 0 basechar 0
AnchorPoint: "Anchor18" 1479 1840 basechar 0
AnchorPoint: "Anchor19" 0 1840 basechar 0
AnchorPoint: "Anchor16" 2048 1840 basechar 0
AnchorPoint: "Anchor17" 2048 -380 basechar 0
AnchorPoint: "Anchor10" 1100 1540 basechar 0
AnchorPoint: "Anchor11" 1940 1540 basechar 0
AnchorPoint: "Anchor12" 1100 -130 basechar 0
LayerCount: 2
Fore
SplineSet
992 0 m 1,0,1
 954 -2 954 -2 900.5 -6 c 128,-1,2
 847 -10 847 -10 793 -10 c 0,3,4
 459 -10 459 -10 271.5 181.5 c 128,-1,5
 84 373 84 373 84 711 c 256,6,7
 84 1049 84 1049 271.5 1234.5 c 128,-1,8
 459 1420 459 1420 795 1420 c 0,9,10
 866 1420 866 1420 998 1409 c 1,11,-1
 1927 1409 l 1,12,-1
 1927 1182 l 1,13,-1
 1260 1182 l 1,14,-1
 1260 827 l 1,15,-1
 1866 827 l 1,16,-1
 1866 606 l 1,17,-1
 1260 606 l 1,18,-1
 1260 227 l 1,19,-1
 1968 227 l 1,20,-1
 1968 0 l 1,21,-1
 992 0 l 1,0,1
963 1169 m 1,22,23
 892 1188 892 1188 795 1188 c 0,24,25
 595 1188 595 1188 488 1063.5 c 128,-1,26
 381 939 381 939 381 711 c 0,27,28
 381 482 381 482 490.5 352 c 128,-1,29
 600 222 600 222 793 222 c 0,30,31
 909 222 909 222 963 242 c 1,32,-1
 963 1169 l 1,22,23
EndSplineSet
Validated: 1
EndChar

StartChar: oe
Encoding: 339 339 175
Width: 1933
GlyphClass: 2
Flags: W
AnchorPoint: "Anchor21" 1460 0 basechar 0
AnchorPoint: "Anchor18" 1479 1840 basechar 0
AnchorPoint: "Anchor19" 0 1840 basechar 0
AnchorPoint: "Anchor16" 1933 1540 basechar 0
AnchorPoint: "Anchor17" 1933 -380 basechar 0
AnchorPoint: "Anchor14" 1820 900 basechar 0
AnchorPoint: "Anchor10" 1020 1200 basechar 0
AnchorPoint: "Anchor11" 1800 1260 basechar 0
AnchorPoint: "Anchor12" 1020 -130 basechar 0
LayerCount: 2
Fore
SplineSet
1384 -20 m 0,0,1
 1146 -20 1146 -20 1015 139 c 1,2,3
 871 -20 871 -20 621 -20 c 0,4,5
 368 -20 368 -20 224 130 c 128,-1,6
 80 280 80 280 80 542 c 0,7,8
 80 803 80 803 224 952.5 c 128,-1,9
 368 1102 368 1102 627 1102 c 0,10,11
 883 1102 883 1102 1021 949 c 1,12,13
 1155 1102 1155 1102 1388 1102 c 256,14,15
 1621 1102 1621 1102 1744 947.5 c 128,-1,16
 1867 793 1867 793 1867 495 c 2,17,-1
 1867 476 l 1,18,-1
 1173 476 l 1,19,20
 1173 330 1173 330 1232 249 c 128,-1,21
 1291 168 1291 168 1398 168 c 0,22,23
 1547 168 1547 168 1586 297 c 1,24,-1
 1851 274 l 1,25,26
 1736 -20 1736 -20 1384 -20 c 0,0,1
877 542 m 0,27,28
 877 735 877 735 814 822 c 128,-1,29
 751 909 751 909 631 909 c 0,30,31
 375 909 375 909 375 542 c 0,32,33
 375 361 375 361 437.5 266.5 c 128,-1,34
 500 172 500 172 618 172 c 0,35,36
 877 172 877 172 877 542 c 0,27,28
1384 925 m 0,37,38
 1285 925 1285 925 1231.5 856 c 128,-1,39
 1178 787 1178 787 1175 663 c 1,40,-1
 1595 663 l 1,41,42
 1587 794 1587 794 1532 859.5 c 128,-1,43
 1477 925 1477 925 1384 925 c 0,37,38
EndSplineSet
Validated: 1
EndChar

StartChar: endash
Encoding: 8211 8211 176
Width: 1139
GlyphClass: 2
Flags: W
LayerCount: 2
Fore
SplineSet
62 448 m 1,0,-1
 62 651 l 1,1,-1
 1076 651 l 1,2,-1
 1076 448 l 1,3,-1
 62 448 l 1,0,-1
EndSplineSet
Validated: 1
EndChar

StartChar: emdash
Encoding: 8212 8212 177
Width: 2048
GlyphClass: 2
Flags: W
LayerCount: 2
Fore
SplineSet
0 448 m 1,0,-1
 0 651 l 1,1,-1
 2048 651 l 1,2,-1
 2048 448 l 1,3,-1
 0 448 l 1,0,-1
EndSplineSet
Validated: 1
EndChar

StartChar: quotedblleft
Encoding: 8220 8220 178
Width: 1024
GlyphClass: 2
Flags: W
LayerCount: 2
Fore
SplineSet
579 831 m 1,0,-1
 579 1026 l 2,1,2
 579 1150 579 1150 606 1241 c 128,-1,3
 633 1332 633 1332 690 1409 c 1,4,-1
 872 1409 l 1,5,6
 810 1331 810 1331 775.5 1247.5 c 128,-1,7
 741 1164 741 1164 741 1092 c 1,8,-1
 868 1092 l 1,9,-1
 868 831 l 1,10,-1
 579 831 l 1,0,-1
151 831 m 1,11,-1
 151 1026 l 2,12,13
 151 1147 151 1147 177 1239.5 c 128,-1,14
 203 1332 203 1332 259 1409 c 1,15,-1
 442 1409 l 1,16,17
 380 1331 380 1331 345.5 1247.5 c 128,-1,18
 311 1164 311 1164 311 1092 c 1,19,-1
 438 1092 l 1,20,-1
 438 831 l 1,21,-1
 151 831 l 1,11,-1
EndSplineSet
Validated: 1
EndChar

StartChar: quotedblright
Encoding: 8221 8221 179
Width: 1024
GlyphClass: 2
Flags: W
LayerCount: 2
Fore
SplineSet
872 1217 m 2,0,1
 872 1096 872 1096 846.5 1003.5 c 128,-1,2
 821 911 821 911 763 831 c 1,3,-1
 579 831 l 1,4,5
 712 999 712 999 712 1149 c 1,6,-1
 585 1149 l 1,7,-1
 585 1409 l 1,8,-1
 872 1409 l 1,9,-1
 872 1217 l 2,0,1
442 1217 m 2,10,11
 442 1092 442 1092 417 1002.5 c 128,-1,12
 392 913 392 913 333 831 c 1,13,-1
 151 831 l 1,14,15
 282 999 282 999 282 1149 c 1,16,-1
 155 1149 l 1,17,-1
 155 1409 l 1,18,-1
 442 1409 l 1,19,-1
 442 1217 l 2,10,11
EndSplineSet
Validated: 1
EndChar

StartChar: quoteleft
Encoding: 8216 8216 180
Width: 569
GlyphClass: 2
Flags: W
LayerCount: 2
Fore
SplineSet
139 831 m 1,0,-1
 139 1026 l 2,1,2
 139 1147 139 1147 165 1239.5 c 128,-1,3
 191 1332 191 1332 247 1409 c 1,4,-1
 430 1409 l 1,5,6
 368 1331 368 1331 333.5 1247.5 c 128,-1,7
 299 1164 299 1164 299 1092 c 1,8,-1
 426 1092 l 1,9,-1
 426 831 l 1,10,-1
 139 831 l 1,0,-1
EndSplineSet
Validated: 1
EndChar

StartChar: quoteright
Encoding: 8217 8217 181
Width: 569
GlyphClass: 2
Flags: W
LayerCount: 2
Fore
SplineSet
430 1214 m 2,0,1
 430 1093 430 1093 405.5 1004 c 128,-1,2
 381 915 381 915 321 831 c 1,3,-1
 139 831 l 1,4,5
 270 999 270 999 270 1149 c 1,6,-1
 143 1149 l 1,7,-1
 143 1409 l 1,8,-1
 430 1409 l 1,9,-1
 430 1214 l 2,0,1
EndSplineSet
Validated: 1
EndChar

StartChar: divide
Encoding: 247 247 182
Width: 1124
GlyphClass: 2
Flags: W
LayerCount: 2
Fore
SplineSet
442 961 m 1,0,-1
 442 1194 l 1,1,-1
 680 1194 l 1,2,-1
 680 961 l 1,3,-1
 442 961 l 1,0,-1
49 569 m 1,4,-1
 49 793 l 1,5,-1
 1076 793 l 1,6,-1
 1076 569 l 1,7,-1
 49 569 l 1,4,-1
442 170 m 1,8,-1
 442 403 l 1,9,-1
 680 403 l 1,10,-1
 680 170 l 1,11,-1
 442 170 l 1,8,-1
EndSplineSet
Validated: 1
EndChar

StartChar: lozenge
Encoding: 9674 9674 183
Width: 1012
GlyphClass: 2
Flags: W
LayerCount: 2
Fore
SplineSet
558 0 m 1,0,-1
 454 0 l 1,1,-1
 3 721 l 1,2,-1
 454 1446 l 1,3,-1
 558 1446 l 1,4,-1
 1012 723 l 1,5,-1
 558 0 l 1,0,-1
507 1204 m 1,6,-1
 218 723 l 1,7,-1
 507 229 l 1,8,-1
 796 723 l 1,9,-1
 507 1204 l 1,6,-1
EndSplineSet
Validated: 1
EndChar

StartChar: fraction
Encoding: 8260 8260 186
Width: 342
GlyphClass: 2
Flags: W
LayerCount: 2
Fore
SplineSet
-176 0 m 1,0,-1
 -377 0 l 1,1,-1
 518 1409 l 1,2,-1
 719 1409 l 1,3,-1
 -176 0 l 1,0,-1
EndSplineSet
Validated: 1
EndChar

StartChar: Euro
Encoding: 8364 8364 187
Width: 1139
GlyphClass: 2
Flags: W
LayerCount: 2
Fore
SplineSet
658 199 m 0,0,1
 730 199 730 199 773 245 c 128,-1,2
 816 291 816 291 826 373 c 1,3,-1
 1103 357 l 1,4,5
 1072 169 1072 169 957.5 74.5 c 128,-1,6
 843 -20 843 -20 654 -20 c 0,7,8
 428 -20 428 -20 298 113 c 128,-1,9
 168 246 168 246 139 510 c 1,10,-1
 10 510 l 1,11,-1
 50 659 l 1,12,-1
 127 659 l 1,13,-1
 125 710 l 1,14,-1
 127 766 l 1,15,-1
 10 766 l 1,16,-1
 50 915 l 1,17,-1
 137 915 l 1,18,19
 200 1430 200 1430 654 1430 c 0,20,21
 836 1430 836 1430 950 1336 c 128,-1,22
 1064 1242 1064 1242 1093 1071 c 1,23,-1
 813 1055 l 1,24,25
 803 1129 803 1129 761 1170 c 128,-1,26
 719 1211 719 1211 645 1211 c 0,27,28
 546 1211 546 1211 493.5 1140 c 128,-1,29
 441 1069 441 1069 426 915 c 1,30,-1
 753 915 l 1,31,-1
 724 766 l 1,32,-1
 421 766 l 1,33,-1
 419 710 l 1,34,-1
 422 659 l 1,35,-1
 762 659 l 1,36,-1
 732 510 l 1,37,-1
 428 510 l 1,38,39
 456 199 456 199 658 199 c 0,0,1
EndSplineSet
Validated: 1
EndChar

StartChar: guilsinglleft
Encoding: 8249 8249 188
Width: 682
GlyphClass: 2
Flags: W
LayerCount: 2
Fore
SplineSet
350 141 m 1,0,-1
 92 502 l 1,1,-1
 92 573 l 1,2,-1
 350 940 l 1,3,-1
 586 940 l 1,4,-1
 586 903 l 1,5,-1
 332 537 l 1,6,-1
 588 176 l 1,7,-1
 588 141 l 1,8,-1
 350 141 l 1,0,-1
EndSplineSet
Validated: 1
EndChar

StartChar: guilsinglright
Encoding: 8250 8250 189
Width: 682
GlyphClass: 2
Flags: W
LayerCount: 2
Fore
SplineSet
93 141 m 1,0,-1
 93 176 l 1,1,-1
 349 537 l 1,2,-1
 95 903 l 1,3,-1
 95 940 l 1,4,-1
 333 940 l 1,5,-1
 589 573 l 1,6,-1
 589 502 l 1,7,-1
 333 141 l 1,8,-1
 93 141 l 1,0,-1
EndSplineSet
Validated: 1
EndChar

StartChar: daggerdbl
Encoding: 8225 8225 190
Width: 1139
GlyphClass: 2
Flags: W
LayerCount: 2
Fore
SplineSet
478 980 m 1,0,-1
 137 953 l 1,1,-1
 137 1157 l 1,2,-1
 478 1128 l 1,3,-1
 462 1484 l 1,4,-1
 677 1484 l 1,5,-1
 661 1128 l 1,6,-1
 1002 1157 l 1,7,-1
 1002 953 l 1,8,-1
 661 980 l 1,9,-1
 635 670 l 1,10,-1
 661 363 l 1,11,-1
 1001 390 l 1,12,-1
 1001 186 l 1,13,-1
 661 215 l 1,14,-1
 677 -141 l 1,15,-1
 462 -141 l 1,16,-1
 478 215 l 1,17,-1
 136 186 l 1,18,-1
 136 390 l 1,19,-1
 478 363 l 1,20,-1
 504 670 l 1,21,-1
 478 980 l 1,0,-1
EndSplineSet
Validated: 1
EndChar

StartChar: bulletoperator
Encoding: 8729 8729 191
Width: 569
GlyphClass: 2
Flags: W
LayerCount: 2
Fore
SplineSet
141 531 m 1,0,-1
 141 836 l 1,1,-1
 429 836 l 1,2,-1
 429 531 l 1,3,-1
 141 531 l 1,0,-1
EndSplineSet
Validated: 1
EndChar

StartChar: quotesinglbase
Encoding: 8218 8218 192
Width: 569
GlyphClass: 2
Flags: W
LayerCount: 2
Fore
SplineSet
431 66 m 2,0,1
 431 -54 431 -54 405.5 -146 c 128,-1,2
 380 -238 380 -238 323 -317 c 1,3,-1
 138 -317 l 1,4,5
 201 -241 201 -241 236.5 -157 c 128,-1,6
 272 -73 272 -73 272 0 c 1,7,-1
 143 0 l 1,8,-1
 143 260 l 1,9,-1
 431 260 l 1,10,-1
 431 66 l 2,0,1
EndSplineSet
Validated: 1
EndChar

StartChar: quotedblbase
Encoding: 8222 8222 193
Width: 1024
GlyphClass: 2
Flags: W
LayerCount: 2
Fore
SplineSet
872 66 m 2,0,1
 872 -54 872 -54 846 -146.5 c 128,-1,2
 820 -239 820 -239 763 -317 c 1,3,-1
 579 -317 l 1,4,5
 638 -246 638 -246 675 -161 c 128,-1,6
 712 -76 712 -76 712 0 c 1,7,-1
 585 0 l 1,8,-1
 585 260 l 1,9,-1
 872 260 l 1,10,-1
 872 66 l 2,0,1
442 66 m 2,11,12
 442 -58 442 -58 417 -147.5 c 128,-1,13
 392 -237 392 -237 333 -317 c 1,14,-1
 151 -317 l 1,15,16
 213 -239 213 -239 247.5 -155.5 c 128,-1,17
 282 -72 282 -72 282 0 c 1,18,-1
 155 0 l 1,19,-1
 155 260 l 1,20,-1
 442 260 l 1,21,-1
 442 66 l 2,11,12
EndSplineSet
Validated: 1
EndChar

StartChar: perthousand
Encoding: 8240 8240 194
Width: 2048
GlyphClass: 2
Flags: W
LayerCount: 2
Fore
SplineSet
382 0 m 1,0,-1
 185 0 l 1,1,-1
 997 1409 l 1,2,-1
 1196 1409 l 1,3,-1
 382 0 l 1,0,-1
331 1419 m 0,4,5
 616 1419 616 1419 616 1061 c 0,6,7
 616 889 616 889 542.5 795.5 c 128,-1,8
 469 702 469 702 327 702 c 0,9,10
 186 702 186 702 113.5 793.5 c 128,-1,11
 41 885 41 885 41 1061 c 0,12,13
 41 1243 41 1243 111.5 1331 c 128,-1,14
 182 1419 182 1419 331 1419 c 0,4,5
440 1061 m 0,15,16
 440 1185 440 1185 415.5 1240 c 128,-1,17
 391 1295 391 1295 331 1295 c 0,18,19
 268 1295 268 1295 242 1243 c 128,-1,20
 216 1191 216 1191 216 1061 c 0,21,22
 216 937 216 937 241.5 882 c 128,-1,23
 267 827 267 827 329 827 c 0,24,25
 388 827 388 827 414 880.5 c 128,-1,26
 440 934 440 934 440 1061 c 0,15,16
1057 714 m 0,27,28
 1342 714 1342 714 1342 356 c 0,29,30
 1342 184 1342 184 1268.5 90.5 c 128,-1,31
 1195 -3 1195 -3 1053 -3 c 0,32,33
 912 -3 912 -3 839.5 88.5 c 128,-1,34
 767 180 767 180 767 356 c 0,35,36
 767 538 767 538 837.5 626 c 128,-1,37
 908 714 908 714 1057 714 c 0,27,28
1166 356 m 0,38,39
 1166 480 1166 480 1141.5 535 c 128,-1,40
 1117 590 1117 590 1057 590 c 0,41,42
 992 590 992 590 966.5 536 c 128,-1,43
 941 482 941 482 941 356 c 0,44,45
 941 232 941 232 966.5 177 c 128,-1,46
 992 122 992 122 1055 122 c 0,47,48
 1114 122 1114 122 1140 175.5 c 128,-1,49
 1166 229 1166 229 1166 356 c 0,38,39
1722 714 m 0,50,51
 2007 714 2007 714 2007 356 c 0,52,53
 2007 181 2007 181 1933.5 89 c 128,-1,54
 1860 -3 1860 -3 1718 -3 c 0,55,56
 1577 -3 1577 -3 1504.5 88.5 c 128,-1,57
 1432 180 1432 180 1432 356 c 0,58,59
 1432 538 1432 538 1502.5 626 c 128,-1,60
 1573 714 1573 714 1722 714 c 0,50,51
1831 356 m 0,61,62
 1831 480 1831 480 1806.5 535 c 128,-1,63
 1782 590 1782 590 1722 590 c 0,64,65
 1659 590 1659 590 1633 538 c 128,-1,66
 1607 486 1607 486 1607 356 c 0,67,68
 1607 232 1607 232 1632.5 177 c 128,-1,69
 1658 122 1658 122 1720 122 c 0,70,71
 1779 122 1779 122 1805 175.5 c 128,-1,72
 1831 229 1831 229 1831 356 c 0,61,62
EndSplineSet
Validated: 1
EndChar

StartChar: dotlessi
Encoding: 305 305 210
Width: 569
GlyphClass: 2
Flags: W
AnchorPoint: "Anchor21" 210 0 basechar 0
AnchorPoint: "Anchor18" 1479 1840 basechar 0
AnchorPoint: "Anchor19" 0 1840 basechar 0
AnchorPoint: "Anchor16" 569 1540 basechar 0
AnchorPoint: "Anchor17" 569 -380 basechar 0
AnchorPoint: "Anchor14" 410 1100 basechar 0
AnchorPoint: "Anchor10" 280 1540 basechar 0
AnchorPoint: "Anchor11" 440 1540 basechar 0
AnchorPoint: "Anchor12" 280 -130 basechar 0
LayerCount: 2
Fore
SplineSet
145 0 m 1,0,-1
 145 1082 l 1,1,-1
 426 1082 l 1,2,-1
 426 0 l 1,3,-1
 145 0 l 1,0,-1
EndSplineSet
Validated: 1
EndChar

StartChar: circumflex
Encoding: 710 710 211
Width: 682
GlyphClass: 2
Flags: W
LayerCount: 2
Fore
SplineSet
737 1211 m 1,0,-1
 737 1183 l 1,1,-1
 578 1183 l 1,2,-1
 375 1375 l 1,3,-1
 371 1375 l 1,4,-1
 160 1183 l 1,5,-1
 0 1183 l 1,6,-1
 0 1211 l 1,7,-1
 258 1529 l 1,8,-1
 487 1529 l 1,9,-1
 737 1211 l 1,0,-1
EndSplineSet
Validated: 1
EndChar

StartChar: tilde
Encoding: 732 732 212
Width: 682
GlyphClass: 2
Flags: W
LayerCount: 2
Fore
SplineSet
543 1183 m 0,0,1
 499 1183 499 1183 454.5 1202 c 128,-1,2
 410 1221 410 1221 368 1244.5 c 128,-1,3
 326 1268 326 1268 288.5 1287 c 128,-1,4
 251 1306 251 1306 221 1306 c 0,5,6
 180 1306 180 1306 158.5 1283 c 128,-1,7
 137 1260 137 1260 123 1183 c 1,8,-1
 -14 1183 l 1,9,10
 -6 1296 -6 1296 18.5 1352.5 c 128,-1,11
 43 1409 43 1409 89 1442.5 c 128,-1,12
 135 1476 135 1476 211 1476 c 0,13,14
 256 1476 256 1476 301 1457 c 128,-1,15
 346 1438 346 1438 388 1414.5 c 128,-1,16
 430 1391 430 1391 466.5 1372 c 128,-1,17
 503 1353 503 1353 532 1353 c 0,18,19
 572 1353 572 1353 594.5 1377.5 c 128,-1,20
 617 1402 617 1402 631 1476 c 1,21,-1
 766 1476 l 1,22,23
 759 1319 759 1319 702.5 1251 c 128,-1,24
 646 1183 646 1183 543 1183 c 0,0,1
EndSplineSet
Validated: 1
EndChar

StartChar: firsttonechinese
Encoding: 713 713 213
Width: 682
GlyphClass: 2
Flags: W
LayerCount: 2
Fore
SplineSet
36 1371 m 1,0,-1
 648 1371 l 1,1,-1
 648 1203 l 1,2,-1
 36 1203 l 1,3,-1
 36 1371 l 1,0,-1
EndSplineSet
Validated: 1
EndChar

StartChar: breve
Encoding: 728 728 214
Width: 682
GlyphClass: 2
Flags: W
LayerCount: 2
Fore
SplineSet
295 1183 m 0,0,1
 144 1183 144 1183 49 1274 c 128,-1,2
 -46 1365 -46 1365 -57 1506 c 1,3,-1
 106 1506 l 1,4,5
 122 1429 122 1429 174 1384.5 c 128,-1,6
 226 1340 226 1340 297 1340 c 256,7,8
 368 1340 368 1340 420.5 1383.5 c 128,-1,9
 473 1427 473 1427 487 1506 c 1,10,-1
 651 1506 l 1,11,12
 633 1358 633 1358 540.5 1270.5 c 128,-1,13
 448 1183 448 1183 295 1183 c 0,0,1
EndSplineSet
Validated: 1
EndChar

StartChar: dotaccent
Encoding: 729 729 215
Width: 682
GlyphClass: 2
Flags: W
LayerCount: 2
Fore
SplineSet
200 1277 m 1,0,-1
 200 1484 l 1,1,-1
 481 1484 l 1,2,-1
 481 1277 l 1,3,-1
 200 1277 l 1,0,-1
EndSplineSet
Validated: 1
EndChar

StartChar: ring
Encoding: 730 730 216
Width: 682
GlyphClass: 2
Flags: W
LayerCount: 2
Fore
SplineSet
547 1390 m 256,0,1
 547 1285 547 1285 473.5 1210.5 c 128,-1,2
 400 1136 400 1136 293 1136 c 256,3,4
 186 1136 186 1136 112.5 1210.5 c 128,-1,5
 39 1285 39 1285 39 1390 c 256,6,7
 39 1495 39 1495 113.5 1569.5 c 128,-1,8
 188 1644 188 1644 293 1644 c 256,9,10
 398 1644 398 1644 472.5 1569.5 c 128,-1,11
 547 1495 547 1495 547 1390 c 256,0,1
420 1390 m 0,12,13
 420 1441 420 1441 383.5 1478 c 128,-1,14
 347 1515 347 1515 293 1515 c 0,15,16
 242 1515 242 1515 205 1479 c 128,-1,17
 168 1443 168 1443 168 1390 c 0,18,19
 168 1334 168 1334 205 1298 c 128,-1,20
 242 1262 242 1262 293 1262 c 0,21,22
 346 1262 346 1262 383 1299 c 128,-1,23
 420 1336 420 1336 420 1390 c 0,12,13
EndSplineSet
Validated: 1
EndChar

StartChar: cedilla
Encoding: 184 184 217
Width: 682
GlyphClass: 2
Flags: W
LayerCount: 2
Fore
SplineSet
500 -235 m 0,0,1
 500 -329 500 -329 422 -377 c 128,-1,2
 344 -425 344 -425 197 -425 c 0,3,4
 152 -425 152 -425 96 -419 c 1,5,-1
 96 -301 l 1,6,7
 131 -308 131 -308 180 -308 c 0,8,9
 317 -308 317 -308 317 -239 c 0,10,11
 317 -204 317 -204 289 -187 c 128,-1,12
 261 -170 261 -170 195 -170 c 0,13,14
 157 -170 157 -170 143 -172 c 1,15,-1
 205 0 l 1,16,-1
 348 0 l 1,17,-1
 315 -82 l 1,18,19
 409 -87 409 -87 454.5 -128 c 128,-1,20
 500 -169 500 -169 500 -235 c 0,0,1
EndSplineSet
Validated: 1
EndChar

StartChar: hungarumlaut
Encoding: 733 733 218
Width: 682
GlyphClass: 2
Flags: W
LayerCount: 2
Fore
SplineSet
50 1184 m 1,0,-1
 -92 1184 l 1,1,-1
 -92 1218 l 1,2,-1
 133 1484 l 1,3,-1
 368 1484 l 1,4,-1
 368 1441 l 1,5,-1
 50 1184 l 1,0,-1
456 1184 m 1,6,-1
 314 1184 l 1,7,-1
 314 1218 l 1,8,-1
 539 1484 l 1,9,-1
 774 1484 l 1,10,-1
 774 1441 l 1,11,-1
 456 1184 l 1,6,-1
EndSplineSet
Validated: 1
EndChar

StartChar: ogonek
Encoding: 731 731 219
Width: 682
GlyphClass: 2
Flags: W
LayerCount: 2
Fore
SplineSet
313 -425 m 0,0,1
 202 -425 202 -425 139 -371 c 128,-1,2
 76 -317 76 -317 76 -225 c 0,3,4
 76 -150 76 -150 119.5 -83 c 128,-1,5
 163 -16 163 -16 234 21 c 1,6,-1
 387 21 l 1,7,8
 324 -21 324 -21 291 -78.5 c 128,-1,9
 258 -136 258 -136 258 -189 c 0,10,11
 258 -231 258 -231 282.5 -256.5 c 128,-1,12
 307 -282 307 -282 352 -282 c 0,13,14
 406 -282 406 -282 464 -255 c 1,15,-1
 464 -392 l 1,16,17
 401 -425 401 -425 313 -425 c 0,0,1
EndSplineSet
Validated: 1
EndChar

StartChar: caron
Encoding: 711 711 220
Width: 682
GlyphClass: 2
Flags: W
LayerCount: 2
Fore
SplineSet
487 1183 m 1,0,-1
 258 1183 l 1,1,-1
 0 1500 l 1,2,-1
 0 1529 l 1,3,-1
 160 1529 l 1,4,-1
 371 1336 l 1,5,-1
 375 1336 l 1,6,-1
 578 1529 l 1,7,-1
 737 1529 l 1,8,-1
 737 1500 l 1,9,-1
 487 1183 l 1,0,-1
EndSplineSet
Validated: 1
EndChar

StartChar: Lslash
Encoding: 321 321 221
Width: 1251
GlyphClass: 2
Flags: W
AnchorPoint: "Anchor21" 940 0 basechar 0
AnchorPoint: "Anchor18" 1479 1840 basechar 0
AnchorPoint: "Anchor19" 0 1840 basechar 0
AnchorPoint: "Anchor16" 1251 1540 basechar 0
AnchorPoint: "Anchor17" 1251 -380 basechar 0
AnchorPoint: "Anchor10" 620 1540 basechar 0
AnchorPoint: "Anchor11" 1240 1540 basechar 0
AnchorPoint: "Anchor12" 620 -130 basechar 0
LayerCount: 2
Fore
SplineSet
137 0 m 1,0,-1
 137 483 l 1,1,-1
 0 418 l 1,2,-1
 0 643 l 1,3,-1
 137 709 l 1,4,-1
 137 1409 l 1,5,-1
 432 1409 l 1,6,-1
 432 850 l 1,7,-1
 739 997 l 1,8,-1
 739 774 l 1,9,-1
 432 627 l 1,10,-1
 432 231 l 1,11,-1
 1188 231 l 1,12,-1
 1188 0 l 1,13,-1
 137 0 l 1,0,-1
EndSplineSet
Validated: 1
EndChar

StartChar: lslash
Encoding: 322 322 222
Width: 569
GlyphClass: 2
Flags: W
AnchorPoint: "Anchor21" 220 0 basechar 0
AnchorPoint: "Anchor18" 1479 1840 basechar 0
AnchorPoint: "Anchor19" 0 1840 basechar 0
AnchorPoint: "Anchor16" 569 1540 basechar 0
AnchorPoint: "Anchor17" 569 -380 basechar 0
AnchorPoint: "Anchor10" 280 1540 basechar 0
AnchorPoint: "Anchor11" 440 1540 basechar 0
AnchorPoint: "Anchor12" 280 -130 basechar 0
LayerCount: 2
Fore
SplineSet
424 717 m 1,0,-1
 424 0 l 1,1,-1
 143 0 l 1,2,-1
 143 561 l 1,3,-1
 18 492 l 1,4,-1
 18 707 l 1,5,-1
 143 776 l 1,6,-1
 143 1484 l 1,7,-1
 424 1484 l 1,8,-1
 424 932 l 1,9,-1
 553 1006 l 1,10,-1
 553 793 l 1,11,-1
 424 717 l 1,0,-1
EndSplineSet
Validated: 1
EndChar

StartChar: brokenbar
Encoding: 166 166 227
Width: 573
GlyphClass: 2
Flags: W
LayerCount: 2
Fore
SplineSet
156 676 m 1,0,-1
 156 1454 l 1,1,-1
 418 1454 l 1,2,-1
 418 676 l 1,3,-1
 156 676 l 1,0,-1
156 -455 m 1,4,-1
 156 324 l 1,5,-1
 418 324 l 1,6,-1
 418 -455 l 1,7,-1
 156 -455 l 1,4,-1
EndSplineSet
Validated: 1
EndChar

StartChar: Eth
Encoding: 208 208 228
Width: 1479
GlyphClass: 2
Flags: W
AnchorPoint: "Anchor21" 670 0 basechar 0
AnchorPoint: "Anchor18" 1479 1840 basechar 0
AnchorPoint: "Anchor19" 0 1840 basechar 0
AnchorPoint: "Anchor16" 1479 1540 basechar 0
AnchorPoint: "Anchor17" 1479 -380 basechar 0
AnchorPoint: "Anchor10" 700 1540 basechar 0
AnchorPoint: "Anchor11" 1330 1540 basechar 0
AnchorPoint: "Anchor12" 700 -130 basechar 0
LayerCount: 2
Fore
SplineSet
1393 715 m 0,0,1
 1393 497 1393 497 1307.5 334.5 c 128,-1,2
 1222 172 1222 172 1065.5 86 c 128,-1,3
 909 0 909 0 707 0 c 2,4,-1
 137 0 l 1,5,-1
 137 594 l 1,6,-1
 8 594 l 1,7,-1
 8 813 l 1,8,-1
 137 813 l 1,9,-1
 137 1409 l 1,10,-1
 647 1409 l 2,11,12
 1003 1409 1003 1409 1198 1229.5 c 128,-1,13
 1393 1050 1393 1050 1393 715 c 0,0,1
1096 715 m 256,14,15
 1096 940 1096 940 979 1059 c 128,-1,16
 862 1178 862 1178 641 1178 c 2,17,-1
 432 1178 l 1,18,-1
 432 813 l 1,19,-1
 788 813 l 1,20,-1
 788 594 l 1,21,-1
 432 594 l 1,22,-1
 432 231 l 1,23,-1
 682 231 l 2,24,25
 873 231 873 231 984.5 360.5 c 128,-1,26
 1096 490 1096 490 1096 715 c 256,14,15
EndSplineSet
Validated: 1
EndChar

StartChar: eth
Encoding: 240 240 229
Width: 1251
GlyphClass: 2
Flags: W
AnchorPoint: "Anchor21" 680 0 basechar 0
AnchorPoint: "Anchor18" 1479 1840 basechar 0
AnchorPoint: "Anchor19" 0 1840 basechar 0
AnchorPoint: "Anchor16" 1251 1540 basechar 0
AnchorPoint: "Anchor17" 1251 -380 basechar 0
AnchorPoint: "Anchor10" 620 1540 basechar 0
AnchorPoint: "Anchor11" 1240 1540 basechar 0
AnchorPoint: "Anchor12" 620 -130 basechar 0
LayerCount: 2
Fore
SplineSet
856 1266 m 1,0,1
 1171 946 1171 946 1171 541 c 2,2,-1
 1171 537 l 2,3,4
 1171 276 1171 276 1026.5 129 c 128,-1,5
 882 -18 882 -18 623 -18 c 0,6,7
 372 -18 372 -18 226 115 c 128,-1,8
 80 248 80 248 80 479 c 0,9,10
 80 711 80 711 224.5 842 c 128,-1,11
 369 973 369 973 627 973 c 0,12,13
 732 973 732 973 790 941 c 1,14,15
 726 1077 726 1077 640 1176 c 1,16,-1
 348 1054 l 1,17,-1
 348 1238 l 1,18,-1
 514 1308 l 1,19,20
 426 1379 426 1379 256 1484 c 1,21,-1
 549 1484 l 1,22,23
 645 1436 645 1436 709 1390 c 1,24,-1
 977 1503 l 1,25,-1
 977 1315 l 1,26,-1
 856 1266 l 1,0,1
877 477 m 0,27,28
 877 637 877 637 814 708.5 c 128,-1,29
 751 780 751 780 631 780 c 0,30,31
 375 780 375 780 375 477 c 0,32,33
 375 329 375 329 437 250.5 c 128,-1,34
 499 172 499 172 618 172 c 0,35,36
 743 172 743 172 810 244 c 128,-1,37
 877 316 877 316 877 477 c 0,27,28
EndSplineSet
Validated: 1
EndChar

StartChar: Thorn
Encoding: 222 222 232
Width: 1366
GlyphClass: 2
Flags: W
AnchorPoint: "Anchor21" 180 0 basechar 0
AnchorPoint: "Anchor18" 1479 1840 basechar 0
AnchorPoint: "Anchor19" 0 1840 basechar 0
AnchorPoint: "Anchor16" 1366 1540 basechar 0
AnchorPoint: "Anchor17" 1366 -380 basechar 0
AnchorPoint: "Anchor10" 650 1540 basechar 0
AnchorPoint: "Anchor11" 1100 1540 basechar 0
AnchorPoint: "Anchor12" 650 -130 basechar 0
LayerCount: 2
Fore
SplineSet
1296 737 m 0,0,1
 1296 603 1296 603 1235.5 500 c 128,-1,2
 1175 397 1175 397 1058.5 340 c 128,-1,3
 942 283 942 283 782 283 c 2,4,-1
 432 283 l 1,5,-1
 432 0 l 1,6,-1
 137 0 l 1,7,-1
 137 1409 l 1,8,-1
 432 1409 l 1,9,-1
 432 1176 l 1,10,-1
 770 1176 l 2,11,12
 1024 1176 1024 1176 1160 1062.5 c 128,-1,13
 1296 949 1296 949 1296 737 c 0,0,1
999 733 m 0,14,15
 999 843 999 843 933.5 905 c 128,-1,16
 868 967 868 967 737 967 c 2,17,-1
 432 967 l 1,18,-1
 432 492 l 1,19,-1
 745 492 l 2,20,21
 866 492 866 492 932.5 555.5 c 128,-1,22
 999 619 999 619 999 733 c 0,14,15
EndSplineSet
Validated: 1
EndChar

StartChar: thorn
Encoding: 254 254 233
Width: 1251
GlyphClass: 2
Flags: W
AnchorPoint: "Anchor21" 200 -400 basechar 0
AnchorPoint: "Anchor18" 1479 1840 basechar 0
AnchorPoint: "Anchor19" 0 1840 basechar 0
AnchorPoint: "Anchor16" 1251 1540 basechar 0
AnchorPoint: "Anchor17" 1251 -380 basechar 0
AnchorPoint: "Anchor10" 680 1200 basechar 0
AnchorPoint: "Anchor11" 1120 1200 basechar 0
AnchorPoint: "Anchor12" 680 -540 basechar 0
LayerCount: 2
Fore
SplineSet
143 1484 m 1,0,-1
 424 1484 l 1,1,-1
 424 1022 l 1,2,-1
 420 854 l 1,3,-1
 424 854 l 1,4,5
 519 1053 519 1053 770 1053 c 0,6,7
 961 1053 961 1053 1064 912.5 c 128,-1,8
 1167 772 1167 772 1167 520 c 0,9,10
 1167 263 1167 263 1058.5 121.5 c 128,-1,11
 950 -20 950 -20 752 -20 c 0,12,13
 638 -20 638 -20 553.5 29.5 c 128,-1,14
 469 79 469 79 424 172 c 1,15,-1
 418 172 l 1,16,17
 424 142 424 142 424 -10 c 2,18,-1
 424 -425 l 1,19,-1
 143 -425 l 1,20,-1
 143 1484 l 1,0,-1
874 520 m 0,21,22
 874 692 874 692 818.5 775 c 128,-1,23
 763 858 763 858 651 858 c 0,24,25
 538 858 538 858 479 766.5 c 128,-1,26
 420 675 420 675 420 512 c 256,27,28
 420 349 420 349 479.5 260.5 c 128,-1,29
 539 172 539 172 649 172 c 0,30,31
 874 172 874 172 874 520 c 0,21,22
EndSplineSet
Validated: 1
EndChar

StartChar: minus
Encoding: 8722 8722 234
Width: 1196
GlyphClass: 2
Flags: W
LayerCount: 2
Fore
SplineSet
85 569 m 1,0,-1
 85 793 l 1,1,-1
 1112 793 l 1,2,-1
 1112 569 l 1,3,-1
 85 569 l 1,0,-1
EndSplineSet
Validated: 1
EndChar

StartChar: multiply
Encoding: 215 215 235
Width: 1196
GlyphClass: 2
Flags: W
LayerCount: 2
Fore
SplineSet
86 326 m 1,0,-1
 442 684 l 1,1,-1
 90 1036 l 1,2,-1
 248 1192 l 1,3,-1
 600 842 l 1,4,-1
 952 1194 l 1,5,-1
 1110 1036 l 1,6,-1
 758 682 l 1,7,-1
 1110 332 l 1,8,-1
 952 172 l 1,9,-1
 600 526 l 1,10,-1
 244 168 l 1,11,-1
 86 326 l 1,0,-1
EndSplineSet
Validated: 1
EndChar

StartChar: onesuperior
Encoding: 185 185 236
Width: 682
GlyphClass: 2
Flags: W
LayerCount: 2
Fore
SplineSet
82 694 m 1,0,-1
 82 815 l 1,1,-1
 266 815 l 1,2,-1
 266 1283 l 1,3,-1
 93 1175 l 1,4,-1
 93 1297 l 1,5,-1
 273 1414 l 1,6,-1
 448 1414 l 1,7,-1
 448 815 l 1,8,-1
 618 815 l 1,9,-1
 618 694 l 1,10,-1
 82 694 l 1,0,-1
EndSplineSet
Validated: 1
EndChar

StartChar: twosuperior
Encoding: 178 178 237
Width: 682
GlyphClass: 2
Flags: W
LayerCount: 2
Fore
SplineSet
53 694 m 1,0,-1
 51 815 l 1,1,2
 80 876 80 876 133 928.5 c 128,-1,3
 186 981 186 981 277 1040 c 0,4,5
 364 1096 364 1096 396 1132.5 c 128,-1,6
 428 1169 428 1169 428 1208 c 0,7,8
 428 1299 428 1299 347 1299 c 0,9,10
 262 1299 262 1299 252 1201 c 1,11,-1
 58 1206 l 1,12,13
 71 1305 71 1305 147 1365.5 c 128,-1,14
 223 1426 223 1426 347 1426 c 0,15,16
 478 1426 478 1426 552 1370.5 c 128,-1,17
 626 1315 626 1315 626 1216 c 0,18,19
 626 1091 626 1091 473 993 c 0,20,21
 370 927 370 927 331.5 896 c 128,-1,22
 293 865 293 865 277 832 c 1,23,-1
 639 832 l 1,24,-1
 639 694 l 1,25,-1
 53 694 l 1,0,-1
EndSplineSet
Validated: 1
EndChar

StartChar: threesuperior
Encoding: 179 179 238
Width: 682
GlyphClass: 2
Flags: W
LayerCount: 2
Fore
SplineSet
638 895 m 0,0,1
 638 796 638 796 563 740 c 128,-1,2
 488 684 488 684 350 684 c 0,3,4
 215 684 215 684 136 736 c 128,-1,5
 57 788 57 788 44 892 c 1,6,-1
 233 904 l 1,7,8
 243 811 243 811 347 811 c 0,9,10
 449 811 449 811 449 907 c 0,11,12
 449 1000 449 1000 310 1000 c 2,13,-1
 254 1000 l 1,14,-1
 254 1126 l 1,15,-1
 305 1126 l 2,16,17
 368 1126 368 1126 400 1149.5 c 128,-1,18
 432 1173 432 1173 432 1216 c 0,19,20
 432 1255 432 1255 409 1277 c 128,-1,21
 386 1299 386 1299 343 1299 c 0,22,23
 255 1299 255 1299 245 1210 c 1,24,-1
 59 1222 l 1,25,26
 70 1316 70 1316 146.5 1371 c 128,-1,27
 223 1426 223 1426 348 1426 c 0,28,29
 476 1426 476 1426 547.5 1374.5 c 128,-1,30
 619 1323 619 1323 619 1238 c 0,31,32
 619 1174 619 1174 582.5 1128.5 c 128,-1,33
 546 1083 546 1083 467 1067 c 1,34,-1
 467 1065 l 1,35,36
 550 1056 550 1056 594 1010 c 128,-1,37
 638 964 638 964 638 895 c 0,0,1
EndSplineSet
Validated: 1
EndChar

StartChar: franc
Encoding: 8355 8355 242
Width: 1139
GlyphClass: 2
Flags: W
LayerCount: 2
Fore
SplineSet
422 1201 m 1,0,-1
 422 805 l 1,1,-1
 1059 805 l 1,2,-1
 1059 597 l 1,3,-1
 422 597 l 1,4,-1
 422 407 l 1,5,-1
 736 407 l 1,6,-1
 736 258 l 1,7,-1
 422 258 l 1,8,-1
 422 0 l 1,9,-1
 137 0 l 1,10,-1
 137 258 l 1,11,-1
 7 258 l 1,12,-1
 7 407 l 1,13,-1
 137 407 l 1,14,-1
 137 1409 l 1,15,-1
 1092 1409 l 1,16,-1
 1092 1201 l 1,17,-1
 422 1201 l 1,0,-1
EndSplineSet
Validated: 1
EndChar

StartChar: dcroat
Encoding: 273 273 252
Width: 1251
GlyphClass: 2
Flags: W
AnchorPoint: "Anchor21" 920 0 basechar 0
AnchorPoint: "Anchor18" 1479 1840 basechar 0
AnchorPoint: "Anchor19" 0 1840 basechar 0
AnchorPoint: "Anchor16" 1251 1540 basechar 0
AnchorPoint: "Anchor17" 1251 -380 basechar 0
AnchorPoint: "Anchor10" 560 1200 basechar 0
AnchorPoint: "Anchor11" 1000 1200 basechar 0
AnchorPoint: "Anchor12" 560 -130 basechar 0
LayerCount: 2
Fore
SplineSet
827 1345 m 1,0,-1
 827 1484 l 1,1,-1
 1109 1484 l 1,2,-1
 1109 1345 l 1,3,-1
 1241 1345 l 1,4,-1
 1241 1175 l 1,5,-1
 1109 1175 l 1,6,-1
 1109 236 l 2,7,8
 1109 136 1109 136 1117 0 c 1,9,-1
 845 0 l 1,10,11
 841 15 841 15 835.5 75.5 c 128,-1,12
 830 136 830 136 830 176 c 1,13,-1
 826 176 l 1,14,15
 735 -20 735 -20 479 -20 c 0,16,17
 291 -20 291 -20 187.5 121.5 c 128,-1,18
 84 263 84 263 84 521 c 0,19,20
 84 781 84 781 192 921.5 c 128,-1,21
 300 1062 300 1062 500 1062 c 0,22,23
 615 1062 615 1062 698.5 1014 c 128,-1,24
 782 966 782 966 827 871 c 1,25,-1
 829 871 l 1,26,-1
 827 1049 l 1,27,-1
 827 1175 l 1,28,-1
 541 1175 l 1,29,-1
 541 1345 l 1,30,-1
 827 1345 l 1,0,-1
831 529 m 0,31,32
 831 696 831 696 773 785 c 128,-1,33
 715 874 715 874 600 874 c 0,34,35
 487 874 487 874 432 789 c 128,-1,36
 377 704 377 704 377 522 c 0,37,38
 377 172 377 172 598 172 c 0,39,40
 711 172 711 172 771 265.5 c 128,-1,41
 831 359 831 359 831 529 c 0,31,32
EndSplineSet
Validated: 1
EndChar

StartChar: macron
Encoding: 175 175 253
Width: 1131
GlyphClass: 2
Flags: W
LayerCount: 2
Fore
SplineSet
1148 1452 m 1,0,-1
 -17 1452 l 1,1,-1
 -17 1546 l 1,2,-1
 1148 1546 l 1,3,-1
 1148 1452 l 1,0,-1
EndSplineSet
Validated: 1
EndChar

StartChar: periodcentered
Encoding: 183 183 254
Width: 682
GlyphClass: 2
Flags: W
LayerCount: 2
Fore
SplineSet
141 531 m 1,0,-1
 141 836 l 1,1,-1
 429 836 l 1,2,-1
 429 531 l 1,3,-1
 141 531 l 1,0,-1
EndSplineSet
Validated: 1
EndChar

StartChar: Gamma
Encoding: 915 915 296
Width: 1231
GlyphClass: 2
Flags: W
LayerCount: 2
Fore
SplineSet
1198 1409 m 1,0,-1
 1198 1181 l 1,1,-1
 432 1181 l 1,2,-1
 432 1 l 1,3,-1
 137 1 l 1,4,-1
 137 1409 l 1,5,-1
 1198 1409 l 1,0,-1
EndSplineSet
Validated: 1
EndChar

StartChar: Theta
Encoding: 920 920 297
Width: 1593
GlyphClass: 2
Flags: W
LayerCount: 2
Fore
SplineSet
502 827 m 1,0,-1
 1089 827 l 1,1,-1
 1089 599 l 1,2,-1
 502 599 l 1,3,-1
 502 827 l 1,0,-1
1507 711 m 0,4,5
 1507 491 1507 491 1420 324 c 128,-1,6
 1333 157 1333 157 1171 68.5 c 128,-1,7
 1009 -20 1009 -20 793 -20 c 0,8,9
 461 -20 461 -20 272.5 175.5 c 128,-1,10
 84 371 84 371 84 711 c 0,11,12
 84 1050 84 1050 272 1240 c 128,-1,13
 460 1430 460 1430 795 1430 c 256,14,15
 1130 1430 1130 1430 1318.5 1238 c 128,-1,16
 1507 1046 1507 1046 1507 711 c 0,4,5
1206 711 m 0,17,18
 1206 939 1206 939 1098 1068.5 c 128,-1,19
 990 1198 990 1198 795 1198 c 0,20,21
 597 1198 597 1198 489 1069.5 c 128,-1,22
 381 941 381 941 381 711 c 0,23,24
 381 479 381 479 491.5 345.5 c 128,-1,25
 602 212 602 212 793 212 c 0,26,27
 991 212 991 212 1098.5 342 c 128,-1,28
 1206 472 1206 472 1206 711 c 0,17,18
EndSplineSet
Validated: 1
EndChar

StartChar: Phi
Encoding: 934 934 298
Width: 1681
GlyphClass: 2
Flags: W
LayerCount: 2
Fore
SplineSet
1322 730 m 0,0,1
 1322 882 1322 882 1243 967 c 128,-1,2
 1164 1052 1164 1052 999 1052 c 2,3,-1
 980 1052 l 1,4,-1
 980 397 l 1,5,-1
 1006 397 l 2,6,7
 1158 397 1158 397 1240 483 c 128,-1,8
 1322 569 1322 569 1322 730 c 0,0,1
702 -11 m 1,9,-1
 702 188 l 1,10,-1
 648 188 l 2,11,12
 469 188 469 188 336 256.5 c 128,-1,13
 203 325 203 325 133 449.5 c 128,-1,14
 63 574 63 574 63 734 c 0,15,16
 63 985 63 985 218 1123 c 128,-1,17
 373 1261 373 1261 660 1261 c 2,18,-1
 702 1261 l 1,19,-1
 702 1419 l 1,20,-1
 980 1419 l 1,21,-1
 980 1261 l 1,22,-1
 1022 1261 l 2,23,24
 1308 1261 1308 1261 1463.5 1123 c 128,-1,25
 1619 985 1619 985 1619 734 c 0,26,27
 1619 573 1619 573 1549 449 c 128,-1,28
 1479 325 1479 325 1346 256.5 c 128,-1,29
 1213 188 1213 188 1034 188 c 2,30,-1
 980 188 l 1,31,-1
 980 -11 l 1,32,-1
 702 -11 l 1,9,-1
360 730 m 0,33,34
 360 570 360 570 441.5 483.5 c 128,-1,35
 523 397 523 397 676 397 c 2,36,-1
 702 397 l 1,37,-1
 702 1052 l 1,38,-1
 683 1052 l 2,39,40
 518 1052 518 1052 439 967 c 128,-1,41
 360 882 360 882 360 730 c 0,33,34
EndSplineSet
Validated: 1
EndChar

StartChar: alpha
Encoding: 945 945 299
Width: 1259
GlyphClass: 2
Flags: W
LayerCount: 2
Fore
SplineSet
860 237 m 1,0,1
 798 102 798 102 712 41 c 128,-1,2
 626 -20 626 -20 501 -20 c 0,3,4
 289 -20 289 -20 184.5 117.5 c 128,-1,5
 80 255 80 255 80 536 c 0,6,7
 80 820 80 820 193.5 961 c 128,-1,8
 307 1102 307 1102 527 1102 c 0,9,10
 658 1102 658 1102 752.5 1035.5 c 128,-1,11
 847 969 847 969 895 847 c 1,12,-1
 898 847 l 1,13,14
 923 971 923 971 973 1082 c 1,15,-1
 1238 1082 l 1,16,17
 1188 991 1188 991 1134.5 831 c 128,-1,18
 1081 671 1081 671 1069 556 c 1,19,20
 1101 247 1101 247 1205 0 c 1,21,-1
 935 0 l 1,22,23
 886 120 886 120 864 237 c 1,24,-1
 860 237 l 1,0,1
375 539 m 0,25,26
 375 343 375 343 417.5 258 c 128,-1,27
 460 173 460 173 556 173 c 0,28,29
 645 173 645 173 709 274 c 128,-1,30
 773 375 773 375 791 542 c 1,31,32
 769 720 769 720 710.5 814 c 128,-1,33
 652 908 652 908 564 908 c 0,34,35
 462 908 462 908 418.5 819 c 128,-1,36
 375 730 375 730 375 539 c 0,25,26
EndSplineSet
Validated: 1
EndChar

StartChar: delta
Encoding: 948 948 300
Width: 1242
GlyphClass: 2
Flags: W
LayerCount: 2
Fore
SplineSet
866 487 m 0,0,1
 866 597 866 597 820.5 696 c 128,-1,2
 775 795 775 795 667 903 c 1,3,4
 526 853 526 853 451 745.5 c 128,-1,5
 376 638 376 638 376 481 c 0,6,7
 376 336 376 336 438 256 c 128,-1,8
 500 176 500 176 612 176 c 0,9,10
 736 176 736 176 801 254 c 128,-1,11
 866 332 866 332 866 487 c 0,0,1
734 1294 m 1,12,-1
 587 1301 l 1,13,-1
 910 1008 l 2,14,15
 1041 889 1041 889 1098.5 762.5 c 128,-1,16
 1156 636 1156 636 1156 483 c 0,17,18
 1156 335 1156 335 1091.5 220.5 c 128,-1,19
 1027 106 1027 106 904 43 c 128,-1,20
 781 -20 781 -20 617 -20 c 0,21,22
 365 -20 365 -20 225.5 112.5 c 128,-1,23
 86 245 86 245 86 481 c 0,24,25
 86 863 86 863 551 1023 c 1,26,-1
 239 1337 l 1,27,-1
 239 1484 l 1,28,-1
 1092 1484 l 1,29,-1
 1092 1294 l 1,30,-1
 734 1294 l 1,12,-1
EndSplineSet
Validated: 1
EndChar

StartChar: epsilon
Encoding: 949 949 301
Width: 972
GlyphClass: 2
Flags: W
LayerCount: 2
Fore
SplineSet
526 168 m 0,0,1
 664 168 664 168 796 305 c 1,2,-1
 939 165 l 1,3,4
 866 90 866 90 806.5 55 c 128,-1,5
 747 20 747 20 672 0 c 128,-1,6
 597 -20 597 -20 497 -20 c 0,7,8
 298 -20 298 -20 187.5 63 c 128,-1,9
 77 146 77 146 77 297 c 0,10,11
 77 410 77 410 155.5 478.5 c 128,-1,12
 234 547 234 547 365 558 c 1,13,-1
 365 560 l 1,14,15
 246 572 246 572 178 639 c 128,-1,16
 110 706 110 706 110 812 c 0,17,18
 110 945 110 945 225.5 1023.5 c 128,-1,19
 341 1102 341 1102 533 1102 c 0,20,21
 670 1102 670 1102 761 1064 c 128,-1,22
 852 1026 852 1026 923 933 c 1,23,-1
 761 810 l 1,24,25
 719 867 719 867 668.5 895 c 128,-1,26
 618 923 618 923 549 923 c 0,27,28
 465 923 465 923 421 890.5 c 128,-1,29
 377 858 377 858 377 801 c 0,30,31
 377 725 377 725 447.5 688.5 c 128,-1,32
 518 652 518 652 705 652 c 1,33,-1
 705 475 l 1,34,35
 557 475 557 475 494.5 460 c 128,-1,36
 432 445 432 445 399 410.5 c 128,-1,37
 366 376 366 376 366 314 c 0,38,39
 366 242 366 242 408.5 205 c 128,-1,40
 451 168 451 168 526 168 c 0,0,1
EndSplineSet
Validated: 1
EndChar

StartChar: sigma
Encoding: 963 963 302
Width: 1401
GlyphClass: 2
Flags: W
LayerCount: 2
Fore
SplineSet
1170 458 m 0,0,1
 1170 234 1170 234 1027 107 c 128,-1,2
 884 -20 884 -20 628 -20 c 0,3,4
 365 -20 365 -20 222.5 119 c 128,-1,5
 80 258 80 258 80 524 c 0,6,7
 80 789 80 789 246 935.5 c 128,-1,8
 412 1082 412 1082 719 1082 c 2,9,-1
 1361 1082 l 1,10,-1
 1361 892 l 1,11,-1
 1166 892 l 1,12,-1
 1002 898 l 1,13,-1
 1002 894 l 1,14,15
 1090 781 1090 781 1130 674 c 128,-1,16
 1170 567 1170 567 1170 458 c 0,0,1
876 492 m 0,17,18
 876 708 876 708 774 892 c 1,19,-1
 700 892 l 2,20,21
 551 892 551 892 463 794 c 128,-1,22
 375 696 375 696 375 524 c 0,23,24
 375 172 375 172 621 172 c 0,25,26
 745 172 745 172 810.5 254 c 128,-1,27
 876 336 876 336 876 492 c 0,17,18
EndSplineSet
Validated: 1
EndChar

StartChar: tau
Encoding: 964 964 303
Width: 914
GlyphClass: 2
Flags: W
LayerCount: 2
Fore
SplineSet
270 892 m 2,0,1
 188 892 188 892 114 880 c 128,-1,2
 40 868 40 868 18 855 c 1,3,-1
 18 1053 l 1,4,5
 42 1065 42 1065 95.5 1073.5 c 128,-1,6
 149 1082 149 1082 201 1082 c 2,7,-1
 880 1082 l 1,8,-1
 880 892 l 1,9,-1
 575 892 l 1,10,-1
 575 312 l 2,11,12
 575 243 575 243 600.5 210 c 128,-1,13
 626 177 626 177 690 177 c 0,14,15
 728 177 728 177 771 185 c 1,16,-1
 795 7 l 1,17,18
 759 -3 759 -3 699.5 -12 c 128,-1,19
 640 -21 640 -21 596 -21 c 0,20,21
 297 -21 297 -21 297 251 c 2,22,-1
 297 892 l 1,23,-1
 270 892 l 2,0,1
EndSplineSet
Validated: 1
EndChar

StartChar: phi
Encoding: 966 966 304
Width: 1465
GlyphClass: 2
Flags: W
LayerCount: 2
Fore
SplineSet
1386 565 m 0,0,1
 1386 292 1386 292 1246.5 143.5 c 128,-1,2
 1107 -5 1107 -5 845 -18 c 1,3,-1
 845 -425 l 1,4,-1
 607 -425 l 1,5,-1
 607 -20 l 1,6,7
 350 -9 350 -9 215 134 c 128,-1,8
 80 277 80 277 80 544 c 0,9,10
 80 791 80 791 188 929 c 128,-1,11
 296 1067 296 1067 529 1106 c 1,12,-1
 550 927 l 1,13,14
 457 903 457 903 406 802.5 c 128,-1,15
 355 702 355 702 355 544 c 0,16,17
 355 368 355 368 419 272 c 128,-1,18
 483 176 483 176 607 167 c 1,19,-1
 607 702 l 2,20,21
 607 900 607 900 694 1002 c 128,-1,22
 781 1104 781 1104 967 1104 c 0,23,24
 1158 1104 1158 1104 1272 957.5 c 128,-1,25
 1386 811 1386 811 1386 565 c 0,0,1
1111 567 m 0,26,27
 1111 930 1111 930 968 930 c 0,28,29
 845 930 845 930 845 699 c 2,30,-1
 845 166 l 1,31,32
 973 172 973 172 1042 272 c 128,-1,33
 1111 372 1111 372 1111 567 c 0,26,27
EndSplineSet
Validated: 1
EndChar

StartChar: nsuperior
Encoding: 8319 8319 307
Width: 811
GlyphClass: 2
Flags: W
LayerCount: 2
Fore
SplineSet
531 519 m 1,0,-1
 531 903 l 2,1,2
 531 990 531 990 508 1023.5 c 128,-1,3
 485 1057 485 1057 425 1057 c 0,4,5
 363 1057 363 1057 326.5 1009 c 128,-1,6
 290 961 290 961 290 870 c 2,7,-1
 290 519 l 1,8,-1
 112 519 l 1,9,-1
 112 1030 l 1,10,-1
 108 1169 l 1,11,-1
 274 1169 l 1,12,13
 275 1166 275 1166 276 1152.5 c 128,-1,14
 277 1139 277 1139 278.5 1122 c 128,-1,15
 280 1105 280 1105 282 1058 c 1,16,-1
 285 1058 l 1,17,18
 320 1123 320 1123 369.5 1152 c 128,-1,19
 419 1181 419 1181 493 1181 c 0,20,21
 603 1181 603 1181 656.5 1127 c 128,-1,22
 710 1073 710 1073 710 952 c 2,23,-1
 710 519 l 1,24,-1
 531 519 l 1,0,-1
EndSplineSet
Validated: 1
EndChar

StartChar: peseta
Encoding: 8359 8359 308
Width: 2240
GlyphClass: 2
Flags: W
LayerCount: 2
Fore
SplineSet
1427 8 m 1,0,1
 1353 -16 1353 -16 1280 -16 c 0,2,3
 1155 -16 1155 -16 1098.5 45 c 128,-1,4
 1042 106 1042 106 1042 229 c 2,5,-1
 1042 647 l 1,6,-1
 938 647 l 1,7,-1
 938 760 l 1,8,9
 882 660 882 660 771.5 604.5 c 128,-1,10
 661 549 661 549 509 549 c 2,11,-1
 399 549 l 1,12,-1
 399 0 l 1,13,-1
 158 0 l 1,14,-1
 158 1409 l 1,15,-1
 472 1409 l 2,16,17
 721 1409 721 1409 857.5 1298 c 128,-1,18
 994 1187 994 1187 994 985 c 0,19,20
 994 894 994 894 963 813 c 1,21,-1
 1049 813 l 1,22,-1
 1137 1055 l 1,23,-1
 1262 1055 l 1,24,-1
 1262 813 l 1,25,-1
 1409 813 l 1,26,-1
 1409 647 l 1,27,-1
 1262 647 l 1,28,-1
 1262 278 l 2,29,30
 1262 209 1262 209 1282 180.5 c 128,-1,31
 1302 152 1302 152 1353 152 c 0,32,33
 1389 152 1389 152 1427 166 c 1,34,-1
 1427 8 l 1,0,1
2171 241 m 0,35,36
 2171 114 2171 114 2074 47 c 128,-1,37
 1977 -20 1977 -20 1798 -20 c 0,38,39
 1624 -20 1624 -20 1534 40 c 128,-1,40
 1444 100 1444 100 1414 230 c 1,41,-1
 1613 256 l 1,42,43
 1628 195 1628 195 1672.5 171 c 128,-1,44
 1717 147 1717 147 1796 147 c 0,45,46
 1889 147 1889 147 1925 166.5 c 128,-1,47
 1961 186 1961 186 1961 228 c 0,48,49
 1961 262 1961 262 1928.5 283 c 128,-1,50
 1896 304 1896 304 1821 319 c 0,51,52
 1698 343 1698 343 1640.5 361.5 c 128,-1,53
 1583 380 1583 380 1544 409 c 128,-1,54
 1505 438 1505 438 1481 481 c 128,-1,55
 1457 524 1457 524 1457 588 c 0,56,57
 1457 703 1457 703 1546 763.5 c 128,-1,58
 1635 824 1635 824 1806 824 c 0,59,60
 1955 824 1955 824 2043 760.5 c 128,-1,61
 2131 697 2131 697 2154 573 c 1,62,-1
 1953 556 l 1,63,64
 1944 604 1944 604 1907.5 630 c 128,-1,65
 1871 656 1871 656 1808 656 c 0,66,67
 1739 656 1739 656 1705.5 642.5 c 128,-1,68
 1672 629 1672 629 1672 593 c 0,69,70
 1672 566 1672 566 1701 549 c 128,-1,71
 1730 532 1730 532 1802 518 c 0,72,73
 1979 482 1979 482 2040.5 449 c 128,-1,74
 2102 416 2102 416 2136.5 364.5 c 128,-1,75
 2171 313 2171 313 2171 241 c 0,35,36
752 983 m 0,76,77
 752 1105 752 1105 686 1160.5 c 128,-1,78
 620 1216 620 1216 474 1216 c 2,79,-1
 399 1216 l 1,80,-1
 399 740 l 1,81,-1
 482 740 l 2,82,83
 625 740 625 740 688.5 798 c 128,-1,84
 752 856 752 856 752 983 c 0,76,77
EndSplineSet
Validated: 1
EndChar

StartChar: arrowleft
Encoding: 8592 8592 309
Width: 2048
GlyphClass: 2
Flags: W
LayerCount: 2
Fore
SplineSet
641 297 m 1,0,1
 698 230 698 230 760 100 c 1,2,-1
 688 100 l 1,3,4
 561 249 561 249 418 322 c 1,5,-1
 418 358 l 1,6,7
 561 431 561 431 688 580 c 1,8,-1
 760 580 l 1,9,10
 698 450 698 450 641 383 c 1,11,-1
 1630 383 l 1,12,-1
 1630 297 l 1,13,-1
 641 297 l 1,0,1
EndSplineSet
Validated: 1
EndChar

StartChar: arrowup
Encoding: 8593 8593 310
Width: 1024
GlyphClass: 2
Flags: W
LayerCount: 2
Fore
SplineSet
469 928 m 1,0,1
 402 871 402 871 272 809 c 1,2,-1
 272 881 l 1,3,4
 421 1008 421 1008 494 1151 c 1,5,-1
 530 1151 l 1,6,7
 603 1008 603 1008 752 881 c 1,8,-1
 752 809 l 1,9,10
 622 871 622 871 555 928 c 1,11,-1
 555 -61 l 1,12,-1
 469 -61 l 1,13,-1
 469 928 l 1,0,1
EndSplineSet
Validated: 1
EndChar

StartChar: arrowright
Encoding: 8594 8594 311
Width: 2048
GlyphClass: 2
Flags: W
LayerCount: 2
Fore
SplineSet
1407 383 m 1,0,1
 1350 450 1350 450 1288 580 c 1,2,-1
 1360 580 l 1,3,4
 1487 431 1487 431 1630 358 c 1,5,-1
 1630 322 l 1,6,7
 1487 249 1487 249 1360 100 c 1,8,-1
 1288 100 l 1,9,10
 1350 230 1350 230 1407 297 c 1,11,-1
 418 297 l 1,12,-1
 418 383 l 1,13,-1
 1407 383 l 1,0,1
EndSplineSet
Validated: 1
EndChar

StartChar: arrowdown
Encoding: 8595 8595 312
Width: 1024
GlyphClass: 2
Flags: W
LayerCount: 2
Fore
SplineSet
555 162 m 1,0,1
 622 219 622 219 752 281 c 1,2,-1
 752 209 l 1,3,4
 603 82 603 82 530 -61 c 1,5,-1
 494 -61 l 1,6,7
 421 82 421 82 272 209 c 1,8,-1
 272 281 l 1,9,10
 402 219 402 219 469 162 c 1,11,-1
 469 1151 l 1,12,-1
 555 1151 l 1,13,-1
 555 162 l 1,0,1
EndSplineSet
Validated: 1
EndChar

StartChar: arrowboth
Encoding: 8596 8596 313
Width: 2048
GlyphClass: 2
Flags: W
LayerCount: 2
Fore
SplineSet
641 297 m 1,0,1
 698 230 698 230 760 100 c 1,2,-1
 688 100 l 1,3,4
 561 249 561 249 418 322 c 1,5,-1
 418 358 l 1,6,7
 561 431 561 431 688 580 c 1,8,-1
 760 580 l 1,9,10
 698 450 698 450 641 383 c 1,11,-1
 1407 383 l 1,12,13
 1350 450 1350 450 1288 580 c 1,14,-1
 1360 580 l 1,15,16
 1487 431 1487 431 1630 358 c 1,17,-1
 1630 322 l 1,18,19
 1487 249 1487 249 1360 100 c 1,20,-1
 1288 100 l 1,21,22
 1350 230 1350 230 1407 297 c 1,23,-1
 641 297 l 1,0,1
EndSplineSet
Validated: 1
EndChar

StartChar: arrowupdn
Encoding: 8597 8597 314
Width: 1024
GlyphClass: 2
Flags: W
LayerCount: 2
Fore
SplineSet
469 928 m 1,0,1
 402 871 402 871 272 809 c 1,2,-1
 272 881 l 1,3,4
 421 1008 421 1008 494 1151 c 1,5,-1
 530 1151 l 1,6,7
 603 1008 603 1008 752 881 c 1,8,-1
 752 809 l 1,9,10
 622 871 622 871 555 928 c 1,11,-1
 555 162 l 1,12,13
 622 219 622 219 752 281 c 1,14,-1
 752 209 l 1,15,16
 603 82 603 82 530 -61 c 1,17,-1
 494 -61 l 1,18,19
 421 82 421 82 272 209 c 1,20,-1
 272 281 l 1,21,22
 402 219 402 219 469 162 c 1,23,-1
 469 928 l 1,0,1
EndSplineSet
Validated: 1
EndChar

StartChar: arrowupdnbse
Encoding: 8616 8616 315
Width: 1024
GlyphClass: 2
Flags: W
LayerCount: 2
Fore
SplineSet
272 -104 m 1,0,-1
 752 -104 l 1,1,-1
 752 -184 l 1,2,-1
 272 -184 l 1,3,-1
 272 -104 l 1,0,-1
469 928 m 1,4,5
 402 871 402 871 272 809 c 1,6,-1
 272 881 l 1,7,8
 421 1008 421 1008 494 1151 c 1,9,-1
 530 1151 l 1,10,11
 603 1008 603 1008 752 881 c 1,12,-1
 752 809 l 1,13,14
 622 871 622 871 555 928 c 1,15,-1
 555 162 l 1,16,17
 622 219 622 219 752 281 c 1,18,-1
 752 209 l 1,19,20
 603 82 603 82 530 -61 c 1,21,-1
 494 -61 l 1,22,23
 421 82 421 82 272 209 c 1,24,-1
 272 281 l 1,25,26
 402 219 402 219 469 162 c 1,27,-1
 469 928 l 1,4,5
EndSplineSet
Validated: 1
EndChar

StartChar: orthogonal
Encoding: 8735 8735 316
Width: 2005
GlyphClass: 2
Flags: W
LayerCount: 2
Fore
SplineSet
408 1223 m 1,0,-1
 502 1223 l 1,1,-1
 502 94 l 1,2,-1
 1632 94 l 1,3,-1
 1632 0 l 1,4,-1
 408 0 l 1,5,-1
 408 1223 l 1,0,-1
EndSplineSet
Validated: 1
EndChar

StartChar: intersection
Encoding: 8745 8745 317
Width: 1479
GlyphClass: 2
Flags: W
LayerCount: 2
Fore
SplineSet
281 -2 m 1,0,-1
 281 510 l 2,1,2
 281 660 281 660 339 779.5 c 128,-1,3
 397 899 397 899 501.5 965.5 c 128,-1,4
 606 1032 606 1032 736 1032 c 0,5,6
 867 1032 867 1032 972.5 966 c 128,-1,7
 1078 900 1078 900 1137.5 779 c 128,-1,8
 1197 658 1197 658 1197 510 c 2,9,-1
 1197 -2 l 1,10,-1
 1094 -2 l 1,11,-1
 1094 512 l 2,12,13
 1094 702 1094 702 996 816 c 128,-1,14
 898 930 898 930 738 930 c 0,15,16
 576 930 576 930 480 817 c 128,-1,17
 384 704 384 704 384 510 c 2,18,-1
 384 -2 l 1,19,-1
 281 -2 l 1,0,-1
EndSplineSet
Validated: 1
EndChar

StartChar: equivalence
Encoding: 8801 8801 318
Width: 1195
GlyphClass: 2
Flags: W
LayerCount: 2
Fore
SplineSet
100 956 m 5,0,-1
 100 1104 l 5,1,-1
 1095 1104 l 5,2,-1
 1095 956 l 5,3,-1
 100 956 l 5,0,-1
100 244 m 5,4,-1
 100 392 l 5,5,-1
 1095 392 l 5,6,-1
 1095 244 l 5,7,-1
 100 244 l 5,4,-1
100 600 m 5,8,-1
 100 748 l 5,9,-1
 1095 748 l 5,10,-1
 1095 600 l 5,11,-1
 100 600 l 5,8,-1
EndSplineSet
Validated: 1
EndChar

StartChar: house
Encoding: 8962 8962 319
Width: 1237
GlyphClass: 2
Flags: W
LayerCount: 2
Fore
SplineSet
157 0 m 1,0,-1
 157 635 l 1,1,-1
 618 1153 l 1,2,-1
 1079 635 l 1,3,-1
 1079 0 l 1,4,-1
 157 0 l 1,0,-1
237 82 m 1,5,-1
 999 82 l 1,6,-1
 999 600 l 1,7,-1
 618 1026 l 1,8,-1
 237 600 l 1,9,-1
 237 82 l 1,5,-1
EndSplineSet
Validated: 1
EndChar

StartChar: revlogicalnot
Encoding: 8976 8976 320
Width: 1196
GlyphClass: 2
Flags: W
LayerCount: 2
Fore
SplineSet
100 180 m 1,0,-1
 100 754 l 1,1,-1
 1095 754 l 1,2,-1
 1095 608 l 1,3,-1
 245 608 l 1,4,-1
 245 180 l 1,5,-1
 100 180 l 1,0,-1
EndSplineSet
Validated: 1
EndChar

StartChar: integraltp
Encoding: 8992 8992 321
Width: 1237
GlyphClass: 2
Flags: W
LayerCount: 2
Fore
SplineSet
693 -614 m 1,0,-1
 546 -614 l 1,1,-1
 546 1264 l 2,2,3
 546 1460 546 1460 630 1583 c 128,-1,4
 714 1706 714 1706 840 1706 c 0,5,6
 903 1706 903 1706 940.5 1674.5 c 128,-1,7
 978 1643 978 1643 978 1595 c 0,8,9
 978 1555 978 1555 952.5 1529 c 128,-1,10
 927 1503 927 1503 890 1503 c 0,11,12
 860 1503 860 1503 847 1513 c 1,13,14
 831 1521 831 1521 793 1563 c 1,15,16
 760 1602 760 1602 744 1602 c 0,17,18
 708 1602 708 1602 699 1563 c 1,19,20
 693 1528 693 1528 693 1423 c 2,21,-1
 693 -614 l 1,0,-1
EndSplineSet
Validated: 1
EndChar

StartChar: integralbt
Encoding: 8993 8993 322
Width: 1237
GlyphClass: 2
Flags: W
LayerCount: 2
Fore
SplineSet
546 1706 m 1,0,-1
 693 1706 l 1,1,-1
 693 -174 l 2,2,3
 693 -369 693 -369 611.5 -491.5 c 128,-1,4
 530 -614 530 -614 398 -614 c 0,5,6
 339 -614 339 -614 300 -583.5 c 128,-1,7
 261 -553 261 -553 261 -506 c 0,8,9
 261 -467 261 -467 286 -440.5 c 128,-1,10
 311 -414 311 -414 347 -414 c 0,11,12
 380 -414 380 -414 406 -430 c 1,13,14
 416 -434 416 -434 447 -475 c 1,15,16
 478 -512 478 -512 494 -512 c 0,17,18
 523 -512 523 -512 534.5 -486.5 c 128,-1,19
 546 -461 546 -461 546 -334 c 2,20,-1
 546 1706 l 1,0,-1
EndSplineSet
Validated: 1
EndChar

StartChar: uni2500
Encoding: 9472 9472 323
Width: 1451
GlyphClass: 2
Flags: W
LayerCount: 2
Fore
SplineSet
-10 549 m 1,0,-1
 -10 694 l 1,1,-1
 1461 694 l 1,2,-1
 1461 549 l 1,3,-1
 -10 549 l 1,0,-1
EndSplineSet
Validated: 1
EndChar

StartChar: uni2502
Encoding: 9474 9474 324
Width: 1280
GlyphClass: 2
Flags: W
LayerCount: 2
Fore
SplineSet
472 1864 m 1,0,-1
 617 1864 l 1,1,-1
 617 -621 l 1,2,-1
 472 -621 l 1,3,-1
 472 1864 l 1,0,-1
EndSplineSet
Validated: 1
EndChar

StartChar: uni250C
Encoding: 9484 9484 325
Width: 1451
GlyphClass: 2
Flags: W
LayerCount: 2
Fore
SplineSet
653 694 m 1,0,-1
 1461 694 l 1,1,-1
 1461 549 l 1,2,-1
 798 549 l 1,3,-1
 798 -621 l 1,4,-1
 653 -621 l 1,5,-1
 653 694 l 1,0,-1
EndSplineSet
Validated: 1
EndChar

StartChar: uni2510
Encoding: 9488 9488 326
Width: 1451
GlyphClass: 2
Flags: W
LayerCount: 2
Fore
SplineSet
-10 549 m 1,0,-1
 -10 694 l 1,1,-1
 798 694 l 1,2,-1
 798 -621 l 1,3,-1
 653 -621 l 1,4,-1
 653 549 l 1,5,-1
 -10 549 l 1,0,-1
EndSplineSet
Validated: 1
EndChar

StartChar: uni2514
Encoding: 9492 9492 327
Width: 1451
GlyphClass: 2
Flags: W
LayerCount: 2
Fore
SplineSet
653 1864 m 1,0,-1
 798 1864 l 1,1,-1
 798 694 l 1,2,-1
 1461 694 l 1,3,-1
 1461 549 l 1,4,-1
 653 549 l 1,5,-1
 653 1864 l 1,0,-1
EndSplineSet
Validated: 1
EndChar

StartChar: uni2518
Encoding: 9496 9496 328
Width: 1451
GlyphClass: 2
Flags: W
LayerCount: 2
Fore
SplineSet
-10 549 m 1,0,-1
 -10 694 l 1,1,-1
 653 694 l 1,2,-1
 653 1864 l 1,3,-1
 798 1864 l 1,4,-1
 798 549 l 1,5,-1
 -10 549 l 1,0,-1
EndSplineSet
Validated: 1
EndChar

StartChar: uni251C
Encoding: 9500 9500 329
Width: 1451
GlyphClass: 2
Flags: W
LayerCount: 2
Fore
SplineSet
653 1864 m 1,0,-1
 798 1864 l 1,1,-1
 798 694 l 1,2,-1
 1461 694 l 1,3,-1
 1461 549 l 1,4,-1
 798 549 l 1,5,-1
 798 -621 l 1,6,-1
 653 -621 l 1,7,-1
 653 1864 l 1,0,-1
EndSplineSet
Validated: 1
EndChar

StartChar: uni2524
Encoding: 9508 9508 330
Width: 1451
GlyphClass: 2
Flags: W
LayerCount: 2
Fore
SplineSet
-10 549 m 1,0,-1
 -10 694 l 1,1,-1
 653 694 l 1,2,-1
 653 1864 l 1,3,-1
 798 1864 l 1,4,-1
 798 -621 l 1,5,-1
 653 -621 l 1,6,-1
 653 549 l 1,7,-1
 -10 549 l 1,0,-1
EndSplineSet
Validated: 1
EndChar

StartChar: uni252C
Encoding: 9516 9516 331
Width: 1451
GlyphClass: 2
Flags: W
LayerCount: 2
Fore
SplineSet
-10 549 m 1,0,-1
 -10 694 l 1,1,-1
 1461 694 l 1,2,-1
 1461 549 l 1,3,-1
 798 549 l 1,4,-1
 798 -621 l 1,5,-1
 653 -621 l 1,6,-1
 653 549 l 1,7,-1
 -10 549 l 1,0,-1
EndSplineSet
Validated: 1
EndChar

StartChar: uni2534
Encoding: 9524 9524 332
Width: 1451
GlyphClass: 2
Flags: W
LayerCount: 2
Fore
SplineSet
-10 549 m 1,0,-1
 -10 694 l 1,1,-1
 653 694 l 1,2,-1
 653 1864 l 1,3,-1
 798 1864 l 1,4,-1
 798 694 l 1,5,-1
 1461 694 l 1,6,-1
 1461 549 l 1,7,-1
 -10 549 l 1,0,-1
EndSplineSet
Validated: 1
EndChar

StartChar: uni253C
Encoding: 9532 9532 333
Width: 1451
GlyphClass: 2
Flags: W
LayerCount: 2
Fore
SplineSet
-10 549 m 1,0,-1
 -10 694 l 1,1,-1
 653 694 l 1,2,-1
 653 1864 l 1,3,-1
 798 1864 l 1,4,-1
 798 694 l 1,5,-1
 1461 694 l 1,6,-1
 1461 549 l 1,7,-1
 798 549 l 1,8,-1
 798 -621 l 1,9,-1
 653 -621 l 1,10,-1
 653 549 l 1,11,-1
 -10 549 l 1,0,-1
EndSplineSet
Validated: 1
EndChar

StartChar: uni2550
Encoding: 9552 9552 334
Width: 1451
GlyphClass: 2
Flags: W
LayerCount: 2
Fore
SplineSet
-10 729 m 1,0,-1
 -10 874 l 1,1,-1
 1461 874 l 1,2,-1
 1461 729 l 1,3,-1
 -10 729 l 1,0,-1
-10 369 m 1,4,-1
 -10 514 l 1,5,-1
 1461 514 l 1,6,-1
 1461 369 l 1,7,-1
 -10 369 l 1,4,-1
EndSplineSet
Validated: 1
EndChar

StartChar: uni2551
Encoding: 9553 9553 335
Width: 1451
GlyphClass: 2
Flags: W
LayerCount: 2
Fore
SplineSet
473 1864 m 1,0,-1
 618 1864 l 1,1,-1
 618 -621 l 1,2,-1
 473 -621 l 1,3,-1
 473 1864 l 1,0,-1
833 1864 m 1,4,-1
 978 1864 l 1,5,-1
 978 -621 l 1,6,-1
 833 -621 l 1,7,-1
 833 1864 l 1,4,-1
EndSplineSet
Validated: 1
EndChar

StartChar: uni2552
Encoding: 9554 9554 336
Width: 1451
GlyphClass: 2
Flags: W
LayerCount: 2
Fore
SplineSet
653 874 m 1,0,-1
 1461 874 l 1,1,-1
 1461 729 l 1,2,-1
 798 729 l 1,3,-1
 798 514 l 1,4,-1
 1461 514 l 1,5,-1
 1461 369 l 1,6,-1
 798 369 l 1,7,-1
 798 -621 l 1,8,-1
 653 -621 l 1,9,-1
 653 874 l 1,0,-1
EndSplineSet
Validated: 1
EndChar

StartChar: uni2553
Encoding: 9555 9555 337
Width: 1451
GlyphClass: 2
Flags: W
LayerCount: 2
Fore
SplineSet
1461 694 m 1,0,-1
 1461 549 l 1,1,-1
 978 549 l 1,2,-1
 978 -621 l 1,3,-1
 833 -621 l 1,4,-1
 833 549 l 1,5,-1
 618 549 l 1,6,-1
 618 -621 l 1,7,-1
 473 -621 l 1,8,-1
 473 694 l 1,9,-1
 1461 694 l 1,0,-1
EndSplineSet
Validated: 1
EndChar

StartChar: uni2554
Encoding: 9556 9556 338
Width: 1451
GlyphClass: 2
Flags: W
LayerCount: 2
Fore
SplineSet
473 874 m 1,0,-1
 1461 874 l 1,1,-1
 1461 729 l 1,2,-1
 618 729 l 1,3,-1
 618 -621 l 1,4,-1
 473 -621 l 1,5,-1
 473 874 l 1,0,-1
833 514 m 1,6,-1
 1461 514 l 1,7,-1
 1461 369 l 1,8,-1
 978 369 l 1,9,-1
 978 -621 l 1,10,-1
 833 -621 l 1,11,-1
 833 514 l 1,6,-1
EndSplineSet
Validated: 1
EndChar

StartChar: uni2555
Encoding: 9557 9557 339
Width: 1451
GlyphClass: 2
Flags: W
LayerCount: 2
Fore
SplineSet
-10 369 m 1,0,-1
 -10 514 l 1,1,-1
 653 514 l 1,2,-1
 653 729 l 1,3,-1
 -10 729 l 1,4,-1
 -10 874 l 1,5,-1
 798 874 l 1,6,-1
 798 -621 l 1,7,-1
 653 -621 l 1,8,-1
 653 369 l 1,9,-1
 -10 369 l 1,0,-1
EndSplineSet
Validated: 1
EndChar

StartChar: uni2556
Encoding: 9558 9558 340
Width: 1451
GlyphClass: 2
Flags: W
LayerCount: 2
Fore
SplineSet
-10 549 m 1,0,-1
 -10 694 l 1,1,-1
 978 694 l 1,2,-1
 978 -621 l 1,3,-1
 833 -621 l 1,4,-1
 833 549 l 1,5,-1
 618 549 l 1,6,-1
 618 -621 l 1,7,-1
 473 -621 l 1,8,-1
 473 549 l 1,9,-1
 -10 549 l 1,0,-1
EndSplineSet
Validated: 1
EndChar

StartChar: uni2557
Encoding: 9559 9559 341
Width: 1451
GlyphClass: 2
Flags: W
LayerCount: 2
Fore
SplineSet
978 874 m 1,0,-1
 978 -621 l 1,1,-1
 833 -621 l 1,2,-1
 833 729 l 1,3,-1
 -10 729 l 1,4,-1
 -10 874 l 1,5,-1
 978 874 l 1,0,-1
618 -621 m 1,6,-1
 473 -621 l 1,7,-1
 473 369 l 1,8,-1
 -10 369 l 1,9,-1
 -10 514 l 1,10,-1
 618 514 l 1,11,-1
 618 -621 l 1,6,-1
EndSplineSet
Validated: 1
EndChar

StartChar: uni2558
Encoding: 9560 9560 342
Width: 1451
GlyphClass: 2
Flags: W
LayerCount: 2
Fore
SplineSet
653 1864 m 1,0,-1
 798 1864 l 1,1,-1
 798 874 l 1,2,-1
 1461 874 l 1,3,-1
 1461 729 l 1,4,-1
 798 729 l 1,5,-1
 798 514 l 1,6,-1
 1461 514 l 1,7,-1
 1461 369 l 1,8,-1
 653 369 l 1,9,-1
 653 1864 l 1,0,-1
EndSplineSet
Validated: 1
EndChar

StartChar: uni2559
Encoding: 9561 9561 343
Width: 1451
GlyphClass: 2
Flags: W
LayerCount: 2
Fore
SplineSet
833 1864 m 1,0,-1
 978 1864 l 1,1,-1
 978 694 l 1,2,-1
 1461 694 l 1,3,-1
 1461 549 l 1,4,-1
 473 549 l 1,5,-1
 473 1864 l 1,6,-1
 618 1864 l 1,7,-1
 618 694 l 1,8,-1
 833 694 l 1,9,-1
 833 1864 l 1,0,-1
EndSplineSet
Validated: 1
EndChar

StartChar: uni255A
Encoding: 9562 9562 344
Width: 1451
GlyphClass: 2
Flags: W
LayerCount: 2
Fore
SplineSet
473 1864 m 1,0,-1
 618 1864 l 1,1,-1
 618 514 l 1,2,-1
 1461 514 l 1,3,-1
 1461 369 l 1,4,-1
 473 369 l 1,5,-1
 473 1864 l 1,0,-1
833 1864 m 1,6,-1
 978 1864 l 1,7,-1
 978 874 l 1,8,-1
 1461 874 l 1,9,-1
 1461 729 l 1,10,-1
 833 729 l 1,11,-1
 833 1864 l 1,6,-1
EndSplineSet
Validated: 1
EndChar

StartChar: uni255B
Encoding: 9563 9563 345
Width: 1451
GlyphClass: 2
Flags: W
LayerCount: 2
Fore
SplineSet
-10 369 m 1,0,-1
 -10 514 l 1,1,-1
 653 514 l 1,2,-1
 653 729 l 1,3,-1
 -10 729 l 1,4,-1
 -10 874 l 1,5,-1
 653 874 l 1,6,-1
 653 1864 l 1,7,-1
 798 1864 l 1,8,-1
 798 369 l 1,9,-1
 -10 369 l 1,0,-1
EndSplineSet
Validated: 1
EndChar

StartChar: uni255C
Encoding: 9564 9564 346
Width: 1451
GlyphClass: 2
Flags: W
LayerCount: 2
Fore
SplineSet
978 549 m 1,0,-1
 -10 549 l 1,1,-1
 -10 694 l 1,2,-1
 473 694 l 1,3,-1
 473 1864 l 1,4,-1
 618 1864 l 1,5,-1
 618 694 l 1,6,-1
 833 694 l 1,7,-1
 833 1864 l 1,8,-1
 978 1864 l 1,9,-1
 978 549 l 1,0,-1
EndSplineSet
Validated: 1
EndChar

StartChar: uni255D
Encoding: 9565 9565 347
Width: 1451
GlyphClass: 2
Flags: W
LayerCount: 2
Fore
SplineSet
978 369 m 1,0,-1
 -10 369 l 1,1,-1
 -10 514 l 1,2,-1
 833 514 l 1,3,-1
 833 1864 l 1,4,-1
 978 1864 l 1,5,-1
 978 369 l 1,0,-1
473 1864 m 1,6,-1
 618 1864 l 1,7,-1
 618 729 l 1,8,-1
 -10 729 l 1,9,-1
 -10 874 l 1,10,-1
 473 874 l 1,11,-1
 473 1864 l 1,6,-1
EndSplineSet
Validated: 1
EndChar

StartChar: uni255E
Encoding: 9566 9566 348
Width: 1451
GlyphClass: 2
Flags: W
LayerCount: 2
Fore
SplineSet
653 1864 m 1,0,-1
 798 1864 l 1,1,-1
 798 874 l 1,2,-1
 1461 874 l 1,3,-1
 1461 729 l 1,4,-1
 798 729 l 1,5,-1
 798 514 l 1,6,-1
 1461 514 l 1,7,-1
 1461 369 l 1,8,-1
 798 369 l 1,9,-1
 798 -621 l 1,10,-1
 653 -621 l 1,11,-1
 653 1864 l 1,0,-1
EndSplineSet
Validated: 1
EndChar

StartChar: uni255F
Encoding: 9567 9567 349
Width: 1451
GlyphClass: 2
Flags: W
LayerCount: 2
Fore
SplineSet
833 1864 m 1,0,-1
 978 1864 l 1,1,-1
 978 694 l 1,2,-1
 1461 694 l 1,3,-1
 1461 549 l 1,4,-1
 978 549 l 1,5,-1
 978 -621 l 1,6,-1
 833 -621 l 1,7,-1
 833 1864 l 1,0,-1
473 1864 m 1,8,-1
 618 1864 l 1,9,-1
 618 -621 l 1,10,-1
 473 -621 l 1,11,-1
 473 1864 l 1,8,-1
EndSplineSet
Validated: 1
EndChar

StartChar: uni2560
Encoding: 9568 9568 350
Width: 1451
GlyphClass: 2
Flags: W
LayerCount: 2
Fore
SplineSet
618 -621 m 1,0,-1
 473 -621 l 1,1,-1
 473 1864 l 1,2,-1
 618 1864 l 1,3,-1
 618 -621 l 1,0,-1
833 514 m 1,4,-1
 1461 514 l 1,5,-1
 1461 369 l 1,6,-1
 978 369 l 1,7,-1
 978 -621 l 1,8,-1
 833 -621 l 1,9,-1
 833 514 l 1,4,-1
833 1864 m 1,10,-1
 978 1864 l 1,11,-1
 978 874 l 1,12,-1
 1461 874 l 1,13,-1
 1461 729 l 1,14,-1
 833 729 l 1,15,-1
 833 1864 l 1,10,-1
EndSplineSet
Validated: 1
EndChar

StartChar: uni2561
Encoding: 9569 9569 351
Width: 1451
GlyphClass: 2
Flags: W
LayerCount: 2
Fore
SplineSet
-10 369 m 1,0,-1
 -10 514 l 1,1,-1
 653 514 l 1,2,-1
 653 729 l 1,3,-1
 -10 729 l 1,4,-1
 -10 874 l 1,5,-1
 653 874 l 1,6,-1
 653 1864 l 1,7,-1
 798 1864 l 1,8,-1
 798 -621 l 1,9,-1
 653 -621 l 1,10,-1
 653 369 l 1,11,-1
 -10 369 l 1,0,-1
EndSplineSet
Validated: 1
EndChar

StartChar: uni2562
Encoding: 9570 9570 352
Width: 1451
GlyphClass: 2
Flags: W
LayerCount: 2
Fore
SplineSet
-10 549 m 1,0,-1
 -10 694 l 1,1,-1
 473 694 l 1,2,-1
 473 1864 l 1,3,-1
 618 1864 l 1,4,-1
 618 -621 l 1,5,-1
 473 -621 l 1,6,-1
 473 549 l 1,7,-1
 -10 549 l 1,0,-1
833 1864 m 1,8,-1
 978 1864 l 1,9,-1
 978 -621 l 1,10,-1
 833 -621 l 1,11,-1
 833 1864 l 1,8,-1
EndSplineSet
Validated: 1
EndChar

StartChar: uni2563
Encoding: 9571 9571 353
Width: 1451
GlyphClass: 2
Flags: W
LayerCount: 2
Fore
SplineSet
833 1864 m 1,0,-1
 978 1864 l 1,1,-1
 978 -621 l 1,2,-1
 833 -621 l 1,3,-1
 833 1864 l 1,0,-1
473 1864 m 1,4,-1
 618 1864 l 1,5,-1
 618 729 l 1,6,-1
 -10 729 l 1,7,-1
 -10 874 l 1,8,-1
 473 874 l 1,9,-1
 473 1864 l 1,4,-1
618 -621 m 1,10,-1
 473 -621 l 1,11,-1
 473 369 l 1,12,-1
 -10 369 l 1,13,-1
 -10 514 l 1,14,-1
 618 514 l 1,15,-1
 618 -621 l 1,10,-1
EndSplineSet
Validated: 1
EndChar

StartChar: uni2564
Encoding: 9572 9572 354
Width: 1451
GlyphClass: 2
Flags: W
LayerCount: 2
Fore
SplineSet
-10 369 m 1,0,-1
 -10 514 l 1,1,-1
 1461 514 l 1,2,-1
 1461 369 l 1,3,-1
 798 369 l 1,4,-1
 798 -621 l 1,5,-1
 653 -621 l 1,6,-1
 653 369 l 1,7,-1
 -10 369 l 1,0,-1
-10 729 m 1,8,-1
 -10 874 l 1,9,-1
 1461 874 l 1,10,-1
 1461 729 l 1,11,-1
 -10 729 l 1,8,-1
EndSplineSet
Validated: 1
EndChar

StartChar: uni2565
Encoding: 9573 9573 355
Width: 1451
GlyphClass: 2
Flags: W
LayerCount: 2
Fore
SplineSet
-10 549 m 1,0,-1
 -10 694 l 1,1,-1
 1461 694 l 1,2,-1
 1461 549 l 1,3,-1
 978 549 l 1,4,-1
 978 -621 l 1,5,-1
 833 -621 l 1,6,-1
 833 549 l 1,7,-1
 618 549 l 1,8,-1
 618 -621 l 1,9,-1
 473 -621 l 1,10,-1
 473 549 l 1,11,-1
 -10 549 l 1,0,-1
EndSplineSet
Validated: 1
EndChar

StartChar: uni2566
Encoding: 9574 9574 356
Width: 1451
GlyphClass: 2
Flags: W
LayerCount: 2
Fore
SplineSet
618 -621 m 1,0,-1
 473 -621 l 1,1,-1
 473 369 l 1,2,-1
 -10 369 l 1,3,-1
 -10 514 l 1,4,-1
 618 514 l 1,5,-1
 618 -621 l 1,0,-1
833 514 m 1,6,-1
 1461 514 l 1,7,-1
 1461 369 l 1,8,-1
 978 369 l 1,9,-1
 978 -621 l 1,10,-1
 833 -621 l 1,11,-1
 833 514 l 1,6,-1
1461 874 m 1,12,-1
 1461 729 l 1,13,-1
 -10 729 l 1,14,-1
 -10 874 l 1,15,-1
 1461 874 l 1,12,-1
EndSplineSet
Validated: 1
EndChar

StartChar: uni2567
Encoding: 9575 9575 357
Width: 1451
GlyphClass: 2
Flags: W
LayerCount: 2
Fore
SplineSet
-10 729 m 1,0,-1
 -10 874 l 1,1,-1
 653 874 l 1,2,-1
 653 1864 l 1,3,-1
 798 1864 l 1,4,-1
 798 874 l 1,5,-1
 1461 874 l 1,6,-1
 1461 729 l 1,7,-1
 -10 729 l 1,0,-1
-10 369 m 1,8,-1
 -10 514 l 1,9,-1
 1461 514 l 1,10,-1
 1461 369 l 1,11,-1
 -10 369 l 1,8,-1
EndSplineSet
Validated: 1
EndChar

StartChar: uni2568
Encoding: 9576 9576 358
Width: 1451
GlyphClass: 2
Flags: W
LayerCount: 2
Fore
SplineSet
-10 549 m 1,0,-1
 -10 694 l 1,1,-1
 473 694 l 1,2,-1
 473 1864 l 1,3,-1
 618 1864 l 1,4,-1
 618 694 l 1,5,-1
 833 694 l 1,6,-1
 833 1864 l 1,7,-1
 978 1864 l 1,8,-1
 978 694 l 1,9,-1
 1461 694 l 1,10,-1
 1461 549 l 1,11,-1
 -10 549 l 1,0,-1
EndSplineSet
Validated: 1
EndChar

StartChar: uni2569
Encoding: 9577 9577 359
Width: 1451
GlyphClass: 2
Flags: W
LayerCount: 2
Fore
SplineSet
833 1864 m 1,0,-1
 978 1864 l 1,1,-1
 978 874 l 1,2,-1
 1461 874 l 1,3,-1
 1461 729 l 1,4,-1
 833 729 l 1,5,-1
 833 1864 l 1,0,-1
473 1864 m 1,6,-1
 618 1864 l 1,7,-1
 618 729 l 1,8,-1
 -10 729 l 1,9,-1
 -10 874 l 1,10,-1
 473 874 l 1,11,-1
 473 1864 l 1,6,-1
-10 369 m 1,12,-1
 -10 514 l 1,13,-1
 1461 514 l 1,14,-1
 1461 369 l 1,15,-1
 -10 369 l 1,12,-1
EndSplineSet
Validated: 1
EndChar

StartChar: uni256A
Encoding: 9578 9578 360
Width: 1451
GlyphClass: 2
Flags: W
LayerCount: 2
Fore
SplineSet
-10 369 m 1,0,-1
 -10 514 l 1,1,-1
 653 514 l 1,2,-1
 653 729 l 1,3,-1
 -10 729 l 1,4,-1
 -10 874 l 1,5,-1
 653 874 l 1,6,-1
 653 1864 l 1,7,-1
 798 1864 l 1,8,-1
 798 874 l 1,9,-1
 1461 874 l 1,10,-1
 1461 729 l 1,11,-1
 798 729 l 1,12,-1
 798 514 l 1,13,-1
 1461 514 l 1,14,-1
 1461 369 l 1,15,-1
 798 369 l 1,16,-1
 798 -621 l 1,17,-1
 653 -621 l 1,18,-1
 653 369 l 1,19,-1
 -10 369 l 1,0,-1
EndSplineSet
Validated: 1
EndChar

StartChar: uni256B
Encoding: 9579 9579 361
Width: 1451
GlyphClass: 2
Flags: W
LayerCount: 2
Fore
SplineSet
833 1864 m 1,0,-1
 978 1864 l 1,1,-1
 978 694 l 1,2,-1
 1461 694 l 1,3,-1
 1461 549 l 1,4,-1
 978 549 l 1,5,-1
 978 -621 l 1,6,-1
 833 -621 l 1,7,-1
 833 549 l 1,8,-1
 618 549 l 1,9,-1
 618 -621 l 1,10,-1
 473 -621 l 1,11,-1
 473 549 l 1,12,-1
 -10 549 l 1,13,-1
 -10 694 l 1,14,-1
 473 694 l 1,15,-1
 473 1864 l 1,16,-1
 618 1864 l 1,17,-1
 618 694 l 1,18,-1
 833 694 l 1,19,-1
 833 1864 l 1,0,-1
EndSplineSet
Validated: 1
EndChar

StartChar: uni256C
Encoding: 9580 9580 362
Width: 1451
GlyphClass: 2
Flags: W
LayerCount: 2
Fore
SplineSet
833 1864 m 1,0,-1
 978 1864 l 1,1,-1
 978 874 l 1,2,-1
 1461 874 l 1,3,-1
 1461 729 l 1,4,-1
 833 729 l 1,5,-1
 833 1864 l 1,0,-1
618 -621 m 1,6,-1
 473 -621 l 1,7,-1
 473 369 l 1,8,-1
 -10 369 l 1,9,-1
 -10 514 l 1,10,-1
 618 514 l 1,11,-1
 618 -621 l 1,6,-1
833 514 m 1,12,-1
 1461 514 l 1,13,-1
 1461 369 l 1,14,-1
 978 369 l 1,15,-1
 978 -621 l 1,16,-1
 833 -621 l 1,17,-1
 833 514 l 1,12,-1
473 1864 m 1,18,-1
 618 1864 l 1,19,-1
 618 729 l 1,20,-1
 -10 729 l 1,21,-1
 -10 874 l 1,22,-1
 473 874 l 1,23,-1
 473 1864 l 1,18,-1
EndSplineSet
Validated: 1
EndChar

StartChar: upblock
Encoding: 9600 9600 363
Width: 1451
GlyphClass: 2
Flags: W
LayerCount: 2
Fore
SplineSet
1451 621 m 1,0,-1
 0 621 l 1,1,-1
 0 1864 l 1,2,-1
 1451 1864 l 1,3,-1
 1451 621 l 1,0,-1
EndSplineSet
Validated: 1
EndChar

StartChar: dnblock
Encoding: 9604 9604 364
Width: 1451
GlyphClass: 2
Flags: W
LayerCount: 2
Fore
SplineSet
1451 -621 m 1,0,-1
 0 -621 l 1,1,-1
 0 621 l 1,2,-1
 1451 621 l 1,3,-1
 1451 -621 l 1,0,-1
EndSplineSet
Validated: 1
EndChar

StartChar: block
Encoding: 9608 9608 365
Width: 1451
GlyphClass: 2
Flags: W
LayerCount: 2
Fore
SplineSet
1451 -621 m 1,0,-1
 0 -621 l 1,1,-1
 0 1864 l 1,2,-1
 1451 1864 l 1,3,-1
 1451 -621 l 1,0,-1
EndSplineSet
Validated: 1
EndChar

StartChar: lfblock
Encoding: 9612 9612 366
Width: 1451
GlyphClass: 2
Flags: W
LayerCount: 2
Fore
SplineSet
726 -621 m 1,0,-1
 0 -621 l 1,1,-1
 0 1864 l 1,2,-1
 726 1864 l 1,3,-1
 726 -621 l 1,0,-1
EndSplineSet
Validated: 1
EndChar

StartChar: rtblock
Encoding: 9616 9616 367
Width: 1451
GlyphClass: 2
Flags: W
LayerCount: 2
Fore
SplineSet
1451 -621 m 1,0,-1
 725 -621 l 1,1,-1
 725 1864 l 1,2,-1
 1451 1864 l 1,3,-1
 1451 -621 l 1,0,-1
EndSplineSet
Validated: 1
EndChar

StartChar: ltshade
Encoding: 9617 9617 368
Width: 1451
GlyphClass: 2
Flags: W
LayerCount: 2
Fore
SplineSet
103 1314 m 1,0,-1
 207 1314 l 1,1,-1
 207 1216 l 1,2,-1
 103 1216 l 1,3,-1
 103 1314 l 1,0,-1
517 1314 m 1,4,-1
 621 1314 l 1,5,-1
 621 1216 l 1,6,-1
 517 1216 l 1,7,-1
 517 1314 l 1,4,-1
933 1314 m 1,8,-1
 1036 1314 l 1,9,-1
 1036 1216 l 1,10,-1
 933 1216 l 1,11,-1
 933 1314 l 1,8,-1
310 1119 m 1,12,-1
 414 1119 l 1,13,-1
 414 1023 l 1,14,-1
 310 1023 l 1,15,-1
 310 1119 l 1,12,-1
725 1119 m 1,16,-1
 829 1119 l 1,17,-1
 829 1023 l 1,18,-1
 725 1023 l 1,19,-1
 725 1119 l 1,16,-1
1140 1119 m 1,20,-1
 1244 1119 l 1,21,-1
 1244 1023 l 1,22,-1
 1140 1023 l 1,23,-1
 1140 1119 l 1,20,-1
933 927 m 1,24,-1
 1036 927 l 1,25,-1
 1036 831 l 1,26,-1
 933 831 l 1,27,-1
 933 927 l 1,24,-1
517 927 m 1,28,-1
 621 927 l 1,29,-1
 621 831 l 1,30,-1
 517 831 l 1,31,-1
 517 927 l 1,28,-1
103 927 m 1,32,-1
 207 927 l 1,33,-1
 207 831 l 1,34,-1
 103 831 l 1,35,-1
 103 927 l 1,32,-1
1140 732 m 1,36,-1
 1244 732 l 1,37,-1
 1244 636 l 1,38,-1
 1140 636 l 1,39,-1
 1140 732 l 1,36,-1
725 732 m 1,40,-1
 829 732 l 1,41,-1
 829 636 l 1,42,-1
 725 636 l 1,43,-1
 725 732 l 1,40,-1
310 732 m 1,44,-1
 414 732 l 1,45,-1
 414 636 l 1,46,-1
 310 636 l 1,47,-1
 310 732 l 1,44,-1
103 540 m 1,48,-1
 207 540 l 1,49,-1
 207 444 l 1,50,-1
 103 444 l 1,51,-1
 103 540 l 1,48,-1
517 540 m 1,52,-1
 621 540 l 1,53,-1
 621 444 l 1,54,-1
 517 444 l 1,55,-1
 517 540 l 1,52,-1
933 540 m 1,56,-1
 1036 540 l 1,57,-1
 1036 444 l 1,58,-1
 933 444 l 1,59,-1
 933 540 l 1,56,-1
1140 345 m 1,60,-1
 1244 345 l 1,61,-1
 1244 249 l 1,62,-1
 1140 249 l 1,63,-1
 1140 345 l 1,60,-1
725 345 m 1,64,-1
 829 345 l 1,65,-1
 829 249 l 1,66,-1
 725 249 l 1,67,-1
 725 345 l 1,64,-1
310 345 m 1,68,-1
 414 345 l 1,69,-1
 414 249 l 1,70,-1
 310 249 l 1,71,-1
 310 345 l 1,68,-1
103 153 m 1,72,-1
 207 153 l 1,73,-1
 207 56 l 1,74,-1
 103 56 l 1,75,-1
 103 153 l 1,72,-1
517 153 m 1,76,-1
 621 153 l 1,77,-1
 621 56 l 1,78,-1
 517 56 l 1,79,-1
 517 153 l 1,76,-1
933 153 m 1,80,-1
 1036 153 l 1,81,-1
 1036 56 l 1,82,-1
 933 56 l 1,83,-1
 933 153 l 1,80,-1
310 -42 m 1,84,-1
 414 -42 l 1,85,-1
 414 -136 l 1,86,-1
 310 -136 l 1,87,-1
 310 -42 l 1,84,-1
725 -42 m 1,88,-1
 829 -42 l 1,89,-1
 829 -136 l 1,90,-1
 725 -136 l 1,91,-1
 725 -42 l 1,88,-1
1140 -42 m 1,92,-1
 1244 -42 l 1,93,-1
 1244 -136 l 1,94,-1
 1140 -136 l 1,95,-1
 1140 -42 l 1,92,-1
933 -234 m 1,96,-1
 1036 -234 l 1,97,-1
 1036 -331 l 1,98,-1
 933 -331 l 1,99,-1
 933 -234 l 1,96,-1
517 -234 m 1,100,-1
 621 -234 l 1,101,-1
 621 -331 l 1,102,-1
 517 -331 l 1,103,-1
 517 -234 l 1,100,-1
103 -234 m 1,104,-1
 207 -234 l 1,105,-1
 207 -331 l 1,106,-1
 103 -331 l 1,107,-1
 103 -234 l 1,104,-1
310 -427 m 1,108,-1
 414 -427 l 1,109,-1
 414 -523 l 1,110,-1
 310 -523 l 1,111,-1
 310 -427 l 1,108,-1
725 -427 m 1,112,-1
 829 -427 l 1,113,-1
 829 -523 l 1,114,-1
 725 -523 l 1,115,-1
 725 -427 l 1,112,-1
1140 -427 m 1,116,-1
 1244 -427 l 1,117,-1
 1244 -523 l 1,118,-1
 1140 -523 l 1,119,-1
 1140 -427 l 1,116,-1
310 1506 m 1,120,-1
 414 1506 l 1,121,-1
 414 1408 l 1,122,-1
 310 1408 l 1,123,-1
 310 1506 l 1,120,-1
725 1506 m 1,124,-1
 829 1506 l 1,125,-1
 829 1408 l 1,126,-1
 725 1408 l 1,127,-1
 725 1506 l 1,124,-1
1140 1506 m 1,128,-1
 1244 1506 l 1,129,-1
 1244 1408 l 1,130,-1
 1140 1408 l 1,131,-1
 1140 1506 l 1,128,-1
103 1699 m 1,132,-1
 207 1699 l 1,133,-1
 207 1603 l 1,134,-1
 103 1603 l 1,135,-1
 103 1699 l 1,132,-1
517 1699 m 1,136,-1
 621 1699 l 1,137,-1
 621 1603 l 1,138,-1
 517 1603 l 1,139,-1
 517 1699 l 1,136,-1
933 1699 m 1,140,-1
 1036 1699 l 1,141,-1
 1036 1603 l 1,142,-1
 933 1603 l 1,143,-1
 933 1699 l 1,140,-1
1347 1314 m 1,144,-1
 1451 1314 l 1,145,-1
 1451 1216 l 1,146,-1
 1347 1216 l 1,147,-1
 1347 1314 l 1,144,-1
1347 927 m 1,148,-1
 1451 927 l 1,149,-1
 1451 831 l 1,150,-1
 1347 831 l 1,151,-1
 1347 927 l 1,148,-1
1347 540 m 1,152,-1
 1451 540 l 1,153,-1
 1451 444 l 1,154,-1
 1347 444 l 1,155,-1
 1347 540 l 1,152,-1
1347 153 m 1,156,-1
 1451 153 l 1,157,-1
 1451 56 l 1,158,-1
 1347 56 l 1,159,-1
 1347 153 l 1,156,-1
1347 -234 m 1,160,-1
 1451 -234 l 1,161,-1
 1451 -331 l 1,162,-1
 1347 -331 l 1,163,-1
 1347 -234 l 1,160,-1
1347 1699 m 1,164,-1
 1451 1699 l 1,165,-1
 1451 1603 l 1,166,-1
 1347 1603 l 1,167,-1
 1347 1699 l 1,164,-1
EndSplineSet
Validated: 1
EndChar

StartChar: shade
Encoding: 9618 9618 369
Width: 1451
GlyphClass: 2
Flags: W
LayerCount: 2
Fore
SplineSet
103 1314 m 1,0,-1
 207 1314 l 1,1,-1
 207 1216 l 1,2,-1
 103 1216 l 1,3,-1
 103 1314 l 1,0,-1
310 1314 m 1,4,-1
 414 1314 l 1,5,-1
 414 1216 l 1,6,-1
 310 1216 l 1,7,-1
 310 1314 l 1,4,-1
517 1314 m 1,8,-1
 621 1314 l 1,9,-1
 621 1216 l 1,10,-1
 517 1216 l 1,11,-1
 517 1314 l 1,8,-1
725 1314 m 1,12,-1
 829 1314 l 1,13,-1
 829 1216 l 1,14,-1
 725 1216 l 1,15,-1
 725 1314 l 1,12,-1
933 1314 m 1,16,-1
 1037 1314 l 1,17,-1
 1037 1216 l 1,18,-1
 933 1216 l 1,19,-1
 933 1314 l 1,16,-1
1140 1314 m 1,20,-1
 1244 1314 l 1,21,-1
 1244 1216 l 1,22,-1
 1140 1216 l 1,23,-1
 1140 1314 l 1,20,-1
0 1119 m 1,24,-1
 103 1119 l 1,25,-1
 103 1023 l 1,26,-1
 0 1023 l 1,27,-1
 0 1119 l 1,24,-1
207 1119 m 1,28,-1
 310 1119 l 1,29,-1
 310 1023 l 1,30,-1
 207 1023 l 1,31,-1
 207 1119 l 1,28,-1
414 1119 m 1,32,-1
 517 1119 l 1,33,-1
 517 1023 l 1,34,-1
 414 1023 l 1,35,-1
 414 1119 l 1,32,-1
621 1119 m 1,36,-1
 725 1119 l 1,37,-1
 725 1023 l 1,38,-1
 621 1023 l 1,39,-1
 621 1119 l 1,36,-1
829 1119 m 1,40,-1
 933 1119 l 1,41,-1
 933 1023 l 1,42,-1
 829 1023 l 1,43,-1
 829 1119 l 1,40,-1
1037 1119 m 1,44,-1
 1140 1119 l 1,45,-1
 1140 1023 l 1,46,-1
 1037 1023 l 1,47,-1
 1037 1119 l 1,44,-1
103 927 m 1,48,-1
 207 927 l 1,49,-1
 207 831 l 1,50,-1
 103 831 l 1,51,-1
 103 927 l 1,48,-1
310 927 m 1,52,-1
 414 927 l 1,53,-1
 414 831 l 1,54,-1
 310 831 l 1,55,-1
 310 927 l 1,52,-1
517 927 m 1,56,-1
 621 927 l 1,57,-1
 621 831 l 1,58,-1
 517 831 l 1,59,-1
 517 927 l 1,56,-1
725 927 m 1,60,-1
 829 927 l 1,61,-1
 829 831 l 1,62,-1
 725 831 l 1,63,-1
 725 927 l 1,60,-1
933 927 m 1,64,-1
 1037 927 l 1,65,-1
 1037 831 l 1,66,-1
 933 831 l 1,67,-1
 933 927 l 1,64,-1
1140 927 m 1,68,-1
 1244 927 l 1,69,-1
 1244 831 l 1,70,-1
 1140 831 l 1,71,-1
 1140 927 l 1,68,-1
0 732 m 1,72,-1
 103 732 l 1,73,-1
 103 636 l 1,74,-1
 0 636 l 1,75,-1
 0 732 l 1,72,-1
207 732 m 1,76,-1
 310 732 l 1,77,-1
 310 636 l 1,78,-1
 207 636 l 1,79,-1
 207 732 l 1,76,-1
414 732 m 1,80,-1
 517 732 l 1,81,-1
 517 636 l 1,82,-1
 414 636 l 1,83,-1
 414 732 l 1,80,-1
621 732 m 1,84,-1
 725 732 l 1,85,-1
 725 636 l 1,86,-1
 621 636 l 1,87,-1
 621 732 l 1,84,-1
829 732 m 1,88,-1
 933 732 l 1,89,-1
 933 636 l 1,90,-1
 829 636 l 1,91,-1
 829 732 l 1,88,-1
1037 732 m 1,92,-1
 1140 732 l 1,93,-1
 1140 636 l 1,94,-1
 1037 636 l 1,95,-1
 1037 732 l 1,92,-1
103 540 m 1,96,-1
 207 540 l 1,97,-1
 207 444 l 1,98,-1
 103 444 l 1,99,-1
 103 540 l 1,96,-1
310 540 m 1,100,-1
 414 540 l 1,101,-1
 414 444 l 1,102,-1
 310 444 l 1,103,-1
 310 540 l 1,100,-1
517 540 m 1,104,-1
 621 540 l 1,105,-1
 621 444 l 1,106,-1
 517 444 l 1,107,-1
 517 540 l 1,104,-1
725 540 m 1,108,-1
 829 540 l 1,109,-1
 829 444 l 1,110,-1
 725 444 l 1,111,-1
 725 540 l 1,108,-1
933 540 m 1,112,-1
 1037 540 l 1,113,-1
 1037 444 l 1,114,-1
 933 444 l 1,115,-1
 933 540 l 1,112,-1
1140 540 m 1,116,-1
 1244 540 l 1,117,-1
 1244 444 l 1,118,-1
 1140 444 l 1,119,-1
 1140 540 l 1,116,-1
0 345 m 1,120,-1
 103 345 l 1,121,-1
 103 249 l 1,122,-1
 0 249 l 1,123,-1
 0 345 l 1,120,-1
414 345 m 1,124,-1
 517 345 l 1,125,-1
 517 249 l 1,126,-1
 414 249 l 1,127,-1
 414 345 l 1,124,-1
621 345 m 1,128,-1
 725 345 l 1,129,-1
 725 249 l 1,130,-1
 621 249 l 1,131,-1
 621 345 l 1,128,-1
829 345 m 1,132,-1
 933 345 l 1,133,-1
 933 249 l 1,134,-1
 829 249 l 1,135,-1
 829 345 l 1,132,-1
1037 345 m 1,136,-1
 1140 345 l 1,137,-1
 1140 249 l 1,138,-1
 1037 249 l 1,139,-1
 1037 345 l 1,136,-1
207 345 m 1,140,-1
 310 345 l 1,141,-1
 310 249 l 1,142,-1
 207 249 l 1,143,-1
 207 345 l 1,140,-1
1140 153 m 1,144,-1
 1244 153 l 1,145,-1
 1244 56 l 1,146,-1
 1140 56 l 1,147,-1
 1140 153 l 1,144,-1
933 153 m 1,148,-1
 1037 153 l 1,149,-1
 1037 56 l 1,150,-1
 933 56 l 1,151,-1
 933 153 l 1,148,-1
725 153 m 1,152,-1
 829 153 l 1,153,-1
 829 56 l 1,154,-1
 725 56 l 1,155,-1
 725 153 l 1,152,-1
517 153 m 1,156,-1
 621 153 l 1,157,-1
 621 56 l 1,158,-1
 517 56 l 1,159,-1
 517 153 l 1,156,-1
310 153 m 1,160,-1
 414 153 l 1,161,-1
 414 56 l 1,162,-1
 310 56 l 1,163,-1
 310 153 l 1,160,-1
103 153 m 1,164,-1
 207 153 l 1,165,-1
 207 56 l 1,166,-1
 103 56 l 1,167,-1
 103 153 l 1,164,-1
0 -42 m 1,168,-1
 103 -42 l 1,169,-1
 103 -136 l 1,170,-1
 0 -136 l 1,171,-1
 0 -42 l 1,168,-1
207 -42 m 1,172,-1
 310 -42 l 1,173,-1
 310 -136 l 1,174,-1
 207 -136 l 1,175,-1
 207 -42 l 1,172,-1
414 -42 m 1,176,-1
 517 -42 l 1,177,-1
 517 -136 l 1,178,-1
 414 -136 l 1,179,-1
 414 -42 l 1,176,-1
621 -42 m 1,180,-1
 725 -42 l 1,181,-1
 725 -136 l 1,182,-1
 621 -136 l 1,183,-1
 621 -42 l 1,180,-1
829 -42 m 1,184,-1
 933 -42 l 1,185,-1
 933 -136 l 1,186,-1
 829 -136 l 1,187,-1
 829 -42 l 1,184,-1
1037 -42 m 1,188,-1
 1140 -42 l 1,189,-1
 1140 -136 l 1,190,-1
 1037 -136 l 1,191,-1
 1037 -42 l 1,188,-1
1140 -234 m 1,192,-1
 1244 -234 l 1,193,-1
 1244 -331 l 1,194,-1
 1140 -331 l 1,195,-1
 1140 -234 l 1,192,-1
933 -234 m 1,196,-1
 1037 -234 l 1,197,-1
 1037 -331 l 1,198,-1
 933 -331 l 1,199,-1
 933 -234 l 1,196,-1
725 -234 m 1,200,-1
 829 -234 l 1,201,-1
 829 -331 l 1,202,-1
 725 -331 l 1,203,-1
 725 -234 l 1,200,-1
517 -234 m 1,204,-1
 621 -234 l 1,205,-1
 621 -331 l 1,206,-1
 517 -331 l 1,207,-1
 517 -234 l 1,204,-1
310 -234 m 1,208,-1
 414 -234 l 1,209,-1
 414 -331 l 1,210,-1
 310 -331 l 1,211,-1
 310 -234 l 1,208,-1
103 -234 m 1,212,-1
 207 -234 l 1,213,-1
 207 -331 l 1,214,-1
 103 -331 l 1,215,-1
 103 -234 l 1,212,-1
0 -427 m 1,216,-1
 103 -427 l 1,217,-1
 103 -523 l 1,218,-1
 0 -523 l 1,219,-1
 0 -427 l 1,216,-1
207 -427 m 1,220,-1
 310 -427 l 1,221,-1
 310 -523 l 1,222,-1
 207 -523 l 1,223,-1
 207 -427 l 1,220,-1
414 -427 m 1,224,-1
 517 -427 l 1,225,-1
 517 -523 l 1,226,-1
 414 -523 l 1,227,-1
 414 -427 l 1,224,-1
621 -427 m 1,228,-1
 725 -427 l 1,229,-1
 725 -523 l 1,230,-1
 621 -523 l 1,231,-1
 621 -427 l 1,228,-1
829 -427 m 1,232,-1
 933 -427 l 1,233,-1
 933 -523 l 1,234,-1
 829 -523 l 1,235,-1
 829 -427 l 1,232,-1
1037 -427 m 1,236,-1
 1140 -427 l 1,237,-1
 1140 -523 l 1,238,-1
 1037 -523 l 1,239,-1
 1037 -427 l 1,236,-1
0 1506 m 1,240,-1
 103 1506 l 1,241,-1
 103 1408 l 1,242,-1
 0 1408 l 1,243,-1
 0 1506 l 1,240,-1
207 1506 m 1,244,-1
 310 1506 l 1,245,-1
 310 1408 l 1,246,-1
 207 1408 l 1,247,-1
 207 1506 l 1,244,-1
414 1506 m 1,248,-1
 517 1506 l 1,249,-1
 517 1408 l 1,250,-1
 414 1408 l 1,251,-1
 414 1506 l 1,248,-1
621 1506 m 1,252,-1
 725 1506 l 1,253,-1
 725 1408 l 1,254,-1
 621 1408 l 1,255,-1
 621 1506 l 1,252,-1
829 1506 m 1,256,-1
 933 1506 l 1,257,-1
 933 1408 l 1,258,-1
 829 1408 l 1,259,-1
 829 1506 l 1,256,-1
1037 1506 m 1,260,-1
 1140 1506 l 1,261,-1
 1140 1408 l 1,262,-1
 1037 1408 l 1,263,-1
 1037 1506 l 1,260,-1
103 1699 m 1,264,-1
 207 1699 l 1,265,-1
 207 1603 l 1,266,-1
 103 1603 l 1,267,-1
 103 1699 l 1,264,-1
310 1699 m 1,268,-1
 414 1699 l 1,269,-1
 414 1603 l 1,270,-1
 310 1603 l 1,271,-1
 310 1699 l 1,268,-1
517 1699 m 1,272,-1
 621 1699 l 1,273,-1
 621 1603 l 1,274,-1
 517 1603 l 1,275,-1
 517 1699 l 1,272,-1
725 1699 m 1,276,-1
 829 1699 l 1,277,-1
 829 1603 l 1,278,-1
 725 1603 l 1,279,-1
 725 1699 l 1,276,-1
933 1699 m 1,280,-1
 1037 1699 l 1,281,-1
 1037 1603 l 1,282,-1
 933 1603 l 1,283,-1
 933 1699 l 1,280,-1
1140 1699 m 1,284,-1
 1244 1699 l 1,285,-1
 1244 1603 l 1,286,-1
 1140 1603 l 1,287,-1
 1140 1699 l 1,284,-1
1347 1314 m 1,288,-1
 1451 1314 l 1,289,-1
 1451 1216 l 1,290,-1
 1347 1216 l 1,291,-1
 1347 1314 l 1,288,-1
1244 1119 m 1,292,-1
 1347 1119 l 1,293,-1
 1347 1023 l 1,294,-1
 1244 1023 l 1,295,-1
 1244 1119 l 1,292,-1
1347 927 m 1,296,-1
 1451 927 l 1,297,-1
 1451 831 l 1,298,-1
 1347 831 l 1,299,-1
 1347 927 l 1,296,-1
1244 732 m 1,300,-1
 1347 732 l 1,301,-1
 1347 636 l 1,302,-1
 1244 636 l 1,303,-1
 1244 732 l 1,300,-1
1347 540 m 1,304,-1
 1451 540 l 1,305,-1
 1451 444 l 1,306,-1
 1347 444 l 1,307,-1
 1347 540 l 1,304,-1
1244 345 m 1,308,-1
 1347 345 l 1,309,-1
 1347 249 l 1,310,-1
 1244 249 l 1,311,-1
 1244 345 l 1,308,-1
1347 153 m 1,312,-1
 1451 153 l 1,313,-1
 1451 56 l 1,314,-1
 1347 56 l 1,315,-1
 1347 153 l 1,312,-1
1244 -42 m 1,316,-1
 1347 -42 l 1,317,-1
 1347 -136 l 1,318,-1
 1244 -136 l 1,319,-1
 1244 -42 l 1,316,-1
1347 -234 m 1,320,-1
 1451 -234 l 1,321,-1
 1451 -331 l 1,322,-1
 1347 -331 l 1,323,-1
 1347 -234 l 1,320,-1
1244 -427 m 1,324,-1
 1347 -427 l 1,325,-1
 1347 -523 l 1,326,-1
 1244 -523 l 1,327,-1
 1244 -427 l 1,324,-1
1244 1506 m 1,328,-1
 1347 1506 l 1,329,-1
 1347 1408 l 1,330,-1
 1244 1408 l 1,331,-1
 1244 1506 l 1,328,-1
1347 1699 m 1,332,-1
 1451 1699 l 1,333,-1
 1451 1603 l 1,334,-1
 1347 1603 l 1,335,-1
 1347 1699 l 1,332,-1
EndSplineSet
Validated: 1
EndChar

